<svg><metadata>Created by FontForge 20090622 at Sat Aug 24 02:37:11 2019 By deploy user Copyright 2011 Canonical Ltd. Licensed under the Ubuntu Font Licence 1.0</metadata><defs><font id="Ubuntu-Italic" horiz-adv-x="376"><font-face x-height="520" ascent="800" bbox="-167 -190 3585 962" cap-height="693" descent="-200" font-family="Ubuntu" font-stretch="normal" font-style="italic" font-weight="400" panose-1="2 11 5 4 3 6 2 10 2 4" slope="-13" underline-position="-84" underline-thickness="79" unicode-range="U+0008-U+FB04" units-per-em="1000"/><glyph d="M294 520h174l-18 -78h-174l-80 -330l-21 -91t-21.5 -75t-33 -67.5t-55.5 -67.5l-82 12q30 39 47 66t28.5 55t20 64.5l22.5 94.5l111 464q12 50 30.5 89t47 65.5t67.5 40.5t93 14q35 0 66.5 -7t47.5 -15l-37 -74q-8 4 -27.5 10t-57.5 6q-33 0 -56 -9.5t-39 -26.5 t-25.5 -41t-16.5 -54zM666 520h174l-18 -78h-174l-80 -330l-21 -91t-21.5 -75t-33 -67.5t-55.5 -67.5l-82 12q30 39 47 66t28.5 55t20 64.5l22.5 94.5l111 464q12 50 30.5 89t47 65.5t67.5 40.5t93 14q35 0 66.5 -7t47.5 -15l-37 -74q-8 4 -27.5 10t-57.5 6q-33 0 -56 -9.5 t-39 -26.5t-25.5 -41t-16.5 -54z" glyph-name="f_f" horiz-adv-x="740" unicode="ff"/><glyph d="M541 0h-93l125 520h93zM649 614q-23 0 -38.5 14t-15.5 39q0 32 20 50.5t45 18.5q23 0 39 -14.5t16 -40.5q0 -30 -21 -48.5t-45 -18.5zM212 567q12 50 30.5 89t47 65.5t67.5 40.5t93 14q29 0 55 -5.5t42 -13.5l-37 -74q-8 4 -24.5 8.5t-43.5 4.5q-33 0 -56 -9.5t-39 -26.5 t-25.5 -41t-16.5 -54l-11 -45h174l-18 -78h-174l-80 -330l-21 -91t-21.5 -75t-33 -67.5t-55.5 -67.5l-82 12q30 39 47 66t28.5 55t20 64.5l22.5 94.5z" glyph-name="f_i" horiz-adv-x="621" unicode="fi"/><glyph d="M591 229l-10 -43t-5 -40q0 -34 16.5 -54t61.5 -25l-21 -76q-41 1 -69.5 12.5t-46 30.5t-25.5 45t-8 57q0 23 4 48t11 52l126 524l97 16zM212 567q12 50 30.5 89t47 65.5t67.5 40.5t93 14q29 0 55 -5.5t42 -13.5l-37 -74q-8 4 -24.5 8.5t-43.5 4.5q-33 0 -56 -9.5 t-39 -26.5t-25.5 -41t-16.5 -54l-11 -45h174l-18 -78h-174l-80 -330l-21 -91t-21.5 -75t-33 -67.5t-55.5 -67.5l-82 12q30 39 47 66t28.5 55t20 64.5l22.5 94.5z" glyph-name="f_l" horiz-adv-x="652" unicode="fl"/><glyph d="M294 520h174l-18 -78h-174l-80 -330l-21 -91t-21.5 -75t-33 -67.5t-55.5 -67.5l-82 12q30 39 47 66t28.5 55t20 64.5l22.5 94.5l111 464q12 50 30.5 89t47 65.5t67.5 40.5t93 14q35 0 66.5 -7t47.5 -15l-37 -74q-8 4 -27.5 10t-57.5 6q-33 0 -56 -9.5t-39 -26.5 t-25.5 -41t-16.5 -54zM913 0h-93l125 520h93zM1021 614q-23 0 -38.5 14t-15.5 39q0 32 20 50.5t45 18.5q23 0 39 -14.5t16 -40.5q0 -30 -21 -48.5t-45 -18.5zM584 567q12 50 30.5 89t47 65.5t67.5 40.5t93 14q29 0 55 -5.5t42 -13.5l-37 -74q-8 4 -24.5 8.5t-43.5 4.5 q-33 0 -56 -9.5t-39 -26.5t-25.5 -41t-16.5 -54l-11 -45h174l-18 -78h-174l-80 -330l-21 -91t-21.5 -75t-33 -67.5t-55.5 -67.5l-82 12q30 39 47 66t28.5 55t20 64.5l22.5 94.5z" glyph-name="f_f_i" horiz-adv-x="993" unicode="ffi"/><glyph d="M294 520h174l-18 -78h-174l-80 -330l-21 -91t-21.5 -75t-33 -67.5t-55.5 -67.5l-82 12q30 39 47 66t28.5 55t20 64.5l22.5 94.5l111 464q12 50 30.5 89t47 65.5t67.5 40.5t93 14q35 0 66.5 -7t47.5 -15l-37 -74q-8 4 -27.5 10t-57.5 6q-33 0 -56 -9.5t-39 -26.5 t-25.5 -41t-16.5 -54zM963 229l-10 -43t-5 -40q0 -34 16.5 -54t61.5 -25l-21 -76q-41 1 -69.5 12.5t-46 30.5t-25.5 45t-8 57q0 23 4 48t11 52l126 524l97 16zM584 567q12 50 30.5 89t47 65.5t67.5 40.5t93 14q29 0 55 -5.5t42 -13.5l-37 -74q-8 4 -24.5 8.5t-43.5 4.5 q-33 0 -56 -9.5t-39 -26.5t-25.5 -41t-16.5 -54l-11 -45h174l-18 -78h-174l-80 -330l-21 -91t-21.5 -75t-33 -67.5t-55.5 -67.5l-82 12q30 39 47 66t28.5 55t20 64.5l22.5 94.5z" glyph-name="f_f_l" horiz-adv-x="1024" unicode="ffl"/><glyph d="M50 0v750h400v-750h-400zM400 50v650h-300v-650h300z" glyph-name=".notdef" horiz-adv-x="500"/><glyph glyph-name=".null" horiz-adv-x="0"/><glyph glyph-name=".null" horiz-adv-x="0"/><glyph glyph-name=".null" horiz-adv-x="0"/><glyph glyph-name="nonmarkingreturn" horiz-adv-x="231"/><glyph glyph-name="nonmarkingreturn" horiz-adv-x="231"/><glyph glyph-name="space" horiz-adv-x="231"/><glyph d="M338 693l-45 -189q-6 -24 -16.5 -62.5t-23 -79.5t-26 -80.5t-24.5 -65.5h-57q8 68 18.5 136.5t30.5 152.5l45 188h98zM133 -13q-28 0 -44 15t-16 44q0 36 21.5 55.5t49.5 19.5t44.5 -15.5t16.5 -45.5q0 -17 -6.5 -30.5t-16.5 -23t-23 -14.5t-26 -5z" glyph-name="exclam" horiz-adv-x="250" unicode="!"/><glyph d="M348 760l-12 -50q-12 -49 -30.5 -103.5t-40.5 -105.5h-54q4 54 11 106.5t19 103.5l12 49h95zM521 760l-12 -50q-12 -49 -30.5 -103.5t-40.5 -105.5h-54q4 54 11 106.5t19 103.5l12 49h95z" glyph-name="quotedbl" horiz-adv-x="410" unicode="&quot;"/><glyph d="M402 510h157l78 183h84l-78 -183h84l-18 -74h-97l-78 -179h132l-18 -74h-145l-78 -183h-84l77 183h-156l-78 -183h-84l77 183h-86l18 74h100l77 179h-134l18 74h147l79 183h84zM293 257h157l78 179h-157z" glyph-name="numbersign" horiz-adv-x="654" unicode="#"/><glyph d="M277 96q29 0 58 5.5t52 18.5t37 34.5t14 53.5q0 22 -8.5 38t-24 29t-37 23.5l-46.5 22.5q-22 10 -43.5 23t-38.5 31.5t-27.5 44t-10.5 61.5q0 72 48.5 120.5t144.5 60.5l27 114h81l-27 -112q43 -4 77.5 -17.5t52.5 -25.5l-42 -69q-17 12 -49.5 23t-80.5 11 q-29 0 -54.5 -5.5t-45 -17.5t-30.5 -30.5t-11 -43.5q0 -41 25 -63t76 -46q27 -12 52 -26t43.5 -33t29.5 -44.5t11 -60.5q0 -44 -15 -78t-43 -58.5t-66.5 -39.5t-84.5 -20l-30 -129h-81l31 130q-26 1 -50 6t-45 12t-37 14.5t-25 13.5l43 71q18 -11 55 -26.5t95 -15.5z" glyph-name="dollar" horiz-adv-x="564" unicode="$"/><glyph d="M269 0h-95l549 693h95zM158 476q0 42 13.5 83.5t38 74.5t60.5 53.5t81 20.5q60 0 93.5 -34.5t33.5 -101.5q0 -42 -13.5 -83.5t-38 -74.5t-60.5 -53.5t-81 -20.5q-60 0 -93.5 34.5t-33.5 101.5zM404 565q0 34 -11.5 55.5t-46.5 21.5q-29 0 -50.5 -16t-35.5 -39.5 t-21 -51.5t-7 -52q0 -34 11.5 -55.5t46.5 -21.5q29 0 50.5 16t35.5 39.5t21 51.5t7 52zM514 121q0 42 13.5 83.5t38 74.5t60.5 53.5t81 20.5q60 0 93.5 -34.5t33.5 -101.5q0 -42 -13.5 -83.5t-38 -74.5t-60.5 -53.5t-81 -20.5q-60 0 -93.5 34.5t-33.5 101.5zM760 210 q0 34 -11.5 55.5t-46.5 21.5q-29 0 -50.5 -16t-35.5 -39.5t-21 -51.5t-7 -52q0 -34 11.5 -55.5t46.5 -21.5q29 0 50.5 16t35.5 39.5t21 51.5t7 52z" glyph-name="percent" horiz-adv-x="836" unicode="%"/><glyph d="M78 147q0 45 14.5 81t40 64.5t60.5 51t76 40.5q-17 28 -29 59t-12 71q0 45 15 81t42.5 61.5t67 39t87.5 13.5q28 0 54 -8.5t45 -25.5t30.5 -41.5t11.5 -57.5q0 -39 -14 -70.5t-39.5 -57.5t-60.5 -48t-77 -41l116 -161q48 61 77 141l81 -10q-14 -42 -41.5 -93.5 t-69.5 -100.5q25 -35 46.5 -69t33.5 -66h-96q-8 18 -19.5 36.5t-25.5 38.5q-45 -37 -100.5 -60.5t-127.5 -23.5q-50 0 -85 11.5t-57.5 32.5t-33 49.5t-10.5 62.5zM270 68q48 0 94 17.5t83 51.5l-138 190q-26 -11 -51 -26.5t-44.5 -35.5t-32 -45.5t-12.5 -56.5 q0 -42 22.5 -68.5t78.5 -26.5zM315 520q0 -27 10.5 -53t26.5 -52q26 10 52 24.5t46.5 33.5t33 42t12.5 50q0 34 -18.5 52t-50.5 18q-45 0 -78.5 -28.5t-33.5 -86.5z" glyph-name="ampersand" horiz-adv-x="640" unicode="&amp;"/><glyph d="M348 760l-12 -50q-12 -49 -30.5 -103.5t-40.5 -105.5h-54q4 54 11 106.5t19 103.5l12 49h95z" glyph-name="quotesingle" horiz-adv-x="236" unicode="'"/><glyph d="M491 739q-63 -63 -114 -133.5t-86.5 -146t-55 -155t-19.5 -161.5q0 -85 12 -153t41 -131l-71 -40q-34 60 -53 139t-19 166q0 190 76.5 354t226.5 305z" glyph-name="parenleft" horiz-adv-x="317" unicode="("/><glyph d="M-50 -141q63 63 114 133.5t86.5 146t55 155t19.5 161.5q0 85 -12 153t-41 131l71 40q34 -60 53 -139t19 -166q0 -190 -76.5 -354t-226.5 -305z" glyph-name="parenright" horiz-adv-x="317" unicode=")"/><glyph d="M396 685q0 -42 -7.5 -80l-15.5 -80l70.5 39t76.5 33l6 2l28 -84l-8 -3q-40 -15 -80 -19.5t-82 -7.5l62 -54.5t54 -61.5l5 -7l-73 -51l-4 6q-24 36 -41.5 71.5l-35.5 73.5l-35.5 -73.5t-41.5 -71.5l-4 -6l-73 51l5 7q25 35 54 61.5l62 54.5q-42 3 -82 7.5t-80 19.5l-8 3 l28 84l6 -2q42 -14 76.5 -33l70.5 -39l-15.5 80t-7.5 80v8h90v-8z" glyph-name="asterisk" horiz-adv-x="470" unicode="*"/><glyph d="M455 543l-50 -206h182l-19 -79h-182l-50 -207h-84l49 207h-182l19 79h182l50 206h85z" glyph-name="plus" horiz-adv-x="564" unicode="+"/><glyph d="M198 114q-5 -36 -17 -73t-29.5 -72.5t-39.5 -68t-46 -59.5l-63 26q20 27 36.5 59t28.5 65t20 64.5t11 58.5h99z" glyph-name="comma" horiz-adv-x="246" unicode=","/><glyph d="M107 343h242l-20 -87h-242z" glyph-name="hyphen" horiz-adv-x="293" unicode="-"/><glyph d="M128 -13q-28 0 -44 15t-16 44q0 36 21.5 55.5t49.5 19.5t44.5 -15.5t16.5 -45.5q0 -17 -6.5 -30.5t-16.5 -23t-23 -14.5t-26 -5z" glyph-name="period" horiz-adv-x="246" unicode="."/><glyph d="M27 -185h-93l559 968h93z" glyph-name="slash" unicode="/"/><glyph d="M609 501q0 -49 -9 -106.5t-26.5 -115t-44.5 -110.5t-63.5 -94t-82.5 -65.5t-101 -24.5q-85 0 -125.5 52.5t-40.5 155.5q0 49 9 106.5t26.5 115t44.5 110.5t63.5 94t82 65.5t101.5 24.5q85 0 125.5 -52.5t40.5 -155.5zM514 489q0 75 -18 107t-64 32q-31 0 -60 -19 t-53.5 -51t-44.5 -74.5t-34 -89.5t-21.5 -96t-7.5 -93q0 -75 18 -107t64 -32q32 0 60.5 19t53 51t44.5 74.5t34 89.5t21.5 95.5t7.5 93.5z" glyph-name="zero" horiz-adv-x="564" unicode="0"/><glyph d="M408 555q-14 -11 -33.5 -22.5t-42 -22.5t-46.5 -20.5t-46 -16.5l-15 77q60 22 122.5 56.5t119.5 86.5h67l-166 -693h-93z" glyph-name="one" horiz-adv-x="564" unicode="1"/><glyph d="M589 552q0 -53 -17 -93t-46 -73.5t-67 -63l-81 -61.5l-53 -41t-53 -45.5t-44 -48t-27 -48.5h301l-18 -78h-405q8 53 28.5 96t49 79t63 66t71.5 58l75.5 56.5t64.5 56t45 59.5t17 68q0 42 -22.5 65.5t-73.5 23.5q-28 0 -53 -7t-45 -17t-35.5 -21.5t-24.5 -20.5l-32 72 q14 13 35 26t47.5 24t57 18t62.5 7q48 0 82.5 -13.5t56 -35.5t31.5 -50t10 -58z" glyph-name="two" horiz-adv-x="564" unicode="2"/><glyph d="M249 67q40 0 74.5 9.5t60 28.5t39.5 47.5t14 66.5q0 60 -43.5 86t-115.5 26h-21l18 76h31q33 0 64.5 8.5t57 26t41 43t15.5 59.5q0 42 -25.5 63.5t-73.5 21.5q-43 0 -77.5 -13.5t-59.5 -29.5l-22 72q13 9 32 18t42 16.5t48.5 12t51.5 4.5q47 0 80.5 -12t55.5 -33 t32 -49.5t10 -60.5q0 -66 -38.5 -112.5t-104.5 -72.5q17 -7 34.5 -19.5t31 -31t22 -43t8.5 -54.5q0 -53 -18.5 -96.5t-54.5 -74.5t-89 -48t-123 -17q-35 0 -64.5 5t-52.5 11.5t-38.5 13.5t-21.5 11l35 79q7 -4 19.5 -10.5t30.5 -12.5t41.5 -10.5t53.5 -4.5z" glyph-name="three" horiz-adv-x="564" unicode="3"/><glyph d="M481 177l-42 -177h-90l42 177h-304l15 63q28 47 73.5 107t101 122t116.5 120.5t121 103.5h91l-106 -440h81l-18 -76h-81zM488 577q-36 -30 -75 -67.5t-77 -79.5t-73 -87t-63 -90h210z" glyph-name="four" horiz-adv-x="564" unicode="4"/><glyph d="M368 615q-6 -20 -14.5 -46l-17.5 -52.5l-17 -50.5l-13 -40q114 -15 171.5 -62t57.5 -134q0 -51 -17 -96t-53 -78t-91.5 -52t-131.5 -19q-32 0 -60.5 5t-51 11.5t-37.5 13t-20 9.5l36 78q14 -8 48.5 -21.5t89.5 -13.5q41 0 76.5 10.5t61.5 30t41 48.5t15 65q0 46 -25 72.5 t-62 40t-80 17.5t-79 6l31 88l28.5 82.5t25.5 81t23 84.5h324l-18 -78h-241z" glyph-name="five" horiz-adv-x="564" unicode="5"/><glyph d="M236 318q-10 -32 -15 -65.5t-5 -59.5q0 -63 22.5 -97.5t79.5 -34.5q39 0 69 16.5t50.5 43.5t31 60.5t10.5 68.5q0 48 -23.5 73t-77.5 25q-35 0 -70.5 -6.5t-71.5 -23.5zM124 185q0 105 35.5 198t100 162.5t156 110t204.5 40.5h13l-11 -79h-5q-71 0 -128.5 -18.5 t-102.5 -49t-76.5 -71.5t-49.5 -86q32 16 69 24.5t71 8.5q45 0 77.5 -13.5t53.5 -36t30.5 -52.5t9.5 -63q0 -50 -15.5 -99.5t-47.5 -88.5t-82.5 -63t-120.5 -24q-88 0 -134.5 53.5t-46.5 146.5z" glyph-name="six" horiz-adv-x="564" unicode="6"/><glyph d="M158 0q15 53 39.5 110.5t55.5 115.5t66.5 114t72.5 106.5t74.5 93t71.5 72.5h-329l19 81h435l-19 -80q-43 -37 -99 -103t-111 -148.5t-103 -175.5t-75 -186h-98z" glyph-name="seven" horiz-adv-x="564" unicode="7"/><glyph d="M469 349q34 -23 57.5 -56.5t23.5 -86.5q0 -44 -16.5 -84t-49.5 -70.5t-83 -48.5t-116 -18q-50 0 -85 14t-57 36t-32 50t-10 56q0 72 42.5 128t117.5 93q-61 48 -61 124q0 45 16.5 85t47.5 71t75.5 49t100.5 18q46 0 79.5 -13t54.5 -35t31 -49.5t10 -56.5 q0 -69 -38.5 -120.5t-107.5 -85.5zM330 327q-27 -12 -52 -30t-44 -40t-30 -47.5t-11 -52.5q0 -20 5 -37t17 -30.5t32 -21t50 -7.5q33 0 62.5 10t51.5 28t34.5 43t12.5 55q0 49 -34 79t-94 51zM396 381q25 12 48 28t40.5 36.5t28 45t10.5 54.5q0 15 -4 31t-14.5 28.5 t-29 20.5t-46.5 8q-30 0 -55 -10.5t-43.5 -28.5t-29 -43.5t-10.5 -55.5q0 -42 25 -69t80 -45z" glyph-name="eight" horiz-adv-x="564" unicode="8"/><glyph d="M326 272q-45 0 -77.5 13t-53.5 35.5t-31 52.5t-10 63q0 50 15.5 99t48 87.5t81.5 62t115 23.5q93 0 140 -53.5t47 -146.5q0 -107 -33.5 -200t-96.5 -162t-154 -108.5t-206 -39.5h-10.5t-15.5 1l17 79q3 -1 9.5 -1h8.5q70 0 125.5 17.5t98 48.5t72.5 72t50 89 q-32 -16 -69 -24t-71 -8zM348 349q35 0 70.5 6.5t71.5 23.5q9 30 14 63.5t5 66.5q0 55 -24 89t-78 34q-39 0 -69 -16.5t-50.5 -42.5t-31 -59.5t-10.5 -67.5q0 -48 24 -72.5t78 -24.5z" glyph-name="nine" horiz-adv-x="564" unicode="9"/><glyph d="M223 386q-28 0 -44 15t-16 44q0 36 21.5 55.5t49.5 19.5t44.5 -15.5t16.5 -45.5q0 -17 -6.5 -30.5t-16.5 -23t-23 -14.5t-26 -5zM128 -13q-28 0 -44 15t-16 44q0 36 21.5 55.5t49.5 19.5t44.5 -15.5t16.5 -45.5q0 -17 -6.5 -30.5t-16.5 -23t-23 -14.5t-26 -5z" glyph-name="colon" horiz-adv-x="246" unicode=":"/><glyph d="M198 114q-5 -36 -17 -73t-29.5 -72.5t-39.5 -68t-46 -59.5l-63 26q20 27 36.5 59t28.5 65t20 64.5t11 58.5h99zM223 386q-28 0 -44 15t-16 44q0 36 21.5 55.5t49.5 19.5t44.5 -15.5t16.5 -45.5q0 -17 -6.5 -30.5t-16.5 -23t-23 -14.5t-26 -5z" glyph-name="semicolon" horiz-adv-x="246" unicode=";"/><glyph d="M499 74l-380 183l19 80l468 183l6 -82l-382 -146l311 -145z" glyph-name="less" horiz-adv-x="564" unicode="&lt;"/><glyph d="M164 443h449l-19 -79h-449zM113 230h449l-19 -79h-449z" glyph-name="equal" horiz-adv-x="564" unicode="="/><glyph d="M207 520l380 -183l-19 -80l-468 -183l-6 82l382 146l-311 145z" glyph-name="greater" horiz-adv-x="564" unicode="&gt;"/><glyph d="M488 567q0 -33 -12 -61t-31.5 -51.5t-43.5 -44t-49 -39.5q-37 -29 -67.5 -60.5t-41.5 -75.5q-2 -6 -2.5 -11.5t-0.5 -7.5h-81q1 12 2 22t3 20q12 51 47 87.5t80 71.5l39 32t33.5 33t23 36.5t8.5 42.5q0 11 -3 24t-12.5 23.5t-26.5 17.5t-45 7q-48 0 -80 -11t-50 -20 l-10 72q24 14 65.5 24.5t86.5 10.5q47 0 79 -11t52 -30t28.5 -45t8.5 -56zM176 -13q-28 0 -44 15t-16 44q0 36 21.5 55.5t49.5 19.5t44.5 -15.5t16.5 -45.5q0 -17 -6.5 -30.5t-16.5 -23t-23 -14.5t-26 -5z" glyph-name="question" horiz-adv-x="384" unicode="?"/><glyph d="M694 43q-63 0 -89 35q-23 -14 -54 -22.5t-66 -8.5q-75 0 -120 42.5t-45 127.5q0 57 19.5 110.5t56.5 94t90 65t121 24.5q52 0 90.5 -9t58.5 -17l-73 -304q-5 -15 -5 -29q0 -12 6.5 -21t26.5 -9q42 0 72 24.5t50 63t29.5 84.5t9.5 89q0 55 -14 101t-45.5 79t-82.5 51.5 t-125 18.5q-87 0 -162 -37.5t-130 -100t-86 -145t-31 -172.5q0 -67 19.5 -115t54.5 -79t84 -46t108 -15q58 0 97.5 7.5t50.5 11.5l-7 -74q-9 -3 -26 -6.5t-38.5 -7t-46 -5.5t-48.5 -2q-72 0 -133 20.5t-105.5 61t-69.5 100.5t-25 139q0 100 33.5 197.5t98.5 173.5t159 123 t216 47q163 0 251 -81t88 -239q0 -47 -10.5 -106.5t-39.5 -113t-80.5 -90t-132.5 -36.5zM498 122q54 0 92 20q0 17 2 28.5t5 22.5l57 235q-5 2 -22 4t-37 2q-43 0 -77 -17t-58 -46t-37 -67t-13 -79q0 -54 22.5 -78.5t65.5 -24.5z" glyph-name="at" horiz-adv-x="931" unicode="@"/><glyph d="M214 178l-98 -178h-106q112 202 218.5 372l210.5 321h95q15 -75 27.5 -151.5t24.5 -160.5t23 -178l23 -203h-98q-5 45 -9 90.5t-9 87.5h-302zM507 256q-8 81 -18.5 161t-24.5 165l-87 -131.5t-118 -194.5h248z" glyph-name="A" horiz-adv-x="636" unicode="A"/><glyph d="M263 -7q-20 0 -43.5 1t-47.5 3t-47 5.5t-41 8.5l161 672q42 10 93.5 13.5t92.5 3.5q51 0 93.5 -8.5t73 -27t48 -48.5t17.5 -72q0 -61 -36.5 -107.5t-100.5 -69.5q43 -16 69.5 -49t26.5 -81q0 -69 -28 -116t-76.5 -75.5t-114 -40.5t-140.5 -12zM254 324l-58 -246 q11 -2 33 -3.5t56 -1.5q37 0 79 5.5t77 22t58.5 46.5t23.5 80q0 49 -35 73t-113 24h-121zM273 400h95q33 0 67.5 5.5t63 20t47 39.5t18.5 64q0 51 -38 71t-116 20q-26 0 -51 -2t-34 -4z" glyph-name="B" horiz-adv-x="618" unicode="B"/><glyph d="M387 -15q-65 0 -114.5 19t-82.5 54t-49.5 84.5t-16.5 111.5q0 90 28.5 172t81 145t126.5 100.5t165 37.5q78 0 124.5 -16t66.5 -30l-40 -80q-23 15 -62.5 28.5t-93.5 13.5q-69 0 -124 -32.5t-93 -84t-58 -116t-20 -127.5q0 -195 169 -195q36 0 64.5 5t50.5 11.5t39 14.5 l30 14l12 -84q-12 -7 -31.5 -15t-45.5 -15t-58 -11.5t-68 -4.5z" glyph-name="C" horiz-adv-x="600" unicode="C"/><glyph d="M415 618q-75 0 -90 -4l-128 -534q8 -2 27 -3.5t62 -1.5q79 0 142.5 26.5t107.5 74t68 113t24 143.5q0 88 -51 137t-162 49zM423 700q154 0 230 -72.5t76 -195.5q0 -86 -27 -165.5t-84 -140.5t-145.5 -97t-211.5 -36q-42 0 -91 4t-86 14l161 673q42 10 89 13t89 3z" glyph-name="D" horiz-adv-x="691" unicode="D"/><glyph d="M81 0l166 693h409l-19 -81h-313l-50 -209h278l-19 -79h-277l-59 -243h336l-19 -81h-433z" glyph-name="E" horiz-adv-x="557" unicode="E"/><glyph d="M81 0l166 693h405l-19 -81h-309l-51 -212h274l-19 -79h-273l-77 -321h-97z" glyph-name="F" horiz-adv-x="524" unicode="F"/><glyph d="M380 -14q-126 0 -191 72.5t-65 195.5q0 90 28.5 172t81.5 145t127.5 100.5t167.5 37.5q46 0 79.5 -6t57.5 -14t39 -16.5t24 -14.5l-43 -79q-8 5 -22 13t-34 15.5t-46 12.5t-59 5q-71 0 -127 -32.5t-94.5 -84t-58.5 -116t-20 -127.5q0 -99 42 -147.5t133 -48.5q37 0 67 5 t43 10l60 254h95l-76 -316q-12 -7 -33 -13.5t-49 -11.5t-60.5 -8t-66.5 -3z" glyph-name="G" horiz-adv-x="651" unicode="G"/><glyph d="M596 0h-97l77 322h-321l-77 -322h-97l166 693h97l-70 -290h321l70 290h97z" glyph-name="H" horiz-adv-x="681" unicode="H"/><glyph d="M247 693h97l-166 -693h-97z" glyph-name="I" horiz-adv-x="263" unicode="I"/><glyph d="M455 223q-12 -48 -27 -91.5t-42.5 -76t-72 -51.5t-114.5 -19q-35 0 -63.5 6.5t-50.5 16.5t-37.5 20.5t-23.5 19.5l48 73q16 -16 48 -34t81 -18q36 0 61 9t43 28.5t30.5 50.5t23.5 75l111 461h97z" glyph-name="J" horiz-adv-x="482" unicode="J"/><glyph d="M750 693l-85.5 -76.5l-99 -86.5l-103.5 -88l-99 -81q31 -29 65.5 -72t68 -92t64 -100t53.5 -97h-108q-26 46 -56 94t-61.5 92t-64.5 82.5t-66 65.5l-80 -334h-97l166 693h97l-73 -303q44 33 95 75l100 84l91.5 80l70.5 64h122z" glyph-name="K" horiz-adv-x="614" unicode="K"/><glyph d="M504 81l-19 -81h-404l166 693h97l-147 -612h307z" glyph-name="L" horiz-adv-x="507" unicode="L"/><glyph d="M783 544l-40 -57l-52 -77l-58 -87.5l-58 -88l-52 -79l-39 -59.5h-78l-10.5 60.5l-14.5 79l-16.5 88l-17 87.5l-15.5 76.5t-12 56.5q-42 -129 -82 -266l-78 -278h-96l50.5 181.5l54 180l55 172.5l53.5 159h95q12 -44 25.5 -104l27 -125.5t25 -130.5t19.5 -118l79.5 119 l87.5 130.5l85.5 125l74.5 103.5h93q-17 -169 -45.5 -343.5t-62.5 -349.5h-97q30 144 55 279.5t44 264.5z" glyph-name="M" horiz-adv-x="847" unicode="M"/><glyph d="M528 0l-43 132t-54.5 150t-60.5 147.5t-61 124.5l-133 -554h-95l166 693h83q32 -54 65.5 -122.5t64 -140.5t56.5 -141t43 -124l124 528h95l-165 -693h-85z" glyph-name="N" horiz-adv-x="698" unicode="N"/><glyph d="M525 709q55 0 101.5 -16.5t80 -49.5t52 -82.5t18.5 -115.5q0 -83 -25.5 -165t-75.5 -147.5t-125 -106.5t-175 -41q-56 0 -102 16.5t-79.5 49.5t-52 82.5t-18.5 115.5q0 82 25 164.5t75.5 148t125.5 106.5t175 41zM386 69q67 0 121 32.5t91.5 84.5t57.5 117t20 130 q0 89 -38.5 140.5t-122.5 51.5q-68 0 -121.5 -32.5t-91 -84.5t-57.5 -117t-20 -130q0 -89 38.5 -140.5t122.5 -51.5z" glyph-name="O" horiz-adv-x="739" unicode="O"/><glyph d="M423 700q121 0 182.5 -46t61.5 -134q0 -68 -25.5 -117.5t-72.5 -81.5t-113 -47.5t-147 -15.5h-69l-62 -258h-97l164 684q42 10 89 13t89 3zM411 618q-71 0 -86 -4l-66 -275h63q42 0 86 7.5t79 26.5t57.5 52.5t22.5 86.5q0 57 -42 81.5t-114 24.5z" glyph-name="P" horiz-adv-x="590" unicode="P"/><glyph d="M433 -11q-1 -3 -1 -7v-6q0 -20 15.5 -34t41 -24t59 -16.5t69.5 -10.5l-34 -76q-35 4 -78 12t-80.5 25.5t-62.5 46.5t-25 75v5t1 8q-96 10 -155 76t-59 186q0 82 25 164.5t75.5 148t125.5 106.5t175 41q55 0 101.5 -16.5t80 -49.5t52 -82.5t18.5 -115.5q0 -77 -21.5 -153 t-65 -139.5t-108 -107.5t-149.5 -56zM386 69q67 0 121 32.5t91.5 84.5t57.5 117t20 130q0 89 -38.5 140.5t-122.5 51.5q-68 0 -121.5 -32.5t-91 -84.5t-57.5 -117t-20 -130q0 -89 38.5 -140.5t122.5 -51.5z" glyph-name="Q" horiz-adv-x="739" unicode="Q"/><glyph d="M423 700q111 0 176 -45t65 -132q0 -88 -51.5 -147.5t-144.5 -85.5q12 -21 28 -53.5t33 -72t33 -82t28 -82.5h-99l-29 77t-30.5 75t-31 67.5t-28.5 55.5q-13 -1 -26 -1.5t-26 -0.5h-77l-65 -273h-97l164 684q42 10 89 13t89 3zM411 618q-71 0 -86 -4l-63 -262h59 q41 0 84 6t78.5 23.5t58 49t22.5 83.5q0 56 -42.5 80t-110.5 24z" glyph-name="R" horiz-adv-x="609" unicode="R"/><glyph d="M246 69q31 0 61.5 6.5t54.5 21.5t39 39.5t15 60.5q0 25 -9.5 43.5t-26 33t-39 27l-49.5 26.5q-23 12 -46.5 26t-42 34.5t-30 48.5t-11.5 67q0 45 17.5 83t51.5 65.5t83.5 42.5t113.5 15q30 0 57 -4.5t49.5 -11.5t39.5 -14.5t25 -13.5l-45 -76q-17 14 -54.5 25.5 t-88.5 11.5q-32 0 -59.5 -6.5t-47.5 -20.5t-32 -35.5t-12 -51.5q0 -26 8 -43.5t22 -31t34.5 -24.5l44.5 -23q30 -15 56.5 -30.5t46.5 -36.5t31.5 -49t11.5 -68q0 -55 -21.5 -96.5t-59 -69t-89 -41.5t-111.5 -14q-40 0 -72.5 5.5t-57 13.5t-41.5 16.5t-26 15.5l45 79 q19 -13 60 -29.5t104 -16.5z" glyph-name="S" horiz-adv-x="517" unicode="S"/><glyph d="M699 693l-19 -81h-209l-147 -612h-97l147 612h-209l19 81h515z" glyph-name="T" horiz-adv-x="555" unicode="T"/><glyph d="M334 -15q-52 0 -90 15.5t-63 42t-37 63t-12 78.5q0 22 4 49t9 50l98 410h97l-100 -416q-5 -19 -8 -42t-3 -43q0 -26 6 -48t20.5 -38.5t37.5 -26t56 -9.5q85 0 132 47.5t71 151.5l102 424h97l-104 -435q-14 -57 -32.5 -107t-52.5 -86.5t-88.5 -58t-139.5 -21.5z" glyph-name="U" horiz-adv-x="666" unicode="U"/><glyph d="M331 115q42 60 85.5 129l87 143.5l85 151.5l79.5 154h107l-107.5 -197.5l-104 -179l-103 -164t-105.5 -152.5h-95q-15 75 -28 151.5t-24 160.5t-21.5 177.5t-20.5 203.5h100q16 -178 30.5 -319t34.5 -259z" glyph-name="V" horiz-adv-x="623" unicode="V"/><glyph d="M637 609q8 -134 22.5 -260t28.5 -225q30 56 62.5 123l65 140.5l65 151l62.5 154.5h103q-80 -198 -159.5 -369t-167.5 -324h-98q-17 106 -33 218.5t-26 245.5l-133.5 -236.5t-139.5 -227.5h-98q-8 81 -11 162t-3 168t3 175.5t9 187.5h96q-7 -105 -11 -207.5t-4 -208.5 q0 -77 3 -153q69 106 137.5 229l137.5 256h89z" glyph-name="W" horiz-adv-x="916" unicode="W"/><glyph d="M484 0q-23 70 -50.5 142.5t-61.5 147.5l-245 -290h-114l319 370l-141 323h107l105 -255l106 127t97 128h111q-60 -82 -132 -166.5l-142 -162.5l75.5 -183t66.5 -181h-101z" glyph-name="X" horiz-adv-x="605" unicode="X"/><glyph d="M232 0l66 278q-39 105 -72.5 210.5t-61.5 204.5h105q19 -81 42.5 -165t52.5 -162l133.5 162t119.5 165h111l-157 -204.5l-176 -210.5l-66 -278h-97z" glyph-name="Y" horiz-adv-x="572" unicode="Y"/><glyph d="M666 616l-66 -62l-82 -81.5l-90.5 -94l-92.5 -101l-88 -101.5t-76 -95h374l-19 -81h-491l15 65q29 39 67 85.5l81 97l89 101.5l91 99l87 90l77 74h-343l19 81h466z" glyph-name="Z" horiz-adv-x="561" unicode="Z"/><glyph d="M281 783h221l-17 -73h-134l-198 -822h134l-18 -73h-221z" glyph-name="bracketleft" horiz-adv-x="322" unicode="["/><glyph d="M165 783h85l106 -968h-87z" glyph-name="backslash" unicode="\"/><glyph d="M180 -185h-221l17 73h134l198 822h-134l18 73h221z" glyph-name="bracketright" horiz-adv-x="322" unicode="]"/><glyph d="M421 600l-223 -279l-68 41l268 334h79l109 -343l-76 -33z" glyph-name="asciicircum" horiz-adv-x="564" unicode="^"/><glyph d="M-27 -106h500l-19 -79h-500z" glyph-name="underscore" horiz-adv-x="496" unicode="_"/><glyph d="M298 779l127 -160l-49 -43l-146 146z" glyph-name="grave" unicode="`"/><glyph d="M432 -6q-5 11 -10 24.5t-8 28.5q-22 -20 -59 -40t-91 -20q-44 0 -75.5 14t-51.5 39t-29.5 59t-9.5 75q0 67 22.5 131t67.5 114t113 81t159 31q27 0 63 -6t62 -20l-77 -314q-5 -23 -8.5 -44t-3.5 -44t4 -46.5t14 -50.5zM283 66q42 0 72 18t52 42q1 17 3.5 35.5t6.5 37.5 l60 248q-5 2 -16.5 3t-20.5 1q-57 0 -103 -22t-78.5 -58.5t-50 -85t-17.5 -101.5q0 -21 4 -42.5t14.5 -38t28 -27t45.5 -10.5z" glyph-name="a" horiz-adv-x="544" unicode="a"/><glyph d="M289 499q23 14 53 24t64 10q43 0 75.5 -14t53.5 -38.5t31.5 -58.5t10.5 -73q0 -69 -22 -133.5t-67 -115t-112.5 -81t-158.5 -30.5q-15 0 -33 1.5t-36.5 5.5t-36 10t-30.5 14l177 740l97 16zM383 454q-30 0 -59.5 -10.5t-55.5 -29.5l-81 -339q10 -2 23 -4t26 -2 q57 0 103 22.5t78 60t49.5 86t17.5 101.5q0 22 -4.5 43t-16 37t-31 25.5t-49.5 9.5z" glyph-name="b" horiz-adv-x="555" unicode="b"/><glyph d="M100 186q0 68 20.5 131t60.5 111t98 76.5t133 28.5q33 0 63 -4.5t57 -17.5l-35 -78q-16 9 -37.5 14t-55.5 5q-49 0 -88 -21.5t-66.5 -57t-42 -82t-14.5 -96.5q0 -26 5.5 -49t19.5 -40.5t37.5 -27.5t59.5 -10q18 0 38 3.5t37 8.5t30.5 10.5t19.5 10.5l8 -79 q-19 -12 -59 -23.5t-91 -11.5q-48 0 -85 14.5t-62 41t-38 63t-13 80.5z" glyph-name="c" horiz-adv-x="451" unicode="c"/><glyph d="M499 103q0 -23 4 -46.5t14 -50.5l-82 -12q-11 22 -17 53q-22 -20 -59 -40t-91 -20q-44 0 -76 13.5t-53 38.5t-31 59.5t-10 75.5q0 67 22.5 131t67 114t111.5 80.5t156 30.5q11 0 22 -1t23 -3l56 234l97 16l-141 -585q-5 -23 -9 -44t-4 -44zM287 66q42 0 71.5 17.5 t51.5 40.5q1 16 3.5 34.5t7.5 40.5l60 250q-9 2 -20 2.5t-21 0.5q-57 0 -103 -22t-78.5 -59t-50 -85.5t-17.5 -101.5q0 -23 5 -44t16 -37.5t29.5 -26.5t45.5 -10z" glyph-name="d" horiz-adv-x="547" unicode="d"/><glyph d="M204 273q58 2 106 7.5t83 19t54.5 36.5t19.5 60q0 9 -3.5 19t-12 18.5t-23.5 14t-37 5.5q-35 0 -65.5 -15t-54.5 -39.5t-41 -57t-26 -68.5zM299 -13q-51 0 -88 14.5t-62 40t-37 59.5t-12 72q0 70 21 135t60 115t95 79.5t127 29.5q41 0 70.5 -10.5t48 -28.5t27.5 -41.5 t9 -48.5q0 -47 -17 -79.5t-45 -54.5t-65.5 -34t-78 -19t-82 -9.5t-78.5 -4.5q-1 -8 -1 -13v-8q0 -23 5.5 -43.5t20.5 -36t41.5 -24.5t69.5 -9q19 0 39.5 3.5t39 9t33 11t20.5 10.5l8 -79q-20 -11 -64.5 -23.5t-104.5 -12.5z" glyph-name="e" horiz-adv-x="518" unicode="e"/><glyph d="M294 520h174l-18 -78h-174l-80 -330l-21 -91t-21.5 -75t-33 -67.5t-55.5 -67.5l-82 12q30 39 47 66t28.5 55t20 64.5l22.5 94.5l111 464q12 50 30.5 89t47 65.5t67.5 40.5t93 14q35 0 66.5 -7t47.5 -15l-37 -74q-8 4 -27.5 10t-57.5 6q-33 0 -56 -9.5t-39 -26.5 t-25.5 -41t-16.5 -54z" glyph-name="f" horiz-adv-x="368" unicode="f"/><glyph d="M202 -108q41 0 72 10t53.5 29t36.5 45t22 59l4 19q-20 -11 -54 -22t-70 -11q-81 0 -124.5 40.5t-43.5 113.5q0 67 22 131t67 114t112 80.5t157 30.5q14 0 31.5 -2t36 -5.5t36 -9.5t30.5 -14l-109 -455q-13 -54 -32 -97t-52 -73t-85 -46.5t-130 -16.5q-43 0 -85 11.5 t-71 28.5l35 78q23 -17 61 -27.5t80 -10.5zM286 99q40 0 73.5 14.5t51.5 27.5l73 304q-10 2 -23 4t-25 2q-54 0 -99 -20.5t-77.5 -55t-50.5 -80t-18 -94.5q0 -54 23.5 -78t71.5 -24z" glyph-name="g" horiz-adv-x="550" unicode="g"/><glyph d="M76 0l183 760l97 16l-64 -263q23 8 48.5 13t51.5 5q45 0 77.5 -12.5t52.5 -34t29.5 -52t9.5 -66.5q0 -44 -14 -100l-64 -266h-93l59 246q7 28 13.5 57t6.5 55q0 40 -22 66.5t-82 26.5q-24 0 -49.5 -4.5t-42.5 -12.5l-104 -434h-93z" glyph-name="h" horiz-adv-x="552" unicode="h"/><glyph d="M169 0h-93l125 520h93zM277 614q-23 0 -38.5 14t-15.5 39q0 32 20 50.5t45 18.5q23 0 39 -14.5t16 -40.5q0 -30 -21 -48.5t-45 -18.5z" glyph-name="i" horiz-adv-x="249" unicode="i"/><glyph d="M174 20q-14 -56 -30.5 -95.5t-41 -64.5t-58.5 -36.5t-83 -11.5q-17 0 -38.5 5t-33.5 13l21 77q11 -7 28 -11t37 -4q45 0 68.5 35t37.5 92l120 501h93zM278 614q-23 0 -38.5 14t-15.5 39q0 32 20 50.5t45 18.5q23 0 39 -14.5t16 -40.5q0 -30 -21 -48.5t-45 -18.5z" glyph-name="j" horiz-adv-x="249" unicode="j"/><glyph d="M76 0l183 760l97 16l-112 -463q33 24 68 52.5l66.5 56.5l58 53.5t43.5 44.5h110q-21 -26 -53.5 -58l-68.5 -64.5l-72.5 -62.5t-65.5 -51q27 -25 54.5 -59.5t53 -73t46.5 -78t35 -73.5h-101q-35 81 -83.5 149t-102.5 111l-63 -260h-93z" glyph-name="k" horiz-adv-x="517" unicode="k"/><glyph d="M215 229l-10 -43t-5 -40q0 -34 16.5 -54t61.5 -25l-21 -76q-41 1 -69.5 12.5t-46 30.5t-25.5 45t-8 57q0 23 4 48t11 52l126 524l97 16z" glyph-name="l" horiz-adv-x="276" unicode="l"/><glyph d="M678 531q44 0 74.5 -13.5t49 -36.5t26.5 -53.5t8 -64.5q0 -22 -3.5 -47.5t-9.5 -49.5l-64 -266h-93l59 246l11.5 51.5t6.5 56.5q0 19 -4.5 37t-15 31t-29.5 21t-47 8q-32 0 -62 -12.5t-50 -25.5q2 -14 3.5 -27.5t1.5 -26.5q0 -23 -3.5 -46.5t-8.5 -46.5l-64 -266h-93 l59 246l11 52t6 58q0 19 -4 36.5t-13.5 30.5t-25.5 20.5t-41 7.5t-48.5 -3t-39.5 -8l-106 -440h-93l120 500q45 14 98.5 22.5t95.5 8.5t71 -14.5t46 -38.5q10 7 27.5 16t40 17t49 14t54.5 6z" glyph-name="m" horiz-adv-x="828" unicode="m"/><glyph d="M169 0h-93l120 500q46 14 99.5 22.5t95.5 8.5q45 0 77.5 -12.5t52.5 -34t29.5 -52t9.5 -66.5q0 -23 -4 -48.5t-10 -51.5l-64 -266h-93l59 246q7 28 13.5 57t6.5 55q0 40 -22 66.5t-82 26.5q-25 0 -49 -3t-40 -8z" glyph-name="n" horiz-adv-x="551" unicode="n"/><glyph d="M275 -13q-82 0 -128.5 48.5t-46.5 133.5q0 58 16.5 122t52.5 118t93 89t138 35q82 0 128.5 -48.5t46.5 -133.5q0 -58 -16.5 -122t-52.5 -118t-93 -89t-138 -35zM291 66q45 0 80.5 26t60 66.5t37.5 89.5t13 95q0 51 -22 81t-76 30q-45 0 -80.5 -26t-60 -66.5t-37.5 -89.5 t-13 -95q0 -51 22 -81t76 -30z" glyph-name="o" horiz-adv-x="555" unicode="o"/><glyph d="M379 533q49 0 84.5 -14t58.5 -38.5t34.5 -58t11.5 -73.5q0 -69 -21 -133.5t-64.5 -114.5t-110 -80t-157.5 -30q-11 0 -24 1t-23 3l-43 -180h-93l164 683q42 17 91.5 26t91.5 9zM187 73q10 -2 21.5 -2.5t22.5 -0.5q57 0 102 22t76.5 59.5t48.5 86t17 101.5q0 22 -5 43 t-18.5 37t-36.5 25.5t-59 9.5q-25 0 -46 -4.5t-35 -8.5z" glyph-name="p" horiz-adv-x="546" unicode="p"/><glyph d="M333 -185l48 201q-23 -12 -52 -20.5t-61 -8.5q-44 0 -76 13.5t-53 38.5t-31 59.5t-10 75.5q0 67 22.5 131t67.5 114t113 81t159 31q28 0 64.5 -6.5t66.5 -22.5l-165 -687h-93zM291 66q29 0 58 9.5t53 27.5l83 343q-28 5 -45 5q-57 0 -103 -22t-78.5 -58.5t-50 -85 t-17.5 -101.5q0 -23 4.5 -44t15.5 -37.5t30.5 -26.5t49.5 -10z" glyph-name="q" horiz-adv-x="551" unicode="q"/><glyph d="M374 531q12 0 27 -1t29.5 -3.5t26.5 -5t18 -5.5l-27 -81q-20 8 -46 12t-50 4q-21 0 -41.5 -3t-35.5 -8l-106 -440h-93l120 500q40 14 86 22.5t92 8.5z" glyph-name="r" horiz-adv-x="372" unicode="r"/><glyph d="M206 65q21 0 42.5 4t38 13t27 24.5t10.5 38.5q0 15 -5 26.5t-16 21.5t-27.5 19.5t-39.5 21.5q-23 11 -42 22t-33.5 26t-22.5 35.5t-8 49.5q0 75 54 120.5t157 45.5q48 0 84.5 -9.5t50.5 -17.5l-35 -76q-14 8 -45 17t-69 9q-19 0 -38 -4t-34.5 -13.5t-25 -25t-9.5 -37.5 q0 -27 21 -44.5t63 -36.5q26 -12 46.5 -24.5t35 -28t22 -36.5t7.5 -50q0 -42 -16 -74t-44.5 -53t-67.5 -31.5t-85 -10.5q-34 0 -61.5 4.5t-48 10.5t-34 12.5t-20.5 10.5l36 76q7 -4 19.5 -10t30 -12t38.5 -10t44 -4z" glyph-name="s" horiz-adv-x="412" unicode="s"/><glyph d="M254 -14q-75 0 -110 33t-35 96q0 41 14 105l107 445l97 16l-39 -161h177l-19 -78h-177l-55 -230q-12 -47 -12 -82q0 -33 18 -47.5t60 -14.5q29 0 57 9.5t43 17.5l7 -79q-15 -9 -51 -19.5t-82 -10.5z" glyph-name="t" horiz-adv-x="389" unicode="t"/><glyph d="M266 -13q-44 0 -73.5 13t-48 35t-26.5 52t-8 64q0 26 4.5 51.5t10.5 51.5l64 266h93l-59 -246q-5 -23 -13 -54t-8 -62q0 -18 3.5 -34.5t13 -29t25.5 -20t40 -7.5q43 0 75.5 18.5t54.5 43.5q1 16 3 33t7 37l77 321h93l-79 -329q-5 -23 -8.5 -44.5t-3.5 -44.5t4 -46t14 -50 l-82 -12q-5 11 -10 25t-8 30q-11 -10 -26 -21t-34.5 -20t-43 -15t-51.5 -6z" glyph-name="u" horiz-adv-x="550" unicode="u"/><glyph d="M193 0q-12 51 -23 112t-20 127.5t-15 137.5t-8 143h94q1 -49 4.5 -104.5t8.5 -111t12 -107t15 -93.5q30 38 62.5 89.5t62.5 108t55 113.5t40 105h94q-22 -66 -56 -137t-73.5 -139.5t-83 -131.5t-84.5 -112h-85z" glyph-name="v" horiz-adv-x="481" unicode="v"/><glyph d="M573 108q25 31 56 81.5t61 108t56 116t40 106.5h95q-22 -69 -56 -142t-73.5 -141.5t-82 -129.5t-81.5 -107h-83q-11 87 -19.5 175t-10.5 179q-20 -45 -45 -93t-53 -94.5l-56 -89.5t-54 -77h-83q-21 103 -34 234.5t-15 285.5h93q1 -47 3 -102t5 -110.5t7 -107.5t10 -92 q31 43 61.5 95t58 106t51 108t40.5 103h84q0 -45 1.5 -96.5t5 -105.5t8 -107.5t10.5 -102.5z" glyph-name="w" horiz-adv-x="787" unicode="w"/><glyph d="M316 333l77.5 98t61.5 89h101q-43 -63 -94.5 -127.5l-105.5 -127.5l64 -130.5t55 -134.5h-97q-15 45 -38.5 97l-46.5 100l-173 -197h-108l240 268l-129 252h103z" glyph-name="x" horiz-adv-x="473" unicode="x"/><glyph d="M281 84q38 60 69 124.5t54.5 123.5t39.5 108.5t23 79.5h97q-11 -38 -31 -94.5t-48.5 -122t-64 -134t-77.5 -131.5q-32 -47 -64 -88.5t-68.5 -72t-80.5 -48t-99 -17.5q-28 0 -52 7t-35 15l32 76q10 -8 27 -13.5t38 -5.5q58 0 98.5 28t76.5 74q-37 121 -60.5 255t-28.5 272 h95q1 -45 5 -98.5t11.5 -111t18 -115.5t24.5 -111z" glyph-name="y" horiz-adv-x="478" unicode="y"/><glyph d="M524 453l-78.5 -73.5l-103.5 -102l-103.5 -108t-78.5 -91.5h279l-18 -78h-388l14 60q30 44 76 97.5l95.5 106.5l97.5 100t84 78h-249l18 78h371z" glyph-name="z" horiz-adv-x="454" unicode="z"/><glyph d="M120 335q22 0 41 8.5t33.5 22t24 31t13.5 35.5l43 180q11 46 27.5 78.5t43 53t65 30t92.5 9.5h4l-18 -73q-27 0 -48 -3.5t-36.5 -14.5t-26.5 -30.5t-18 -50.5l-37 -154q-16 -66 -38.5 -103t-64.5 -55q21 -17 29.5 -40.5t8.5 -49.5q0 -17 -3 -34t-7 -34l-37 -154 q-3 -14 -5 -25t-2 -20q0 -32 21 -42t66 -12l-19 -73h-4q-72 0 -111 25.5t-39 85.5q0 23 8 60l43 180q4 15 4 29q0 28 -16.5 47t-54.5 21z" glyph-name="braceleft" horiz-adv-x="326" unicode="{"/><glyph d="M281 783h85l-233 -968h-85z" glyph-name="bar" horiz-adv-x="275" unicode="|"/><glyph d="M345 263q-23 0 -42 -8.5t-33 -22t-23.5 -31t-13.5 -35.5l-43 -180q-11 -46 -27.5 -78.5t-43 -53t-65 -30t-92.5 -9.5h-4l18 73q28 0 48.5 3.5t36 14.5t26 30t18.5 51l37 154q16 66 38.5 103t64.5 55q-21 17 -29.5 40.5t-8.5 49.5q0 17 3 34t7 34l37 154q3 14 5 25t2 20 q0 32 -21 42t-66 12l19 73h4q72 0 111 -25.5t39 -85.5q0 -23 -8 -60l-43 -180q-4 -15 -4 -29q0 -28 16.5 -47t54.5 -21z" glyph-name="braceright" horiz-adv-x="326" unicode="}"/><glyph d="M367 339l41 -29.5t45 -13.5q16 0 29.5 8t23.5 19.5t18 25.5t14 26l64 -20q-8 -22 -21.5 -46.5t-33.5 -45.5t-46.5 -34.5t-60.5 -13.5q-35 0 -57.5 13.5t-41.5 27.5l-41 29.5t-45 13.5q-17 0 -30 -8t-23.5 -19.5t-18 -25.5l-13.5 -26l-64 20q8 22 21.5 46.5t33.5 45.5 t46.5 34.5t60.5 13.5q35 0 57.5 -13.5t41.5 -27.5z" glyph-name="asciitilde" horiz-adv-x="564" unicode="~"/><glyph d="M288 227v-18q0 -42 10.5 -69.5t28.5 -43.5t42.5 -22.5t52.5 -6.5q45 0 77 8.5t56 19.5l3 -79q-7 -4 -22 -9t-35.5 -9.5t-43.5 -7.5t-46 -3q-105 0 -160 54.5t-55 162.5v23h-92l17 72h80q3 25 8 50t12 51h-77l17 72h84q20 49 49 91.5t69 74t90.5 50t112.5 18.5 q39 0 66.5 -6t53.5 -17l-37 -75q-16 8 -36.5 13.5t-58.5 5.5q-39 0 -71 -12t-58.5 -32.5t-47 -49t-35.5 -61.5h237l-30 -72h-234q-8 -25 -13 -50.5t-8 -50.5h211l-30 -72h-187z" glyph-name="Euro" horiz-adv-x="564" unicode="€"/><glyph d="M202 114q-5 -32 -18 -65.5t-30.5 -65t-38 -59.5t-41.5 -50l-63 26q35 54 58 105t31 109h102z" glyph-name="quotesinglbase" horiz-adv-x="235" unicode="‚"/><glyph d="M294 520h174l-18 -78h-174l-102 -422q-14 -56 -30.5 -95.5t-41 -64.5t-58.5 -36.5t-83 -11.5q-17 0 -38.5 5t-33.5 13l21 77q11 -7 28 -11t37 -4q45 0 68.5 35t37.5 92l131 548q12 50 30.5 89t47 65.5t67.5 40.5t93 14q35 0 66.5 -7t47.5 -15l-37 -74q-8 4 -27.5 10 t-57.5 6q-33 0 -56 -9.5t-39 -26.5t-25.5 -41t-16.5 -54z" glyph-name="florin" horiz-adv-x="368" unicode="ƒ"/><glyph d="M202 114q-5 -32 -18 -65.5t-30.5 -65t-38 -59.5t-41.5 -50l-63 26q35 54 58 105t31 109h102zM384 114q-5 -32 -18 -65.5t-30.5 -65t-38 -59.5t-41.5 -50l-63 26q35 54 58 105t31 109h102z" glyph-name="quotedblbase" horiz-adv-x="417" unicode="„"/><glyph d="M170 -13q-28 0 -44 15t-16 44q0 36 21.5 55.5t49.5 19.5t44.5 -15.5t16.5 -45.5q0 -17 -6.5 -30.5t-16.5 -23t-23 -14.5t-26 -5zM503 -13q-28 0 -44 15t-16 44q0 36 21.5 55.5t49.5 19.5t44.5 -15.5t16.5 -45.5q0 -17 -6.5 -30.5t-16.5 -23t-23 -14.5t-26 -5zM836 -13 q-28 0 -44 15t-16 44q0 36 21.5 55.5t49.5 19.5t44.5 -15.5t16.5 -45.5q0 -17 -6.5 -30.5t-16.5 -23t-23 -14.5t-26 -5z" glyph-name="ellipsis" horiz-adv-x="996" unicode="…"/><glyph d="M374 400l-61 -255q-20 -84 -40.5 -152.5t-45.5 -136.5h-48q7 68 19.5 136.5t32.5 152.5l61 255h-153l19 77h153l52 216h82l-52 -216h153l-19 -77h-153z" glyph-name="dagger" horiz-adv-x="476" unicode="†"/><glyph d="M311 135q-20 -81 -39.5 -147t-44.5 -133h-48q7 67 18.5 133t31.5 147h-153l18 76h153l45 189h-153l19 76h153l52 217h82l-52 -217h153l-19 -76h-153l-45 -189h153l-18 -76h-153z" glyph-name="daggerdbl" horiz-adv-x="476" unicode="‡"/><glyph d="M355 667l-112 -82l-33 45l162 139l106 -148l-44 -41z" glyph-name="circumflex" unicode="ˆ"/><glyph d="M269 0h-95l549 693h95zM158 476q0 42 13.5 83.5t38 74.5t60.5 53.5t81 20.5q60 0 93.5 -34.5t33.5 -101.5q0 -42 -13.5 -83.5t-38 -74.5t-60.5 -53.5t-81 -20.5q-60 0 -93.5 34.5t-33.5 101.5zM404 565q0 34 -11.5 55.5t-46.5 21.5q-29 0 -50.5 -16t-35.5 -39.5 t-21 -51.5t-7 -52q0 -34 11.5 -55.5t46.5 -21.5q29 0 50.5 16t35.5 39.5t21 51.5t7 52zM514 121q0 42 13.5 83.5t38 74.5t60.5 53.5t81 20.5q60 0 93.5 -34.5t33.5 -101.5q0 -42 -13.5 -83.5t-38 -74.5t-60.5 -53.5t-81 -20.5q-60 0 -93.5 34.5t-33.5 101.5zM760 210 q0 34 -11.5 55.5t-46.5 21.5q-29 0 -50.5 -16t-35.5 -39.5t-21 -51.5t-7 -52q0 -34 11.5 -55.5t46.5 -21.5q29 0 50.5 16t35.5 39.5t21 51.5t7 52zM875 121q0 42 13.5 83.5t38 74.5t60.5 53.5t81 20.5q60 0 93.5 -34.5t33.5 -101.5q0 -42 -13.5 -83.5t-38 -74.5t-60.5 -53.5 t-81 -20.5q-60 0 -93.5 34.5t-33.5 101.5zM1121 210q0 34 -11.5 55.5t-46.5 21.5q-29 0 -50.5 -16t-35.5 -39.5t-21 -51.5t-7 -52q0 -34 11.5 -55.5t46.5 -21.5q29 0 50.5 16t35.5 39.5t21 51.5t7 52z" glyph-name="perthousand" horiz-adv-x="1197" unicode="‰"/><glyph d="M246 69q31 0 61.5 6.5t54.5 21.5t39 39.5t15 60.5q0 25 -9.5 43.5t-26 33t-39 27l-49.5 26.5q-23 12 -46.5 26t-42 34.5t-30 48.5t-11.5 67q0 45 17.5 83t51.5 65.5t83.5 42.5t113.5 15q30 0 57 -4.5t49.5 -11.5t39.5 -14.5t25 -13.5l-45 -76q-17 14 -54.5 25.5 t-88.5 11.5q-32 0 -59.5 -6.5t-47.5 -20.5t-32 -35.5t-12 -51.5q0 -26 8 -43.5t22 -31t34.5 -24.5l44.5 -23q30 -15 56.5 -30.5t46.5 -36.5t31.5 -49t11.5 -68q0 -55 -21.5 -96.5t-59 -69t-89 -41.5t-111.5 -14q-40 0 -72.5 5.5t-57 13.5t-41.5 16.5t-26 15.5l45 79 q19 -13 60 -29.5t104 -16.5zM448 843l112 82l33 -45l-162 -139l-106 148l44 41z" glyph-name="Scaron" horiz-adv-x="517" unicode="Š"/><glyph d="M276 92l-62 -29l-118 227l203 215l58 -35l-157 -190z" glyph-name="guilsinglleft" horiz-adv-x="291" unicode="‹"/><glyph d="M430 -7q-77 0 -134.5 19t-95.5 54t-57 84.5t-19 111.5q0 86 27 165.5t84 140t145.5 96.5t211.5 36q26 0 50.5 -2t44.5 -5h372l-19 -81h-298l-50 -209h263l-19 -79h-262l-59 -243h321l-19 -81h-383q-28 -3 -56 -5t-48 -2zM567 618q-79 0 -142.5 -26.5t-107.5 -73.5 t-68 -112.5t-24 -143.5q0 -88 51 -137.5t162 -49.5q24 0 45.5 1.5t35.5 3.5l127 533q-11 2 -29 3.5t-50 1.5z" glyph-name="OE" horiz-adv-x="960" unicode="Œ"/><glyph d="M182 520q5 32 18 65.5t30.5 65t38 59.5t41.5 50l63 -26q-35 -54 -58 -105t-31 -109h-102z" glyph-name="quoteleft" horiz-adv-x="235" unicode="‘"/><glyph d="M355 750q-5 -32 -18 -65.5t-30.5 -65t-38 -59.5t-41.5 -50l-63 26q35 54 58 105t31 109h102z" glyph-name="quoteright" horiz-adv-x="235" unicode="’"/><glyph d="M182 520q5 32 18 65.5t30.5 65t38 59.5t41.5 50l63 -26q-35 -54 -58 -105t-31 -109h-102zM364 520q5 32 18 65.5t30.5 65t38 59.5t41.5 50l63 -26q-35 -54 -58 -105t-31 -109h-102z" glyph-name="quotedblleft" horiz-adv-x="417" unicode="“"/><glyph d="M355 750q-5 -32 -18 -65.5t-30.5 -65t-38 -59.5t-41.5 -50l-63 26q35 54 58 105t31 109h102zM537 750q-5 -32 -18 -65.5t-30.5 -65t-38 -59.5t-41.5 -50l-63 26q35 54 58 105t31 109h102z" glyph-name="quotedblright" horiz-adv-x="417" unicode="”"/><glyph d="M390 353q0 -26 -9 -49t-25.5 -40t-40 -27.5t-53.5 -10.5t-53.5 10.5t-40 27.5t-25.5 40t-9 49q0 25 9 48.5t25.5 40.5t40 27.5t53.5 10.5t53.5 -10.5t40 -27.5t25.5 -40.5t9 -48.5z" glyph-name="bullet" horiz-adv-x="360" unicode="•"/><glyph d="M80 339h500l-19 -79h-500z" glyph-name="endash" horiz-adv-x="496" unicode="–"/><glyph d="M80 339h1000l-19 -79h-1000z" glyph-name="emdash" horiz-adv-x="996" unicode="—"/><glyph d="M365 707q15 -8 27 -13t24 -5q21 0 35 15.5t25 32.5l47 -29q-20 -42 -47.5 -64.5t-72.5 -22.5q-20 0 -35.5 7t-29.5 15q-15 8 -27 13t-24 5q-21 0 -35 -15.5t-25 -32.5l-47 29q20 42 47.5 64.5t72.5 22.5q20 0 35.5 -7t29.5 -15z" glyph-name="tilde" unicode="˜"/><glyph d="M411 693v-61h-105v-272h-69v272h-105v61h279zM791 693q8 -51 14 -130.5t14 -202.5h-70q-2 51 -5 110.5t-7 108.5l-24.5 -44t-26 -50.5l-23.5 -47.5t-17 -35h-49q-6 13 -17 35l-24 47l-26.5 50l-23.5 45q-4 -49 -7 -108.5t-5 -110.5h-69q8 123 14 202.5t14 130.5h66 l20 -41.5l25.5 -52l28.5 -56.5l29 -56l28 56l29 57l26 52l20 41h66z" glyph-name="trademark" horiz-adv-x="759" unicode="™"/><glyph d="M206 65q21 0 42.5 4t38 13t27 24.5t10.5 38.5q0 15 -5 26.5t-16 21.5t-27.5 19.5t-39.5 21.5q-23 11 -42 22t-33.5 26t-22.5 35.5t-8 49.5q0 75 54 120.5t157 45.5q48 0 84.5 -9.5t50.5 -17.5l-35 -76q-14 8 -45 17t-69 9q-19 0 -38 -4t-34.5 -13.5t-25 -25t-9.5 -37.5 q0 -27 21 -44.5t63 -36.5q26 -12 46.5 -24.5t35 -28t22 -36.5t7.5 -50q0 -42 -16 -74t-44.5 -53t-67.5 -31.5t-85 -10.5q-34 0 -61.5 4.5t-48 10.5t-34 12.5t-20.5 10.5l36 76q7 -4 19.5 -10t30 -12t38.5 -10t44 -4zM371 687l112 82l33 -45l-162 -139l-106 148l44 41z" glyph-name="scaron" horiz-adv-x="412" unicode="š"/><glyph d="M151 476l62 29l118 -227l-203 -215l-58 35l157 190z" glyph-name="guilsinglright" horiz-adv-x="291" unicode="›"/><glyph d="M291 66q45 0 80.5 26t60 66.5t37.5 89.5t13 95q0 51 -22 81t-76 30q-45 0 -80.5 -26t-60 -66.5t-37.5 -89.5t-13 -95q0 -51 22 -81t76 -30zM567 273q58 2 106 7.5t83 19t54.5 36.5t19.5 60q0 9 -3.5 19t-12 18.5t-23.5 14t-37 5.5q-35 0 -65.5 -15t-54.5 -39.5t-41 -57 t-26 -68.5zM667 -13q-69 0 -116.5 29t-62.5 81q-32 -45 -85 -77.5t-128 -32.5q-82 0 -128.5 48.5t-46.5 133.5q0 58 16.5 122t52.5 118t93 89t138 35q63 0 103 -30t50 -81q35 48 88 79t125 31q41 0 70.5 -10.5t48 -28.5t27.5 -41.5t9 -48.5q0 -47 -17 -79.5t-45 -54.5 t-65.5 -34t-78 -19t-82 -9.5t-78.5 -4.5q0 -5 -0.5 -9t-0.5 -9q0 -35 10 -57t28.5 -35.5t45 -18.5t59.5 -5q19 0 38.5 4t37 9t31 11t19.5 10l8 -79q-9 -6 -26 -12t-39 -11.5t-47 -9t-52 -3.5z" glyph-name="oe" horiz-adv-x="881" unicode="œ"/><glyph d="M232 0l66 278q-39 105 -72.5 210.5t-61.5 204.5h105q19 -81 42.5 -165t52.5 -162l133.5 162t119.5 165h111l-157 -204.5l-176 -210.5l-66 -278h-97zM376 772q-22 0 -37 14t-15 37q0 30 20 48.5t43 18.5q22 0 37.5 -14.5t15.5 -38.5q0 -29 -20.5 -47t-43.5 -18zM566 772 q-22 0 -37 14t-15 37q0 30 20 48.5t43 18.5q22 0 37.5 -14.5t15.5 -38.5q0 -29 -20.5 -47t-43.5 -18z" glyph-name="Ydieresis" horiz-adv-x="572" unicode="Ÿ"/><glyph glyph-name="uni00A0" horiz-adv-x="231"/><glyph d="M29 -185l45 188q6 24 16.5 62.5t23 79.5t26 80.5t24.5 65.5h57q-8 -68 -18.5 -136.5t-30.5 -152.5l-45 -187h-98zM222 386q-28 0 -44 15t-16 44q0 36 21.5 55.5t49.5 19.5t44.5 -15.5t16.5 -45.5q0 -17 -6.5 -30.5t-16.5 -23t-23 -14.5t-26 -5z" glyph-name="exclamdown" horiz-adv-x="250" unicode="¡"/><glyph d="M458 475q-47 0 -85.5 -21.5t-65.5 -56.5t-42 -79t-15 -90q0 -24 5.5 -45.5t19 -37.5t36 -25.5t57.5 -9.5q18 0 37.5 3t36.5 8t30 10.5t19 10.5l7 -77q-16 -11 -51.5 -21.5t-80.5 -12.5l-33 -140h-81l34 145q-127 28 -127 189q0 54 16 107t48 97.5t79 76.5t109 43l34 144 h81l-33 -139q24 -2 47 -7.5t44 -16.5l-34 -74q-16 9 -37.5 14t-54.5 5z" glyph-name="cent" horiz-adv-x="564" unicode="¢"/><glyph d="M337 373h189l-18 -75h-189l-2 -8q-12 -51 -29.5 -105t-37.5 -105h290l-19 -80h-394l53 141.5t42 141.5l4 15h-93l18 75h93l20 83q18 75 42 123.5t56.5 76.5t73.5 39t92 11q52 0 81 -9.5t52 -22.5l-42 -75q-23 12 -47.5 19t-55.5 7q-29 0 -53 -8t-43.5 -27.5t-35 -51.5 t-27.5 -80z" glyph-name="sterling" horiz-adv-x="564" unicode="£"/><glyph d="M166 347q0 62 28 106l-73 74l58 58l74 -75q47 29 106 29q58 0 105 -29l75 75l58 -58l-74 -74q29 -44 29 -106t-29 -106l74 -74l-58 -58l-75 74q-47 -28 -105 -28q-60 0 -106 28l-74 -74l-58 58l73 73q-28 44 -28 107zM477 347q0 28 -9.5 51t-25.5 39.5t-37.5 25 t-45.5 8.5t-45.5 -8.5t-37.5 -25t-25.5 -39.5t-9.5 -51q0 -29 9.5 -51.5t25.5 -39t37.5 -25t45.5 -8.5t45.5 8.5t37.5 25t25.5 39t9.5 51.5z" glyph-name="currency" horiz-adv-x="564" unicode="¤"/><glyph d="M514 106h-163l-25 -106h-90l25 106h-162l17 71h162l24 102h-161l17 71h136q-71 176 -111 343h96q7 -35 17 -74t21.5 -79t25 -79.5t28.5 -74.5l59 71.5l61.5 78.5l59 80t51.5 77h105q-60 -87 -131 -176.5t-140 -166.5h136l-17 -71h-163l-24 -102h163z" glyph-name="yen" horiz-adv-x="564" unicode="¥"/><glyph d="M189 400l92 383h85l-92 -383h-85zM225 198l-92 -383h-85l92 383h85z" glyph-name="brokenbar" horiz-adv-x="275" unicode="¦"/><glyph d="M249 135q-28 10 -52.5 21t-43 27.5t-29.5 41t-11 60.5q0 54 35.5 98.5t86.5 72.5q-29 29 -29 81q0 41 16 73t45 54t69.5 33.5t88.5 11.5q51 0 87.5 -10.5t59.5 -21.5l-35 -72q-17 8 -45.5 18.5t-73.5 10.5q-53 0 -87 -19.5t-34 -63.5q0 -29 19 -45t64 -32 q28 -11 52.5 -22t42.5 -27t28.5 -40t10.5 -61q0 -57 -35 -99.5t-87 -71.5q14 -13 26.5 -34.5t12.5 -59.5q0 -36 -15 -67t-44.5 -53.5t-72.5 -35t-99 -12.5q-54 0 -96.5 9.5t-71.5 25.5l36 73q19 -11 55 -22t84 -11q66 0 99.5 23t33.5 61q0 19 -6.5 32t-18 22t-28.5 16z M335 191q17 8 33.5 20t29.5 28t21 34.5t8 39.5q0 19 -9 33.5t-24.5 25.5t-37 20t-45.5 18q-13 5 -17 8q-17 -8 -33.5 -20.5t-30 -28t-22 -34t-8.5 -39.5q0 -20 9.5 -34t25 -25t36.5 -20t45 -18q6 -2 10.5 -4t8.5 -4z" glyph-name="section" horiz-adv-x="486" unicode="§"/><glyph d="M249 616q-22 0 -37 14t-15 37q0 30 20 48.5t43 18.5q22 0 37.5 -14.5t15.5 -38.5q0 -29 -20.5 -47t-43.5 -18zM439 616q-22 0 -37 14t-15 37q0 30 20 48.5t43 18.5q22 0 37.5 -14.5t15.5 -38.5q0 -29 -20.5 -47t-43.5 -18z" glyph-name="dieresis" unicode="¨"/><glyph d="M826 347q0 -86 -28 -153t-75 -113.5t-109 -71t-130 -24.5t-130 24.5t-109 71t-75 113.5t-28 153q0 85 28 152.5t75 114t109 71t130 24.5t130 -24.5t109 -71t75 -114t28 -152.5zM753 347q0 66 -20 120.5t-55.5 93.5t-85 60t-108.5 21t-108.5 -21t-85 -60t-55.5 -93.5 t-20 -120.5t20 -120.5t55.5 -93.5t85 -60t108.5 -21t108.5 21t85 60t55.5 93.5t20 120.5zM496 140q-43 0 -78 14t-60.5 40t-39.5 64.5t-14 88.5q0 49 15.5 87t41.5 64.5t61 40.5t74 14q26 0 47.5 -4t37.5 -9.5t26.5 -11t14.5 -8.5l-23 -60q-12 7 -38.5 16.5t-61.5 9.5 q-51 0 -85 -35t-34 -104q0 -63 31 -102t91 -39q39 0 64.5 8.5t39.5 15.5l19 -60q-11 -6 -45.5 -18t-83.5 -12z" glyph-name="copyright" horiz-adv-x="814" unicode="©"/><glyph d="M281 330q-65 0 -94 36.5t-29 95.5q0 46 16 90t48 78.5t80 56t113 21.5q18 0 44.5 -4.5t48.5 -13.5l-55 -203q-9 -32 -9 -62q0 -25 5 -42.5t13 -38.5l-69 -12q-4 5 -8.5 15t-6.5 20q-14 -14 -38.5 -25.5t-58.5 -11.5zM422 644q-2 1 -7.5 2t-13.5 1q-38 0 -69.5 -14.5 t-54 -39.5t-34.5 -57t-12 -67q0 -15 2.5 -29t10 -25t20.5 -17.5t33 -6.5q22 0 41 11t34 27q0 15 3.5 32.5t6.5 30.5z" glyph-name="ordfeminine" horiz-adv-x="415" unicode="ª"/><glyph d="M276 92l-62 -29l-118 227l203 215l58 -35l-157 -190zM484 92l-62 -29l-118 227l203 215l58 -35l-157 -190z" glyph-name="guillemotleft" horiz-adv-x="499" unicode="«"/><glyph d="M600 392l-82 -341h-84l63 262h-365l19 79h449z" glyph-name="logicalnot" horiz-adv-x="564" unicode="¬"/><glyph d="M107 343h242l-20 -87h-242z" glyph-name="uni00AD" horiz-adv-x="293" unicode="­"/><glyph d="M826 347q0 -86 -28 -153t-75 -113.5t-109 -71t-130 -24.5t-130 24.5t-109 71t-75 113.5t-28 153q0 85 28 152.5t75 114t109 71t130 24.5t130 -24.5t109 -71t75 -114t28 -152.5zM753 347q0 66 -20 120.5t-55.5 93.5t-85 60t-108.5 21t-108.5 -21t-85 -60t-55.5 -93.5 t-20 -120.5t20 -120.5t55.5 -93.5t85 -60t108.5 -21t108.5 21t85 60t55.5 93.5t20 120.5zM583 148q-23 45 -51.5 85.5t-49.5 64.5h-67v-150h-71v388q27 6 57 9t55 3q87 0 131.5 -31.5t44.5 -97.5q0 -37 -19.5 -64.5t-55.5 -42.5q10 -12 23 -30l27.5 -39.5t28 -46t24.5 -48.5 h-77zM415 356h38q45 0 75 12.5t30 51.5q0 37 -28.5 51.5t-68.5 14.5q-11 0 -23 -0.5t-23 -1.5v-128z" glyph-name="registered" horiz-adv-x="814" unicode="®"/><glyph d="M218 711h280l-17 -72h-280z" glyph-name="macron" unicode="¯"/><glyph d="M432 637q0 -32 -11.5 -58t-30.5 -44t-44.5 -27.5t-53.5 -9.5t-53.5 9.5t-44.5 27.5t-30.5 44t-11.5 58t11.5 58t30.5 44t44.5 27.5t53.5 9.5t53.5 -9.5t44.5 -27.5t30.5 -44t11.5 -58zM365 637q0 35 -21.5 55.5t-51.5 20.5t-51.5 -20.5t-21.5 -55.5t21.5 -55.5 t51.5 -20.5t51.5 20.5t21.5 55.5z" glyph-name="degree" horiz-adv-x="332" unicode="°"/><glyph d="M472 620l-50 -206h182l-19 -79h-182l-47 -196h-84l46 196h-182l19 79h182l50 206h85zM523 79l-19 -79h-449l19 79h449z" glyph-name="plusminus" horiz-adv-x="564" unicode="±"/><glyph d="M402 378l-15 -63h-263q4 36 16 62.5t30 47.5t41 38t49 33l45.5 29t32.5 25t19.5 25.5t6.5 30.5q0 21 -14.5 31t-34.5 10q-42 0 -66.5 -14.5t-37.5 -25.5l-24 49q20 19 55 36t81 17q57 0 84.5 -26.5t27.5 -71.5q0 -29 -13.5 -53t-34.5 -44t-46 -36.5l-48 -30.5l-46 -30 t-34 -39h189z" glyph-name="twosuperior" horiz-adv-x="359" unicode="²"/><glyph d="M232 368q21 0 40.5 3t34.5 11.5t24.5 22.5t9.5 35q0 28 -26 40t-69 12h-21l14 56h25q14 0 31.5 3t32.5 10t25.5 18t10.5 28q0 23 -13.5 32t-42.5 9q-27 0 -52.5 -8t-41.5 -16l-14 52q9 6 23.5 11.5t32 10.5t35.5 8t34 3q59 0 83.5 -24t24.5 -58q0 -40 -20.5 -64 t-56.5 -41q24 -10 39.5 -29t15.5 -51q0 -66 -50 -100.5t-131 -34.5q-40 0 -68.5 8t-48.5 19l27 56q17 -8 41.5 -15t50.5 -7z" glyph-name="threesuperior" horiz-adv-x="359" unicode="³"/><glyph d="M471 708l-169 -128l-40 49l158 151z" glyph-name="acute" unicode="´"/><glyph d="M427 115q0 26 2.5 51t9.5 53l72 301h93l-74 -309l-9 -43t-4 -37q0 -26 12.5 -43t44.5 -22l-21 -75q-42 1 -67 14.5t-40 38.5q-36 -28 -80 -41t-93 -13q-31 0 -58 12.5t-41 35.5q-4 -26 -10.5 -57.5t-14.5 -62.5l-25 -103h-92l169 705h93l-59 -246q-5 -23 -13 -54t-8 -62 q0 -18 3.5 -34.5t13.5 -29t26 -20t42 -7.5q38 0 69.5 12.5t58.5 35.5z" glyph-name="mu" horiz-adv-x="572" unicode="µ"/><glyph d="M538 623h-17.5t-15.5 -1l-194 -807h-78l107 447q-101 7 -144 49t-43 113q0 75 34 127.5t88.5 85.5t122.5 48t136 15q42 0 89 -3.5t85 -13.5l-208 -868h-78l193 803q-25 5 -77 5z" glyph-name="paragraph" horiz-adv-x="650" unicode="¶"/><glyph d="M185 227q-28 0 -44 15t-16 44q0 36 21.5 55.5t49.5 19.5t44.5 -15.5t16.5 -45.5q0 -17 -6.5 -30.5t-16.5 -23t-23 -14.5t-26 -5z" glyph-name="periodcentered" horiz-adv-x="246" unicode="·"/><glyph d="M189 -38q20 -11 30 -24t10 -36q0 -45 -31 -68t-85 -23q-29 0 -48.5 4.5t-32.5 10.5l23 55q8 -4 21 -7.5t32 -3.5q17 0 28 5.5t11 19.5q0 12 -8 18t-27 15l-6 3q6 10 15 23.5l18 26.5t17 23.5l12 15.5h64l-21.5 -28.5t-21.5 -29.5z" glyph-name="cedilla" unicode="¸"/><glyph d="M199 621q46 14 86.5 34.5t71.5 45.5h50l-93 -386h-71l70 290q-26 -14 -55.5 -24.5t-49.5 -16.5z" glyph-name="onesuperior" horiz-adv-x="359" unicode="¹"/><glyph d="M386 709q60 0 94.5 -33.5t34.5 -94.5q0 -40 -12 -84.5t-38.5 -82t-69 -62t-103.5 -24.5q-60 0 -94.5 33.5t-34.5 94.5q0 40 12 84.5t38.5 82t69 62t103.5 24.5zM305 390q32 0 57 17.5t42.5 44.5t26.5 60t9 63q0 32 -16 52t-51 20q-32 0 -57 -17.5t-42.5 -44.5t-26.5 -60 t-9 -63q0 -32 16 -52t51 -20z" glyph-name="ordmasculine" horiz-adv-x="446" unicode="º"/><glyph d="M151 476l62 29l118 -227l-203 -215l-58 35l157 190zM359 476l62 29l118 -227l-203 -215l-58 35l157 190z" glyph-name="guillemotright" horiz-adv-x="499" unicode="»"/><glyph d="M199 621q46 14 86.5 34.5t71.5 45.5h50l-93 -386h-71l70 290q-26 -14 -55.5 -24.5t-49.5 -16.5zM291 0h-95l549 693h95zM885 151l-14 -56h-50l-22 -93h-68l22 93h-185l11 46q16 27 43.5 59.5t61.5 66.5t71 65.5t72 55.5h65l-57 -237h50zM767 151l38 158l-40.5 -35 t-42.5 -40t-40 -42t-33 -41h118z" glyph-name="onequarter" horiz-adv-x="874" unicode="¼"/><glyph d="M199 621q46 14 86.5 34.5t71.5 45.5h50l-93 -386h-71l70 290q-26 -14 -55.5 -24.5t-49.5 -16.5zM270 0h-95l549 693h95zM841 65l-15 -63h-263q4 36 16 62.5t30 47.5t41 38t49 33l45.5 29t32.5 25t19.5 25.5t6.5 30.5q0 21 -14.5 31t-34.5 10q-42 0 -66.5 -14.5 t-37.5 -25.5l-24 49q20 19 55 36t81 17q57 0 84.5 -26.5t27.5 -71.5q0 -29 -13.5 -53t-34.5 -44t-46 -36.5l-48 -30.5l-46 -30t-34 -39h189z" glyph-name="onehalf" horiz-adv-x="874" unicode="½"/><glyph d="M232 368q21 0 40.5 3t34.5 11.5t24.5 22.5t9.5 35q0 28 -26 40t-69 12h-21l14 56h25q14 0 31.5 3t32.5 10t25.5 18t10.5 28q0 23 -13.5 32t-42.5 9q-27 0 -52.5 -8t-41.5 -16l-14 52q9 6 23.5 11.5t32 10.5t35.5 8t34 3q59 0 83.5 -24t24.5 -58q0 -40 -20.5 -64 t-56.5 -41q24 -10 39.5 -29t15.5 -51q0 -66 -50 -100.5t-131 -34.5q-40 0 -68.5 8t-48.5 19l27 56q17 -8 41.5 -15t50.5 -7zM302 0h-95l549 693h95zM885 151l-14 -56h-50l-22 -93h-68l22 93h-185l11 46q16 27 43.5 59.5t61.5 66.5t71 65.5t72 55.5h65l-57 -237h50zM767 151 l38 158l-40.5 -35t-42.5 -40t-40 -42t-33 -41h118z" glyph-name="threequarters" horiz-adv-x="874" unicode="¾"/><glyph d="M207 -188q-47 0 -79 11t-52 29.5t-28.5 43.5t-8.5 52q0 33 9.5 59.5t26.5 49t40 43t50 41.5q33 26 63 57t41 75q2 6 2.5 11t0.5 7h81q-1 -12 -2 -21.5t-3 -19.5q-12 -51 -46.5 -87.5t-72.5 -65.5l-35 -28.5t-31 -31t-22.5 -35.5t-8.5 -42q0 -11 3 -24t12.5 -23.5 t26.5 -17.5t45 -7q48 0 80 11t50 20l10 -72q-24 -14 -65.5 -24.5t-86.5 -10.5zM323 386q-28 0 -44 15t-16 44q0 36 21.5 55.5t49.5 19.5t44.5 -15.5t16.5 -45.5q0 -17 -6.5 -30.5t-16.5 -23t-23 -14.5t-26 -5z" glyph-name="questiondown" horiz-adv-x="384" unicode="¿"/><glyph d="M214 178l-98 -178h-106q112 202 218.5 372l210.5 321h95q15 -75 27.5 -151.5t24.5 -160.5t23 -178l23 -203h-98q-5 45 -9 90.5t-9 87.5h-302zM507 256q-8 81 -18.5 161t-24.5 165l-87 -131.5t-118 -194.5h248zM458 935l127 -160l-49 -43l-146 146z" glyph-name="Agrave" horiz-adv-x="636" unicode="À"/><glyph d="M214 178l-98 -178h-106q112 202 218.5 372l210.5 321h95q15 -75 27.5 -151.5t24.5 -160.5t23 -178l23 -203h-98q-5 45 -9 90.5t-9 87.5h-302zM507 256q-8 81 -18.5 161t-24.5 165l-87 -131.5t-118 -194.5h248zM630 864l-169 -128l-40 49l158 151z" glyph-name="Aacute" horiz-adv-x="636" unicode="Á"/><glyph d="M214 178l-98 -178h-106q112 202 218.5 372l210.5 321h95q15 -75 27.5 -151.5t24.5 -160.5t23 -178l23 -203h-98q-5 45 -9 90.5t-9 87.5h-302zM507 256q-8 81 -18.5 161t-24.5 165l-87 -131.5t-118 -194.5h248zM515 823l-112 -82l-33 45l162 139l106 -148l-44 -41z" glyph-name="Acircumflex" horiz-adv-x="636" unicode="Â"/><glyph d="M214 178l-98 -178h-106q112 202 218.5 372l210.5 321h95q15 -75 27.5 -151.5t24.5 -160.5t23 -178l23 -203h-98q-5 45 -9 90.5t-9 87.5h-302zM507 256q-8 81 -18.5 161t-24.5 165l-87 -131.5t-118 -194.5h248zM530 863q15 -8 27 -13t24 -5q21 0 35 15.5t25 32.5l47 -29 q-20 -42 -47.5 -64.5t-72.5 -22.5q-20 0 -35.5 7t-29.5 15q-15 8 -27 13t-24 5q-21 0 -35 -15.5t-25 -32.5l-47 29q20 42 47.5 64.5t72.5 22.5q20 0 35.5 -7t29.5 -15z" glyph-name="Atilde" horiz-adv-x="636" unicode="Ã"/><glyph d="M214 178l-98 -178h-106q112 202 218.5 372l210.5 321h95q15 -75 27.5 -151.5t24.5 -160.5t23 -178l23 -203h-98q-5 45 -9 90.5t-9 87.5h-302zM507 256q-8 81 -18.5 161t-24.5 165l-87 -131.5t-118 -194.5h248zM416 772q-22 0 -37 14t-15 37q0 30 20 48.5t43 18.5 q22 0 37.5 -14.5t15.5 -38.5q0 -29 -20.5 -47t-43.5 -18zM606 772q-22 0 -37 14t-15 37q0 30 20 48.5t43 18.5q22 0 37.5 -14.5t15.5 -38.5q0 -29 -20.5 -47t-43.5 -18z" glyph-name="Adieresis" horiz-adv-x="636" unicode="Ä"/><glyph d="M534 0q-5 45 -9 90.5t-9 87.5h-302l-98 -178h-106q106 191 207 354l200 308q-14 13 -22.5 32t-8.5 43t8.5 42.5t22.5 32t32.5 20.5t39.5 7t39.5 -7t32.5 -20.5t22.5 -32t8.5 -42.5q0 -31 -13.5 -53.5t-35.5 -35.5q13 -70 24 -141.5t21.5 -150.5t21 -166.5l22.5 -189.5 h-98zM542 737q0 26 -15.5 40.5t-37.5 14.5t-37.5 -14.5t-15.5 -40.5t15.5 -40.5t37.5 -14.5t37.5 14.5t15.5 40.5zM464 582l-87 -131.5t-118 -194.5h248q-8 81 -18.5 161t-24.5 165z" glyph-name="Aring" horiz-adv-x="636" unicode="Å"/><glyph d="M510 178h-265l-66.5 -89l-64.5 -89h-111l153.5 203.5l146 180.5l141 161.5l138.5 147.5h445l-19 -81h-298l-50 -209h263l-19 -79h-262l-59 -243h321l-19 -81h-417zM615 613l-156 -171.5t-153 -185.5h223z" glyph-name="AE" horiz-adv-x="928" unicode="Æ"/><glyph d="M382 -15q-5 -5 -8.5 -11t-7.5 -12q20 -11 30 -24t10 -36q0 -45 -31 -68t-85 -23q-29 0 -48.5 4.5t-32.5 10.5l23 55q8 -4 21 -7.5t32 -3.5q17 0 28 5.5t11 19.5q0 12 -8 18t-27 15l-6 3q7 12 18 29t22 31q-100 17 -149.5 85.5t-49.5 177.5q0 90 28.5 172t81 145 t126.5 100.5t165 37.5q78 0 124.5 -16t66.5 -30l-40 -80q-23 15 -62.5 28.5t-93.5 13.5q-69 0 -124 -32.5t-93 -84t-58 -116t-20 -127.5q0 -195 169 -195q36 0 64.5 5t50.5 11.5t39 14.5l30 14l12 -84q-12 -7 -31.5 -15t-45.5 -15t-58 -11.5t-68 -4.5h-5z" glyph-name="Ccedilla" horiz-adv-x="600" unicode="Ç"/><glyph d="M81 0l166 693h409l-19 -81h-313l-50 -209h278l-19 -79h-277l-59 -243h336l-19 -81h-433zM426 935l127 -160l-49 -43l-146 146z" glyph-name="Egrave" horiz-adv-x="557" unicode="È"/><glyph d="M81 0l166 693h409l-19 -81h-313l-50 -209h278l-19 -79h-277l-59 -243h336l-19 -81h-433zM598 864l-169 -128l-40 49l158 151z" glyph-name="Eacute" horiz-adv-x="557" unicode="É"/><glyph d="M81 0l166 693h409l-19 -81h-313l-50 -209h278l-19 -79h-277l-59 -243h336l-19 -81h-433zM484 823l-112 -82l-33 45l162 139l106 -148l-44 -41z" glyph-name="Ecircumflex" horiz-adv-x="557" unicode="Ê"/><glyph d="M81 0l166 693h409l-19 -81h-313l-50 -209h278l-19 -79h-277l-59 -243h336l-19 -81h-433zM384 772q-22 0 -37 14t-15 37q0 30 20 48.5t43 18.5q22 0 37.5 -14.5t15.5 -38.5q0 -29 -20.5 -47t-43.5 -18zM574 772q-22 0 -37 14t-15 37q0 30 20 48.5t43 18.5q22 0 37.5 -14.5 t15.5 -38.5q0 -29 -20.5 -47t-43.5 -18z" glyph-name="Edieresis" horiz-adv-x="557" unicode="Ë"/><glyph d="M247 693h97l-166 -693h-97zM272 935l127 -160l-49 -43l-146 146z" glyph-name="Igrave" horiz-adv-x="263" unicode="Ì"/><glyph d="M247 693h97l-166 -693h-97zM444 864l-169 -128l-40 49l158 151z" glyph-name="Iacute" horiz-adv-x="263" unicode="Í"/><glyph d="M247 693h97l-166 -693h-97zM329 823l-112 -82l-33 45l162 139l106 -148l-44 -41z" glyph-name="Icircumflex" horiz-adv-x="263" unicode="Î"/><glyph d="M247 693h97l-166 -693h-97zM230 772q-22 0 -37 14t-15 37q0 30 20 48.5t43 18.5q22 0 37.5 -14.5t15.5 -38.5q0 -29 -20.5 -47t-43.5 -18zM420 772q-22 0 -37 14t-15 37q0 30 20 48.5t43 18.5q22 0 37.5 -14.5t15.5 -38.5q0 -29 -20.5 -47t-43.5 -18z" glyph-name="Idieresis" horiz-adv-x="263" unicode="Ï"/><glyph d="M442 700q154 0 230 -72.5t76 -195.5q0 -86 -27 -165.5t-84 -140.5t-145.5 -97t-211.5 -36q-42 0 -91 4t-86 14l75 313h-81l18 75h81l68 285q42 10 89 13t89 3zM434 618q-75 0 -90 -4l-52 -215h130l-18 -75h-130l-58 -244q8 -2 27 -3.5t62 -1.5q79 0 142.5 26.5t107.5 74 t68 113t24 143.5q0 88 -51 137t-162 49z" glyph-name="Eth" horiz-adv-x="710" unicode="Ð"/><glyph d="M528 0l-43 132t-54.5 150t-60.5 147.5t-61 124.5l-133 -554h-95l166 693h83q32 -54 65.5 -122.5t64 -140.5t56.5 -141t43 -124l124 528h95l-165 -693h-85zM560 863q15 -8 27 -13t24 -5q21 0 35 15.5t25 32.5l47 -29q-20 -42 -47.5 -64.5t-72.5 -22.5q-20 0 -35.5 7 t-29.5 15q-15 8 -27 13t-24 5q-21 0 -35 -15.5t-25 -32.5l-47 29q20 42 47.5 64.5t72.5 22.5q20 0 35.5 -7t29.5 -15z" glyph-name="Ntilde" horiz-adv-x="698" unicode="Ñ"/><glyph d="M525 709q55 0 101.5 -16.5t80 -49.5t52 -82.5t18.5 -115.5q0 -83 -25.5 -165t-75.5 -147.5t-125 -106.5t-175 -41q-56 0 -102 16.5t-79.5 49.5t-52 82.5t-18.5 115.5q0 82 25 164.5t75.5 148t125.5 106.5t175 41zM386 69q67 0 121 32.5t91.5 84.5t57.5 117t20 130 q0 89 -38.5 140.5t-122.5 51.5q-68 0 -121.5 -32.5t-91 -84.5t-57.5 -117t-20 -130q0 -89 38.5 -140.5t122.5 -51.5zM508 935l127 -160l-49 -43l-146 146z" glyph-name="Ograve" horiz-adv-x="739" unicode="Ò"/><glyph d="M525 709q55 0 101.5 -16.5t80 -49.5t52 -82.5t18.5 -115.5q0 -83 -25.5 -165t-75.5 -147.5t-125 -106.5t-175 -41q-56 0 -102 16.5t-79.5 49.5t-52 82.5t-18.5 115.5q0 82 25 164.5t75.5 148t125.5 106.5t175 41zM386 69q67 0 121 32.5t91.5 84.5t57.5 117t20 130 q0 89 -38.5 140.5t-122.5 51.5q-68 0 -121.5 -32.5t-91 -84.5t-57.5 -117t-20 -130q0 -89 38.5 -140.5t122.5 -51.5zM680 864l-169 -128l-40 49l158 151z" glyph-name="Oacute" horiz-adv-x="739" unicode="Ó"/><glyph d="M525 709q55 0 101.5 -16.5t80 -49.5t52 -82.5t18.5 -115.5q0 -83 -25.5 -165t-75.5 -147.5t-125 -106.5t-175 -41q-56 0 -102 16.5t-79.5 49.5t-52 82.5t-18.5 115.5q0 82 25 164.5t75.5 148t125.5 106.5t175 41zM386 69q67 0 121 32.5t91.5 84.5t57.5 117t20 130 q0 89 -38.5 140.5t-122.5 51.5q-68 0 -121.5 -32.5t-91 -84.5t-57.5 -117t-20 -130q0 -89 38.5 -140.5t122.5 -51.5zM565 823l-112 -82l-33 45l162 139l106 -148l-44 -41z" glyph-name="Ocircumflex" horiz-adv-x="739" unicode="Ô"/><glyph d="M525 709q55 0 101.5 -16.5t80 -49.5t52 -82.5t18.5 -115.5q0 -83 -25.5 -165t-75.5 -147.5t-125 -106.5t-175 -41q-56 0 -102 16.5t-79.5 49.5t-52 82.5t-18.5 115.5q0 82 25 164.5t75.5 148t125.5 106.5t175 41zM386 69q67 0 121 32.5t91.5 84.5t57.5 117t20 130 q0 89 -38.5 140.5t-122.5 51.5q-68 0 -121.5 -32.5t-91 -84.5t-57.5 -117t-20 -130q0 -89 38.5 -140.5t122.5 -51.5zM580 863q15 -8 27 -13t24 -5q21 0 35 15.5t25 32.5l47 -29q-20 -42 -47.5 -64.5t-72.5 -22.5q-20 0 -35.5 7t-29.5 15q-15 8 -27 13t-24 5q-21 0 -35 -15.5 t-25 -32.5l-47 29q20 42 47.5 64.5t72.5 22.5q20 0 35.5 -7t29.5 -15z" glyph-name="Otilde" horiz-adv-x="739" unicode="Õ"/><glyph d="M525 709q55 0 101.5 -16.5t80 -49.5t52 -82.5t18.5 -115.5q0 -83 -25.5 -165t-75.5 -147.5t-125 -106.5t-175 -41q-56 0 -102 16.5t-79.5 49.5t-52 82.5t-18.5 115.5q0 82 25 164.5t75.5 148t125.5 106.5t175 41zM386 69q67 0 121 32.5t91.5 84.5t57.5 117t20 130 q0 89 -38.5 140.5t-122.5 51.5q-68 0 -121.5 -32.5t-91 -84.5t-57.5 -117t-20 -130q0 -89 38.5 -140.5t122.5 -51.5zM466 772q-22 0 -37 14t-15 37q0 30 20 48.5t43 18.5q22 0 37.5 -14.5t15.5 -38.5q0 -29 -20.5 -47t-43.5 -18zM656 772q-22 0 -37 14t-15 37q0 30 20 48.5 t43 18.5q22 0 37.5 -14.5t15.5 -38.5q0 -29 -20.5 -47t-43.5 -18z" glyph-name="Odieresis" horiz-adv-x="739" unicode="Ö"/><glyph d="M343 242l-180 -147l-47 60l182 147l-109 144l63 51l109 -144l180 147l47 -60l-182 -147l109 -144l-63 -51z" glyph-name="multiply" horiz-adv-x="564" unicode="×"/><glyph d="M525 709q92 0 156 -46l59 67l56 -43l-65 -74q22 -32 34 -73t12 -95q0 -83 -25.5 -165t-75.5 -147.5t-125 -106.5t-175 -41q-94 0 -157 45l-58 -66l-57 43l65 74q-45 64 -45 168q0 82 25 164.5t75.5 148t125.5 106.5t175 41zM386 69q67 0 121 32.5t91.5 84.5t57.5 117 t20 130q0 29 -3 54t-11 47l-381 -433q19 -17 45.5 -24.5t59.5 -7.5zM225 261q0 -29 3 -55t11 -46l380 433q-38 32 -104 32q-68 0 -121.5 -32.5t-91 -84.5t-57.5 -117t-20 -130z" glyph-name="Oslash" horiz-adv-x="739" unicode="Ø"/><glyph d="M334 -15q-52 0 -90 15.5t-63 42t-37 63t-12 78.5q0 22 4 49t9 50l98 410h97l-100 -416q-5 -19 -8 -42t-3 -43q0 -26 6 -48t20.5 -38.5t37.5 -26t56 -9.5q85 0 132 47.5t71 151.5l102 424h97l-104 -435q-14 -57 -32.5 -107t-52.5 -86.5t-88.5 -58t-139.5 -21.5zM467 935 l127 -160l-49 -43l-146 146z" glyph-name="Ugrave" horiz-adv-x="666" unicode="Ù"/><glyph d="M334 -15q-52 0 -90 15.5t-63 42t-37 63t-12 78.5q0 22 4 49t9 50l98 410h97l-100 -416q-5 -19 -8 -42t-3 -43q0 -26 6 -48t20.5 -38.5t37.5 -26t56 -9.5q85 0 132 47.5t71 151.5l102 424h97l-104 -435q-14 -57 -32.5 -107t-52.5 -86.5t-88.5 -58t-139.5 -21.5zM639 864 l-169 -128l-40 49l158 151z" glyph-name="Uacute" horiz-adv-x="666" unicode="Ú"/><glyph d="M334 -15q-52 0 -90 15.5t-63 42t-37 63t-12 78.5q0 22 4 49t9 50l98 410h97l-100 -416q-5 -19 -8 -42t-3 -43q0 -26 6 -48t20.5 -38.5t37.5 -26t56 -9.5q85 0 132 47.5t71 151.5l102 424h97l-104 -435q-14 -57 -32.5 -107t-52.5 -86.5t-88.5 -58t-139.5 -21.5zM524 823 l-112 -82l-33 45l162 139l106 -148l-44 -41z" glyph-name="Ucircumflex" horiz-adv-x="666" unicode="Û"/><glyph d="M334 -15q-52 0 -90 15.5t-63 42t-37 63t-12 78.5q0 22 4 49t9 50l98 410h97l-100 -416q-5 -19 -8 -42t-3 -43q0 -26 6 -48t20.5 -38.5t37.5 -26t56 -9.5q85 0 132 47.5t71 151.5l102 424h97l-104 -435q-14 -57 -32.5 -107t-52.5 -86.5t-88.5 -58t-139.5 -21.5zM425 772 q-22 0 -37 14t-15 37q0 30 20 48.5t43 18.5q22 0 37.5 -14.5t15.5 -38.5q0 -29 -20.5 -47t-43.5 -18zM615 772q-22 0 -37 14t-15 37q0 30 20 48.5t43 18.5q22 0 37.5 -14.5t15.5 -38.5q0 -29 -20.5 -47t-43.5 -18z" glyph-name="Udieresis" horiz-adv-x="666" unicode="Ü"/><glyph d="M232 0l66 278q-39 105 -72.5 210.5t-61.5 204.5h105q19 -81 42.5 -165t52.5 -162l133.5 162t119.5 165h111l-157 -204.5l-176 -210.5l-66 -278h-97zM590 864l-169 -128l-40 49l158 151z" glyph-name="Yacute" horiz-adv-x="572" unicode="Ý"/><glyph d="M344 693l-27 -114q19 2 39.5 2.5t39.5 0.5q121 0 181.5 -45t60.5 -133q0 -68 -25.5 -117.5t-72.5 -81.5t-113 -47.5t-147 -15.5h-69l-34 -142h-97l167 693h97zM382 500q-37 0 -58 -1.5t-28 -2.5l-65 -273h62q42 0 86 7.5t79 26.5t57.5 52.5t22.5 86.5q0 57 -42 80.5 t-114 23.5z" glyph-name="Thorn" horiz-adv-x="594" unicode="Þ"/><glyph d="M194 112l-21 -91t-21.5 -75t-33 -67.5t-55.5 -67.5l-82 12q30 39 47 66t28.5 55t20 64.5l22.5 94.5l108 451q28 118 93 170t171 52q40 0 70 -11t50 -29.5t30 -43t10 -51.5q0 -29 -6.5 -50.5t-20 -40.5t-33 -37.5l-45.5 -42.5l-29.5 -26t-20.5 -21t-12 -21.5t-4 -26.5 q0 -21 16.5 -35t45.5 -34q19 -13 35 -26t28 -29t19 -36t7 -47q0 -45 -16.5 -79t-45 -56.5t-68.5 -33.5t-86 -11q-57 0 -95.5 13t-48.5 21l35 75q11 -7 40.5 -19t75.5 -12q51 0 83.5 24t32.5 72q0 30 -16.5 50.5t-58.5 46.5q-26 16 -41 29.5t-23 26.5t-10 26t-2 28 q0 43 27.5 76t65.5 65l32.5 28t25 26.5t16 29.5t5.5 36q0 30 -20 48t-60 18q-125 0 -159 -144z" glyph-name="germandbls" horiz-adv-x="600" unicode="ß"/><glyph d="M432 -6q-5 11 -10 24.5t-8 28.5q-22 -20 -59 -40t-91 -20q-44 0 -75.5 14t-51.5 39t-29.5 59t-9.5 75q0 67 22.5 131t67.5 114t113 81t159 31q27 0 63 -6t62 -20l-77 -314q-5 -23 -8.5 -44t-3.5 -44t4 -46.5t14 -50.5zM283 66q42 0 72 18t52 42q1 17 3.5 35.5t6.5 37.5 l60 248q-5 2 -16.5 3t-20.5 1q-57 0 -103 -22t-78.5 -58.5t-50 -85t-17.5 -101.5q0 -21 4 -42.5t14.5 -38t28 -27t45.5 -10.5zM383 779l127 -160l-49 -43l-146 146z" glyph-name="agrave" horiz-adv-x="544" unicode="à"/><glyph d="M432 -6q-5 11 -10 24.5t-8 28.5q-22 -20 -59 -40t-91 -20q-44 0 -75.5 14t-51.5 39t-29.5 59t-9.5 75q0 67 22.5 131t67.5 114t113 81t159 31q27 0 63 -6t62 -20l-77 -314q-5 -23 -8.5 -44t-3.5 -44t4 -46.5t14 -50.5zM283 66q42 0 72 18t52 42q1 17 3.5 35.5t6.5 37.5 l60 248q-5 2 -16.5 3t-20.5 1q-57 0 -103 -22t-78.5 -58.5t-50 -85t-17.5 -101.5q0 -21 4 -42.5t14.5 -38t28 -27t45.5 -10.5zM554 708l-169 -128l-40 49l158 151z" glyph-name="aacute" horiz-adv-x="544" unicode="á"/><glyph d="M432 -6q-5 11 -10 24.5t-8 28.5q-22 -20 -59 -40t-91 -20q-44 0 -75.5 14t-51.5 39t-29.5 59t-9.5 75q0 67 22.5 131t67.5 114t113 81t159 31q27 0 63 -6t62 -20l-77 -314q-5 -23 -8.5 -44t-3.5 -44t4 -46.5t14 -50.5zM283 66q42 0 72 18t52 42q1 17 3.5 35.5t6.5 37.5 l60 248q-5 2 -16.5 3t-20.5 1q-57 0 -103 -22t-78.5 -58.5t-50 -85t-17.5 -101.5q0 -21 4 -42.5t14.5 -38t28 -27t45.5 -10.5zM440 667l-112 -82l-33 45l162 139l106 -148l-44 -41z" glyph-name="acircumflex" horiz-adv-x="544" unicode="â"/><glyph d="M432 -6q-5 11 -10 24.5t-8 28.5q-22 -20 -59 -40t-91 -20q-44 0 -75.5 14t-51.5 39t-29.5 59t-9.5 75q0 67 22.5 131t67.5 114t113 81t159 31q27 0 63 -6t62 -20l-77 -314q-5 -23 -8.5 -44t-3.5 -44t4 -46.5t14 -50.5zM283 66q42 0 72 18t52 42q1 17 3.5 35.5t6.5 37.5 l60 248q-5 2 -16.5 3t-20.5 1q-57 0 -103 -22t-78.5 -58.5t-50 -85t-17.5 -101.5q0 -21 4 -42.5t14.5 -38t28 -27t45.5 -10.5zM455 707q15 -8 27 -13t24 -5q21 0 35 15.5t25 32.5l47 -29q-20 -42 -47.5 -64.5t-72.5 -22.5q-20 0 -35.5 7t-29.5 15q-15 8 -27 13t-24 5 q-21 0 -35 -15.5t-25 -32.5l-47 29q20 42 47.5 64.5t72.5 22.5q20 0 35.5 -7t29.5 -15z" glyph-name="atilde" horiz-adv-x="544" unicode="ã"/><glyph d="M432 -6q-5 11 -10 24.5t-8 28.5q-22 -20 -59 -40t-91 -20q-44 0 -75.5 14t-51.5 39t-29.5 59t-9.5 75q0 67 22.5 131t67.5 114t113 81t159 31q27 0 63 -6t62 -20l-77 -314q-5 -23 -8.5 -44t-3.5 -44t4 -46.5t14 -50.5zM283 66q42 0 72 18t52 42q1 17 3.5 35.5t6.5 37.5 l60 248q-5 2 -16.5 3t-20.5 1q-57 0 -103 -22t-78.5 -58.5t-50 -85t-17.5 -101.5q0 -21 4 -42.5t14.5 -38t28 -27t45.5 -10.5zM340 616q-22 0 -37 14t-15 37q0 30 20 48.5t43 18.5q22 0 37.5 -14.5t15.5 -38.5q0 -29 -20.5 -47t-43.5 -18zM530 616q-22 0 -37 14t-15 37 q0 30 20 48.5t43 18.5q22 0 37.5 -14.5t15.5 -38.5q0 -29 -20.5 -47t-43.5 -18z" glyph-name="adieresis" horiz-adv-x="544" unicode="ä"/><glyph d="M432 -6q-5 11 -10 24.5t-8 28.5q-22 -20 -59 -40t-91 -20q-44 0 -75.5 14t-51.5 39t-29.5 59t-9.5 75q0 67 22.5 131t67.5 114t113 81t159 31q27 0 63 -6t62 -20l-77 -314q-5 -23 -8.5 -44t-3.5 -44t4 -46.5t14 -50.5zM283 66q42 0 72 18t52 42q1 17 3.5 35.5t6.5 37.5 l60 248q-5 2 -16.5 3t-20.5 1q-57 0 -103 -22t-78.5 -58.5t-50 -85t-17.5 -101.5q0 -21 4 -42.5t14.5 -38t28 -27t45.5 -10.5zM542 677q0 -24 -8.5 -42.5t-22.5 -32t-32.5 -20.5t-39.5 -7t-39.5 7t-32.5 20.5t-22.5 32t-8.5 42.5t8.5 42.5t22.5 32t32.5 20.5t39.5 7t39.5 -7 t32.5 -20.5t22.5 -32t8.5 -42.5zM492 677q0 26 -15.5 40.5t-37.5 14.5t-37.5 -14.5t-15.5 -40.5t15.5 -40.5t37.5 -14.5t37.5 14.5t15.5 40.5z" glyph-name="aring" horiz-adv-x="544" unicode="å"/><glyph d="M786 23q-26 -14 -69.5 -25t-91.5 -11q-27 0 -53.5 5t-49.5 16.5t-41.5 30t-29.5 46.5q-35 -46 -89 -72t-117 -26q-29 0 -56 7.5t-47 23t-32 39.5t-12 57q0 70 34.5 109.5t87 58.5t114.5 24.5t118 8.5q1 8 1.5 15.5t0.5 15.5q0 54 -30 78.5t-96 24.5q-20 0 -40 -4t-38 -9 t-32.5 -11t-21.5 -10l-8 79q23 12 66.5 24t91.5 12q26 0 52 -5t49.5 -16t43 -30.5t32.5 -47.5q19 25 43 43.5t51 31t55 18.5t55 6q30 0 57.5 -7t47.5 -22.5t32 -39.5t12 -58q0 -47 -16 -79.5t-43 -54.5t-62.5 -34t-75 -19t-80 -9.5t-77.5 -4.5q-1 -8 -1.5 -15.5t-0.5 -14.5 q0 -57 30 -80.5t96 -23.5q19 0 39.5 3.5t39 9t33 11t20.5 10.5zM441 244q-71 -2 -119 -10t-77.5 -23t-42.5 -36t-13 -48q0 -32 21 -47.5t55 -15.5q66 0 112.5 46.5t63.5 133.5zM533 273q70 1 118.5 9.5t78 23.5t42.5 36t13 48q0 32 -21 47.5t-55 15.5q-66 0 -112.5 -46.5 t-63.5 -133.5z" glyph-name="ae" horiz-adv-x="836" unicode="æ"/><glyph d="M100 186q0 68 20.5 131t60.5 111t98 76.5t133 28.5q33 0 63 -4.5t57 -17.5l-35 -78q-16 9 -37.5 14t-55.5 5q-49 0 -88 -21.5t-66.5 -57t-42 -82t-14.5 -96.5q0 -26 5.5 -49t19.5 -40.5t37.5 -27.5t59.5 -10q18 0 38 3.5t37 8.5t30.5 10.5t19.5 10.5l8 -79 q-19 -12 -59 -23t-89 -12l-9 -13l-8 -12q20 -11 30 -24t10 -36q0 -45 -31 -68t-85 -23q-29 0 -48.5 4.5t-32.5 10.5l23 55q8 -4 21 -7.5t32 -3.5q17 0 28 5.5t11 19.5q0 12 -8 18t-27 15l-6 3q7 13 19 30.5l22 31.5q-69 16 -105 67t-36 126z" glyph-name="ccedilla" horiz-adv-x="451" unicode="ç"/><glyph d="M204 273q58 2 106 7.5t83 19t54.5 36.5t19.5 60q0 9 -3.5 19t-12 18.5t-23.5 14t-37 5.5q-35 0 -65.5 -15t-54.5 -39.5t-41 -57t-26 -68.5zM299 -13q-51 0 -88 14.5t-62 40t-37 59.5t-12 72q0 70 21 135t60 115t95 79.5t127 29.5q41 0 70.5 -10.5t48 -28.5t27.5 -41.5 t9 -48.5q0 -47 -17 -79.5t-45 -54.5t-65.5 -34t-78 -19t-82 -9.5t-78.5 -4.5q-1 -8 -1 -13v-8q0 -23 5.5 -43.5t20.5 -36t41.5 -24.5t69.5 -9q19 0 39.5 3.5t39 9t33 11t20.5 10.5l8 -79q-20 -11 -64.5 -23.5t-104.5 -12.5zM374 779l127 -160l-49 -43l-146 146z" glyph-name="egrave" horiz-adv-x="518" unicode="è"/><glyph d="M204 273q58 2 106 7.5t83 19t54.5 36.5t19.5 60q0 9 -3.5 19t-12 18.5t-23.5 14t-37 5.5q-35 0 -65.5 -15t-54.5 -39.5t-41 -57t-26 -68.5zM299 -13q-51 0 -88 14.5t-62 40t-37 59.5t-12 72q0 70 21 135t60 115t95 79.5t127 29.5q41 0 70.5 -10.5t48 -28.5t27.5 -41.5 t9 -48.5q0 -47 -17 -79.5t-45 -54.5t-65.5 -34t-78 -19t-82 -9.5t-78.5 -4.5q-1 -8 -1 -13v-8q0 -23 5.5 -43.5t20.5 -36t41.5 -24.5t69.5 -9q19 0 39.5 3.5t39 9t33 11t20.5 10.5l8 -79q-20 -11 -64.5 -23.5t-104.5 -12.5zM545 708l-169 -128l-40 49l158 151z" glyph-name="eacute" horiz-adv-x="518" unicode="é"/><glyph d="M204 273q58 2 106 7.5t83 19t54.5 36.5t19.5 60q0 9 -3.5 19t-12 18.5t-23.5 14t-37 5.5q-35 0 -65.5 -15t-54.5 -39.5t-41 -57t-26 -68.5zM299 -13q-51 0 -88 14.5t-62 40t-37 59.5t-12 72q0 70 21 135t60 115t95 79.5t127 29.5q41 0 70.5 -10.5t48 -28.5t27.5 -41.5 t9 -48.5q0 -47 -17 -79.5t-45 -54.5t-65.5 -34t-78 -19t-82 -9.5t-78.5 -4.5q-1 -8 -1 -13v-8q0 -23 5.5 -43.5t20.5 -36t41.5 -24.5t69.5 -9q19 0 39.5 3.5t39 9t33 11t20.5 10.5l8 -79q-20 -11 -64.5 -23.5t-104.5 -12.5zM430 667l-112 -82l-33 45l162 139l106 -148 l-44 -41z" glyph-name="ecircumflex" horiz-adv-x="518" unicode="ê"/><glyph d="M204 273q58 2 106 7.5t83 19t54.5 36.5t19.5 60q0 9 -3.5 19t-12 18.5t-23.5 14t-37 5.5q-35 0 -65.5 -15t-54.5 -39.5t-41 -57t-26 -68.5zM299 -13q-51 0 -88 14.5t-62 40t-37 59.5t-12 72q0 70 21 135t60 115t95 79.5t127 29.5q41 0 70.5 -10.5t48 -28.5t27.5 -41.5 t9 -48.5q0 -47 -17 -79.5t-45 -54.5t-65.5 -34t-78 -19t-82 -9.5t-78.5 -4.5q-1 -8 -1 -13v-8q0 -23 5.5 -43.5t20.5 -36t41.5 -24.5t69.5 -9q19 0 39.5 3.5t39 9t33 11t20.5 10.5l8 -79q-20 -11 -64.5 -23.5t-104.5 -12.5zM331 616q-22 0 -37 14t-15 37q0 30 20 48.5 t43 18.5q22 0 37.5 -14.5t15.5 -38.5q0 -29 -20.5 -47t-43.5 -18zM521 616q-22 0 -37 14t-15 37q0 30 20 48.5t43 18.5q22 0 37.5 -14.5t15.5 -38.5q0 -29 -20.5 -47t-43.5 -18z" glyph-name="edieresis" horiz-adv-x="518" unicode="ë"/><glyph d="M169 0h-93l125 520h93zM229 779l127 -160l-49 -43l-146 146z" glyph-name="igrave" horiz-adv-x="249" unicode="ì"/><glyph d="M169 0h-93l125 520h93zM401 708l-169 -128l-40 49l158 151z" glyph-name="iacute" horiz-adv-x="249" unicode="í"/><glyph d="M169 0h-93l125 520h93zM286 667l-112 -82l-33 45l162 139l106 -148l-44 -41z" glyph-name="icircumflex" horiz-adv-x="249" unicode="î"/><glyph d="M169 0h-93l125 520h93zM186 616q-22 0 -37 14t-15 37q0 30 20 48.5t43 18.5q22 0 37.5 -14.5t15.5 -38.5q0 -29 -20.5 -47t-43.5 -18zM376 616q-22 0 -37 14t-15 37q0 30 20 48.5t43 18.5q22 0 37.5 -14.5t15.5 -38.5q0 -29 -20.5 -47t-43.5 -18z" glyph-name="idieresis" horiz-adv-x="249" unicode="ï"/><glyph d="M589 427q0 -30 -4 -74.5t-16 -93t-33.5 -97.5t-55.5 -87.5t-82.5 -63t-115.5 -24.5q-39 0 -72.5 12.5t-57.5 35.5t-38 57t-14 76q0 69 18.5 128t54.5 102t89.5 67.5t123.5 24.5q36 0 64 -9.5t46 -20.5q-2 32 -9 65.5t-21 66.5l-130 -41l-8 63l110 35q-16 26 -33.5 43.5 l-37.5 36.5l70 47q19 -14 42 -39t45 -61l131 42l8 -63l-110 -35q16 -39 26 -87t10 -106zM295 67q46 0 81 26.5t59.5 69t39 97t19.5 110.5q-26 22 -56 30.5t-59 8.5q-91 0 -138.5 -61.5t-47.5 -170.5q0 -54 26.5 -82t75.5 -28z" glyph-name="eth" horiz-adv-x="569" unicode="ð"/><glyph d="M169 0h-93l120 500q46 14 99.5 22.5t95.5 8.5q45 0 77.5 -12.5t52.5 -34t29.5 -52t9.5 -66.5q0 -23 -4 -48.5t-10 -51.5l-64 -266h-93l59 246q7 28 13.5 57t6.5 55q0 40 -22 66.5t-82 26.5q-25 0 -49 -3t-40 -8zM454 707q15 -8 27 -13t24 -5q21 0 35 15.5t25 32.5l47 -29 q-20 -42 -47.5 -64.5t-72.5 -22.5q-20 0 -35.5 7t-29.5 15q-15 8 -27 13t-24 5q-21 0 -35 -15.5t-25 -32.5l-47 29q20 42 47.5 64.5t72.5 22.5q20 0 35.5 -7t29.5 -15z" glyph-name="ntilde" horiz-adv-x="551" unicode="ñ"/><glyph d="M275 -13q-82 0 -128.5 48.5t-46.5 133.5q0 58 16.5 122t52.5 118t93 89t138 35q82 0 128.5 -48.5t46.5 -133.5q0 -58 -16.5 -122t-52.5 -118t-93 -89t-138 -35zM291 66q45 0 80.5 26t60 66.5t37.5 89.5t13 95q0 51 -22 81t-76 30q-45 0 -80.5 -26t-60 -66.5t-37.5 -89.5 t-13 -95q0 -51 22 -81t76 -30zM379 779l127 -160l-49 -43l-146 146z" glyph-name="ograve" horiz-adv-x="555" unicode="ò"/><glyph d="M275 -13q-82 0 -128.5 48.5t-46.5 133.5q0 58 16.5 122t52.5 118t93 89t138 35q82 0 128.5 -48.5t46.5 -133.5q0 -58 -16.5 -122t-52.5 -118t-93 -89t-138 -35zM291 66q45 0 80.5 26t60 66.5t37.5 89.5t13 95q0 51 -22 81t-76 30q-45 0 -80.5 -26t-60 -66.5t-37.5 -89.5 t-13 -95q0 -51 22 -81t76 -30zM551 708l-169 -128l-40 49l158 151z" glyph-name="oacute" horiz-adv-x="555" unicode="ó"/><glyph d="M275 -13q-82 0 -128.5 48.5t-46.5 133.5q0 58 16.5 122t52.5 118t93 89t138 35q82 0 128.5 -48.5t46.5 -133.5q0 -58 -16.5 -122t-52.5 -118t-93 -89t-138 -35zM291 66q45 0 80.5 26t60 66.5t37.5 89.5t13 95q0 51 -22 81t-76 30q-45 0 -80.5 -26t-60 -66.5t-37.5 -89.5 t-13 -95q0 -51 22 -81t76 -30zM435 667l-112 -82l-33 45l162 139l106 -148l-44 -41z" glyph-name="ocircumflex" horiz-adv-x="555" unicode="ô"/><glyph d="M275 -13q-82 0 -128.5 48.5t-46.5 133.5q0 58 16.5 122t52.5 118t93 89t138 35q82 0 128.5 -48.5t46.5 -133.5q0 -58 -16.5 -122t-52.5 -118t-93 -89t-138 -35zM291 66q45 0 80.5 26t60 66.5t37.5 89.5t13 95q0 51 -22 81t-76 30q-45 0 -80.5 -26t-60 -66.5t-37.5 -89.5 t-13 -95q0 -51 22 -81t76 -30zM451 707q15 -8 27 -13t24 -5q21 0 35 15.5t25 32.5l47 -29q-20 -42 -47.5 -64.5t-72.5 -22.5q-20 0 -35.5 7t-29.5 15q-15 8 -27 13t-24 5q-21 0 -35 -15.5t-25 -32.5l-47 29q20 42 47.5 64.5t72.5 22.5q20 0 35.5 -7t29.5 -15z" glyph-name="otilde" horiz-adv-x="555" unicode="õ"/><glyph d="M275 -13q-82 0 -128.5 48.5t-46.5 133.5q0 58 16.5 122t52.5 118t93 89t138 35q82 0 128.5 -48.5t46.5 -133.5q0 -58 -16.5 -122t-52.5 -118t-93 -89t-138 -35zM291 66q45 0 80.5 26t60 66.5t37.5 89.5t13 95q0 51 -22 81t-76 30q-45 0 -80.5 -26t-60 -66.5t-37.5 -89.5 t-13 -95q0 -51 22 -81t76 -30zM336 616q-22 0 -37 14t-15 37q0 30 20 48.5t43 18.5q22 0 37.5 -14.5t15.5 -38.5q0 -29 -20.5 -47t-43.5 -18zM526 616q-22 0 -37 14t-15 37q0 30 20 48.5t43 18.5q22 0 37.5 -14.5t15.5 -38.5q0 -29 -20.5 -47t-43.5 -18z" glyph-name="odieresis" horiz-adv-x="555" unicode="ö"/><glyph d="M368 120q0 -15 -5.5 -28.5t-15.5 -24.5t-24 -17.5t-30 -6.5q-22 0 -35.5 13t-13.5 34q0 15 5.5 28.5t15.5 24.5t23.5 17.5t30.5 6.5q22 0 35.5 -13t13.5 -34zM460 504q0 -15 -5.5 -28.5t-15.5 -24.5t-24 -17.5t-30 -6.5q-22 0 -35.5 13t-13.5 34q0 15 5.5 28.5t15.5 24.5 t23.5 17.5t30.5 6.5q22 0 35.5 -13t13.5 -34zM584 337l-19 -79h-449l19 79h449z" glyph-name="divide" horiz-adv-x="564" unicode="÷"/><glyph d="M575 351q0 -58 -16.5 -122t-52.5 -118t-93 -89t-138 -35q-66 0 -109 31l-47 -54l-50 37l55 63q-24 42 -24 105q0 58 16.5 122t53 118t93.5 89t138 35q65 0 108 -31l46 52l51 -37l-55 -63q11 -21 17.5 -46.5t6.5 -56.5zM191 176v-17t2 -16l257 292q-26 20 -66 20 q-45 0 -81 -26.5t-61 -67t-38 -90t-13 -95.5zM291 65q45 0 81 26.5t61 67t38 90t13 95.5v16t-2 16l-257 -292q22 -19 66 -19z" glyph-name="oslash" horiz-adv-x="555" unicode="ø"/><glyph d="M266 -13q-44 0 -73.5 13t-48 35t-26.5 52t-8 64q0 26 4.5 51.5t10.5 51.5l64 266h93l-59 -246q-5 -23 -13 -54t-8 -62q0 -18 3.5 -34.5t13 -29t25.5 -20t40 -7.5q43 0 75.5 18.5t54.5 43.5q1 16 3 33t7 37l77 321h93l-79 -329q-5 -23 -8.5 -44.5t-3.5 -44.5t4 -46t14 -50 l-82 -12q-5 11 -10 25t-8 30q-11 -10 -26 -21t-34.5 -20t-43 -15t-51.5 -6zM371 779l127 -160l-49 -43l-146 146z" glyph-name="ugrave" horiz-adv-x="550" unicode="ù"/><glyph d="M266 -13q-44 0 -73.5 13t-48 35t-26.5 52t-8 64q0 26 4.5 51.5t10.5 51.5l64 266h93l-59 -246q-5 -23 -13 -54t-8 -62q0 -18 3.5 -34.5t13 -29t25.5 -20t40 -7.5q43 0 75.5 18.5t54.5 43.5q1 16 3 33t7 37l77 321h93l-79 -329q-5 -23 -8.5 -44.5t-3.5 -44.5t4 -46t14 -50 l-82 -12q-5 11 -10 25t-8 30q-11 -10 -26 -21t-34.5 -20t-43 -15t-51.5 -6zM543 708l-169 -128l-40 49l158 151z" glyph-name="uacute" horiz-adv-x="550" unicode="ú"/><glyph d="M266 -13q-44 0 -73.5 13t-48 35t-26.5 52t-8 64q0 26 4.5 51.5t10.5 51.5l64 266h93l-59 -246q-5 -23 -13 -54t-8 -62q0 -18 3.5 -34.5t13 -29t25.5 -20t40 -7.5q43 0 75.5 18.5t54.5 43.5q1 16 3 33t7 37l77 321h93l-79 -329q-5 -23 -8.5 -44.5t-3.5 -44.5t4 -46t14 -50 l-82 -12q-5 11 -10 25t-8 30q-11 -10 -26 -21t-34.5 -20t-43 -15t-51.5 -6zM427 667l-112 -82l-33 45l162 139l106 -148l-44 -41z" glyph-name="ucircumflex" horiz-adv-x="550" unicode="û"/><glyph d="M266 -13q-44 0 -73.5 13t-48 35t-26.5 52t-8 64q0 26 4.5 51.5t10.5 51.5l64 266h93l-59 -246q-5 -23 -13 -54t-8 -62q0 -18 3.5 -34.5t13 -29t25.5 -20t40 -7.5q43 0 75.5 18.5t54.5 43.5q1 16 3 33t7 37l77 321h93l-79 -329q-5 -23 -8.5 -44.5t-3.5 -44.5t4 -46t14 -50 l-82 -12q-5 11 -10 25t-8 30q-11 -10 -26 -21t-34.5 -20t-43 -15t-51.5 -6zM328 616q-22 0 -37 14t-15 37q0 30 20 48.5t43 18.5q22 0 37.5 -14.5t15.5 -38.5q0 -29 -20.5 -47t-43.5 -18zM518 616q-22 0 -37 14t-15 37q0 30 20 48.5t43 18.5q22 0 37.5 -14.5t15.5 -38.5 q0 -29 -20.5 -47t-43.5 -18z" glyph-name="udieresis" horiz-adv-x="550" unicode="ü"/><glyph d="M281 84q38 60 69 124.5t54.5 123.5t39.5 108.5t23 79.5h97q-11 -38 -31 -94.5t-48.5 -122t-64 -134t-77.5 -131.5q-32 -47 -64 -88.5t-68.5 -72t-80.5 -48t-99 -17.5q-28 0 -52 7t-35 15l32 76q10 -8 27 -13.5t38 -5.5q58 0 98.5 28t76.5 74q-37 121 -60.5 255t-28.5 272 h95q1 -45 5 -98.5t11.5 -111t18 -115.5t24.5 -111zM494 708l-169 -128l-40 49l158 151z" glyph-name="yacute" horiz-adv-x="478" unicode="ý"/><glyph d="M379 533q49 0 84.5 -14t58.5 -38.5t34.5 -58t11.5 -73.5q0 -69 -21 -133.5t-64.5 -114.5t-110 -80t-157.5 -30q-11 0 -24 1t-23 3l-43 -180h-93l227 945l97 16l-61 -255q49 12 84 12zM356 454q-25 0 -46 -4.5t-35 -8.5l-88 -368q10 -2 21.5 -2.5t22.5 -0.5q57 0 102 22 t76.5 59.5t48.5 86t17 101.5q0 22 -5 43t-18.5 37t-36.5 25.5t-59 9.5z" glyph-name="thorn" horiz-adv-x="546" unicode="þ"/><glyph d="M281 84q38 60 69 124.5t54.5 123.5t39.5 108.5t23 79.5h97q-11 -38 -31 -94.5t-48.5 -122t-64 -134t-77.5 -131.5q-32 -47 -64 -88.5t-68.5 -72t-80.5 -48t-99 -17.5q-28 0 -52 7t-35 15l32 76q10 -8 27 -13.5t38 -5.5q58 0 98.5 28t76.5 74q-37 121 -60.5 255t-28.5 272 h95q1 -45 5 -98.5t11.5 -111t18 -115.5t24.5 -111zM279 616q-22 0 -37 14t-15 37q0 30 20 48.5t43 18.5q22 0 37.5 -14.5t15.5 -38.5q0 -29 -20.5 -47t-43.5 -18zM469 616q-22 0 -37 14t-15 37q0 30 20 48.5t43 18.5q22 0 37.5 -14.5t15.5 -38.5q0 -29 -20.5 -47t-43.5 -18z" glyph-name="ydieresis" horiz-adv-x="478" unicode="ÿ"/><glyph d="M214 178l-98 -178h-106q112 202 218.5 372l210.5 321h95q15 -75 27.5 -151.5t24.5 -160.5t23 -178l23 -203h-98q-5 45 -9 90.5t-9 87.5h-302zM507 256q-8 81 -18.5 161t-24.5 165l-87 -131.5t-118 -194.5h248zM385 867h280l-17 -72h-280z" glyph-name="Amacron" horiz-adv-x="636" unicode="Ā"/><glyph d="M432 -6q-5 11 -10 24.5t-8 28.5q-22 -20 -59 -40t-91 -20q-44 0 -75.5 14t-51.5 39t-29.5 59t-9.5 75q0 67 22.5 131t67.5 114t113 81t159 31q27 0 63 -6t62 -20l-77 -314q-5 -23 -8.5 -44t-3.5 -44t4 -46.5t14 -50.5zM283 66q42 0 72 18t52 42q1 17 3.5 35.5t6.5 37.5 l60 248q-5 2 -16.5 3t-20.5 1q-57 0 -103 -22t-78.5 -58.5t-50 -85t-17.5 -101.5q0 -21 4 -42.5t14.5 -38t28 -27t45.5 -10.5zM310 711h280l-17 -72h-280z" glyph-name="amacron" horiz-adv-x="544" unicode="ā"/><glyph d="M214 178l-98 -178h-106q112 202 218.5 372l210.5 321h95q15 -75 27.5 -151.5t24.5 -160.5t23 -178l23 -203h-98q-5 45 -9 90.5t-9 87.5h-302zM507 256q-8 81 -18.5 161t-24.5 165l-87 -131.5t-118 -194.5h248zM513 766q-30 0 -52 9t-35.5 24t-20 34.5t-6.5 40.5 q0 16 3 31h58q-1 -3 -1 -12q0 -29 16 -45.5t46 -16.5q21 0 36 7.5t25 18.5t15.5 24t8.5 24h62q-9 -66 -50 -102.5t-105 -36.5z" glyph-name="Abreve" horiz-adv-x="636" unicode="Ă"/><glyph d="M432 -6q-5 11 -10 24.5t-8 28.5q-22 -20 -59 -40t-91 -20q-44 0 -75.5 14t-51.5 39t-29.5 59t-9.5 75q0 67 22.5 131t67.5 114t113 81t159 31q27 0 63 -6t62 -20l-77 -314q-5 -23 -8.5 -44t-3.5 -44t4 -46.5t14 -50.5zM283 66q42 0 72 18t52 42q1 17 3.5 35.5t6.5 37.5 l60 248q-5 2 -16.5 3t-20.5 1q-57 0 -103 -22t-78.5 -58.5t-50 -85t-17.5 -101.5q0 -21 4 -42.5t14.5 -38t28 -27t45.5 -10.5zM438 610q-30 0 -52 9t-35.5 24t-20 34.5t-6.5 40.5q0 16 3 31h58q-1 -3 -1 -12q0 -29 16 -45.5t46 -16.5q21 0 36 7.5t25 18.5t15.5 24t8.5 24h62 q-9 -66 -50 -102.5t-105 -36.5z" glyph-name="abreve" horiz-adv-x="544" unicode="ă"/><glyph d="M632 4l-26.5 -18.5t-31.5 -24.5l-14 -11.5t-15 -14.5t-12 -17t-5 -19t8.5 -16t28.5 -6q10 0 20.5 2t19.5 5l-8 -60q-24 -11 -58 -11q-55 0 -77 17.5t-22 45.5q0 27 18 52t42 45l18.5 14.5l15.5 11.5q-5 45 -9 89t-9 90h-302l-98 -178h-106q112 202 218.5 372l210.5 321 h95q15 -75 27.5 -151.5t24.5 -159.5t23 -176zM464 582l-87 -131.5t-118 -194.5h248q-8 81 -18.5 161t-24.5 165z" glyph-name="Aogonek" horiz-adv-x="636" unicode="Ą"/><glyph d="M438 -187q-55 0 -77 17.5t-22 45.5q0 27 18 52t42 45q8 7 17 13.5l16 11.5q-5 11 -9.5 23.5t-7.5 26.5q-11 -10 -26 -21t-34 -20t-41.5 -14.5t-49.5 -5.5q-44 0 -75.5 14t-51.5 39t-29.5 59t-9.5 75q0 67 22.5 131t67.5 114t113 81t159 31q27 0 63 -6t62 -20l-77 -314 q-5 -23 -8.5 -44t-3.5 -44t4.5 -47t17.5 -56l-22 -16.5t-22 -18.5q-17 -14 -32 -30.5t-15 -35.5q0 -10 8.5 -16t28.5 -6q10 0 20.5 2t19.5 5l-8 -60q-24 -11 -58 -11zM283 66q42 0 72 18t52 42q1 17 3.5 35.5t6.5 37.5l60 248q-5 2 -16.5 3t-20.5 1q-57 0 -103 -22 t-78.5 -58.5t-50 -85t-17.5 -101.5q0 -21 4 -42.5t14.5 -38t28 -27t45.5 -10.5z" glyph-name="aogonek" horiz-adv-x="544" unicode="ą"/><glyph d="M387 -15q-65 0 -114.5 19t-82.5 54t-49.5 84.5t-16.5 111.5q0 90 28.5 172t81 145t126.5 100.5t165 37.5q78 0 124.5 -16t66.5 -30l-40 -80q-23 15 -62.5 28.5t-93.5 13.5q-69 0 -124 -32.5t-93 -84t-58 -116t-20 -127.5q0 -195 169 -195q36 0 64.5 5t50.5 11.5t39 14.5 l30 14l12 -84q-12 -7 -31.5 -15t-45.5 -15t-58 -11.5t-68 -4.5zM666 864l-169 -128l-40 49l158 151z" glyph-name="Cacute" horiz-adv-x="600" unicode="Ć"/><glyph d="M100 186q0 68 20.5 131t60.5 111t98 76.5t133 28.5q33 0 63 -4.5t57 -17.5l-35 -78q-16 9 -37.5 14t-55.5 5q-49 0 -88 -21.5t-66.5 -57t-42 -82t-14.5 -96.5q0 -26 5.5 -49t19.5 -40.5t37.5 -27.5t59.5 -10q18 0 38 3.5t37 8.5t30.5 10.5t19.5 10.5l8 -79 q-19 -12 -59 -23.5t-91 -11.5q-48 0 -85 14.5t-62 41t-38 63t-13 80.5zM551 708l-169 -128l-40 49l158 151z" glyph-name="cacute" horiz-adv-x="451" unicode="ć"/><glyph d="M387 -15q-65 0 -114.5 19t-82.5 54t-49.5 84.5t-16.5 111.5q0 90 28.5 172t81 145t126.5 100.5t165 37.5q78 0 124.5 -16t66.5 -30l-40 -80q-23 15 -62.5 28.5t-93.5 13.5q-69 0 -124 -32.5t-93 -84t-58 -116t-20 -127.5q0 -195 169 -195q36 0 64.5 5t50.5 11.5t39 14.5 l30 14l12 -84q-12 -7 -31.5 -15t-45.5 -15t-58 -11.5t-68 -4.5zM551 823l-112 -82l-33 45l162 139l106 -148l-44 -41z" glyph-name="Ccircumflex" horiz-adv-x="600" unicode="Ĉ"/><glyph d="M100 186q0 68 20.5 131t60.5 111t98 76.5t133 28.5q33 0 63 -4.5t57 -17.5l-35 -78q-16 9 -37.5 14t-55.5 5q-49 0 -88 -21.5t-66.5 -57t-42 -82t-14.5 -96.5q0 -26 5.5 -49t19.5 -40.5t37.5 -27.5t59.5 -10q18 0 38 3.5t37 8.5t30.5 10.5t19.5 10.5l8 -79 q-19 -12 -59 -23.5t-91 -11.5q-48 0 -85 14.5t-62 41t-38 63t-13 80.5zM435 667l-112 -82l-33 45l162 139l106 -148l-44 -41z" glyph-name="ccircumflex" horiz-adv-x="451" unicode="ĉ"/><glyph d="M387 -15q-65 0 -114.5 19t-82.5 54t-49.5 84.5t-16.5 111.5q0 90 28.5 172t81 145t126.5 100.5t165 37.5q78 0 124.5 -16t66.5 -30l-40 -80q-23 15 -62.5 28.5t-93.5 13.5q-69 0 -124 -32.5t-93 -84t-58 -116t-20 -127.5q0 -195 169 -195q36 0 64.5 5t50.5 11.5t39 14.5 l30 14l12 -84q-12 -7 -31.5 -15t-45.5 -15t-58 -11.5t-68 -4.5zM547 770q-23 0 -38.5 14t-15.5 39q0 32 20 50.5t45 18.5q23 0 39 -14.5t16 -40.5q0 -30 -21 -48.5t-45 -18.5z" glyph-name="Cdotaccent" horiz-adv-x="600" unicode="Ċ"/><glyph d="M100 186q0 68 20.5 131t60.5 111t98 76.5t133 28.5q33 0 63 -4.5t57 -17.5l-35 -78q-16 9 -37.5 14t-55.5 5q-49 0 -88 -21.5t-66.5 -57t-42 -82t-14.5 -96.5q0 -26 5.5 -49t19.5 -40.5t37.5 -27.5t59.5 -10q18 0 38 3.5t37 8.5t30.5 10.5t19.5 10.5l8 -79 q-19 -12 -59 -23.5t-91 -11.5q-48 0 -85 14.5t-62 41t-38 63t-13 80.5zM431 614q-23 0 -38.5 14t-15.5 39q0 32 20 50.5t45 18.5q23 0 39 -14.5t16 -40.5q0 -30 -21 -48.5t-45 -18.5z" glyph-name="cdotaccent" horiz-adv-x="451" unicode="ċ"/><glyph d="M387 -15q-65 0 -114.5 19t-82.5 54t-49.5 84.5t-16.5 111.5q0 90 28.5 172t81 145t126.5 100.5t165 37.5q78 0 124.5 -16t66.5 -30l-40 -80q-23 15 -62.5 28.5t-93.5 13.5q-69 0 -124 -32.5t-93 -84t-58 -116t-20 -127.5q0 -195 169 -195q36 0 64.5 5t50.5 11.5t39 14.5 l30 14l12 -84q-12 -7 -31.5 -15t-45.5 -15t-58 -11.5t-68 -4.5zM547 843l112 82l33 -45l-162 -139l-106 148l44 41z" glyph-name="Ccaron" horiz-adv-x="600" unicode="Č"/><glyph d="M100 186q0 68 20.5 131t60.5 111t98 76.5t133 28.5q33 0 63 -4.5t57 -17.5l-35 -78q-16 9 -37.5 14t-55.5 5q-49 0 -88 -21.5t-66.5 -57t-42 -82t-14.5 -96.5q0 -26 5.5 -49t19.5 -40.5t37.5 -27.5t59.5 -10q18 0 38 3.5t37 8.5t30.5 10.5t19.5 10.5l8 -79 q-19 -12 -59 -23.5t-91 -11.5q-48 0 -85 14.5t-62 41t-38 63t-13 80.5zM432 687l112 82l33 -45l-162 -139l-106 148l44 41z" glyph-name="ccaron" horiz-adv-x="451" unicode="č"/><glyph d="M415 618q-75 0 -90 -4l-128 -534q8 -2 27 -3.5t62 -1.5q79 0 142.5 26.5t107.5 74t68 113t24 143.5q0 88 -51 137t-162 49zM423 700q154 0 230 -72.5t76 -195.5q0 -86 -27 -165.5t-84 -140.5t-145.5 -97t-211.5 -36q-42 0 -91 4t-86 14l161 673q42 10 89 13t89 3z M532 843l112 82l33 -45l-162 -139l-106 148l44 41z" glyph-name="Dcaron" horiz-adv-x="691" unicode="Ď"/><glyph d="M499 103q0 -23 4 -46.5t14 -50.5l-82 -12q-11 22 -17 53q-22 -20 -59 -40t-91 -20q-44 0 -76 13.5t-53 38.5t-31 59.5t-10 75.5q0 67 22.5 131t67 114t111.5 80.5t156 30.5q11 0 22 -1t23 -3l56 234l97 16l-141 -585q-5 -23 -9 -44t-4 -44zM287 66q42 0 71.5 17.5 t51.5 40.5q1 16 3.5 34.5t7.5 40.5l60 250q-9 2 -20 2.5t-21 0.5q-57 0 -103 -22t-78.5 -59t-50 -85.5t-17.5 -101.5q0 -23 5 -44t16 -37.5t29.5 -26.5t45.5 -10zM817 776l-81 -223h-65l54 223h92z" glyph-name="dcaron" horiz-adv-x="605" unicode="ď"/><glyph d="M442 700q154 0 230 -72.5t76 -195.5q0 -86 -27 -165.5t-84 -140.5t-145.5 -97t-211.5 -36q-42 0 -91 4t-86 14l75 313h-81l18 75h81l68 285q42 10 89 13t89 3zM434 618q-75 0 -90 -4l-52 -215h130l-18 -75h-130l-58 -244q8 -2 27 -3.5t62 -1.5q79 0 142.5 26.5t107.5 74 t68 113t24 143.5q0 88 -51 137t-162 49z" glyph-name="Dcroat" horiz-adv-x="710" unicode="Đ"/><glyph d="M499 103q0 -23 4 -46.5t14 -50.5l-82 -12q-10 19 -18 52q-22 -20 -58.5 -39.5t-90.5 -19.5q-44 0 -76 13.5t-53 38.5t-31 59.5t-10 75.5q0 67 22.5 130.5t67 113t111 79.5t155.5 30q11 0 22 -1t23 -3l22 91h-157l16 69h157l19 77l97 16l-23 -93h74l-16 -69h-74l-102 -423 q-5 -23 -9 -44t-4 -44zM287 66q42 0 71.5 17.5t51.5 40.5q1 16 3.5 34.5t7.5 40.5l59 247q-9 2 -20 2.5t-21 0.5q-57 0 -102.5 -21.5t-78 -58t-50 -84.5t-17.5 -101q0 -23 5 -44t16 -37.5t29.5 -26.5t45.5 -10z" glyph-name="dcroat" horiz-adv-x="551" unicode="đ"/><glyph d="M81 0l166 693h409l-19 -81h-313l-50 -209h278l-19 -79h-277l-59 -243h336l-19 -81h-433zM354 867h280l-17 -72h-280z" glyph-name="Emacron" horiz-adv-x="557" unicode="Ē"/><glyph d="M204 273q58 2 106 7.5t83 19t54.5 36.5t19.5 60q0 9 -3.5 19t-12 18.5t-23.5 14t-37 5.5q-35 0 -65.5 -15t-54.5 -39.5t-41 -57t-26 -68.5zM299 -13q-51 0 -88 14.5t-62 40t-37 59.5t-12 72q0 70 21 135t60 115t95 79.5t127 29.5q41 0 70.5 -10.5t48 -28.5t27.5 -41.5 t9 -48.5q0 -47 -17 -79.5t-45 -54.5t-65.5 -34t-78 -19t-82 -9.5t-78.5 -4.5q-1 -8 -1 -13v-8q0 -23 5.5 -43.5t20.5 -36t41.5 -24.5t69.5 -9q19 0 39.5 3.5t39 9t33 11t20.5 10.5l8 -79q-20 -11 -64.5 -23.5t-104.5 -12.5zM301 711h280l-17 -72h-280z" glyph-name="emacron" horiz-adv-x="518" unicode="ē"/><glyph d="M81 0l166 693h409l-19 -81h-313l-50 -209h278l-19 -79h-277l-59 -243h336l-19 -81h-433zM481 766q-30 0 -52 9t-35.5 24t-20 34.5t-6.5 40.5q0 16 3 31h58q-1 -3 -1 -12q0 -29 16 -45.5t46 -16.5q21 0 36 7.5t25 18.5t15.5 24t8.5 24h62q-9 -66 -50 -102.5t-105 -36.5z" glyph-name="Ebreve" horiz-adv-x="557" unicode="Ĕ"/><glyph d="M204 273q58 2 106 7.5t83 19t54.5 36.5t19.5 60q0 9 -3.5 19t-12 18.5t-23.5 14t-37 5.5q-35 0 -65.5 -15t-54.5 -39.5t-41 -57t-26 -68.5zM299 -13q-51 0 -88 14.5t-62 40t-37 59.5t-12 72q0 70 21 135t60 115t95 79.5t127 29.5q41 0 70.5 -10.5t48 -28.5t27.5 -41.5 t9 -48.5q0 -47 -17 -79.5t-45 -54.5t-65.5 -34t-78 -19t-82 -9.5t-78.5 -4.5q-1 -8 -1 -13v-8q0 -23 5.5 -43.5t20.5 -36t41.5 -24.5t69.5 -9q19 0 39.5 3.5t39 9t33 11t20.5 10.5l8 -79q-20 -11 -64.5 -23.5t-104.5 -12.5zM428 610q-30 0 -52 9t-35.5 24t-20 34.5 t-6.5 40.5q0 16 3 31h58q-1 -3 -1 -12q0 -29 16 -45.5t46 -16.5q21 0 36 7.5t25 18.5t15.5 24t8.5 24h62q-9 -66 -50 -102.5t-105 -36.5z" glyph-name="ebreve" horiz-adv-x="518" unicode="ĕ"/><glyph d="M81 0l166 693h409l-19 -81h-313l-50 -209h278l-19 -79h-277l-59 -243h336l-19 -81h-433zM479 770q-23 0 -38.5 14t-15.5 39q0 32 20 50.5t45 18.5q23 0 39 -14.5t16 -40.5q0 -30 -21 -48.5t-45 -18.5z" glyph-name="Edotaccent" horiz-adv-x="557" unicode="Ė"/><glyph d="M204 273q58 2 106 7.5t83 19t54.5 36.5t19.5 60q0 9 -3.5 19t-12 18.5t-23.5 14t-37 5.5q-35 0 -65.5 -15t-54.5 -39.5t-41 -57t-26 -68.5zM299 -13q-51 0 -88 14.5t-62 40t-37 59.5t-12 72q0 70 21 135t60 115t95 79.5t127 29.5q41 0 70.5 -10.5t48 -28.5t27.5 -41.5 t9 -48.5q0 -47 -17 -79.5t-45 -54.5t-65.5 -34t-78 -19t-82 -9.5t-78.5 -4.5q-1 -8 -1 -13v-8q0 -23 5.5 -43.5t20.5 -36t41.5 -24.5t69.5 -9q19 0 39.5 3.5t39 9t33 11t20.5 10.5l8 -79q-20 -11 -64.5 -23.5t-104.5 -12.5zM426 614q-23 0 -38.5 14t-15.5 39q0 32 20 50.5 t45 18.5q23 0 39 -14.5t16 -40.5q0 -30 -21 -48.5t-45 -18.5z" glyph-name="edotaccent" horiz-adv-x="518" unicode="ė"/><glyph d="M419 -187q-55 0 -77 17.5t-22 45.5q0 27 18 52t42 45l19.5 15l16.5 12h-335l166 693h409l-19 -81h-313l-50 -209h278l-19 -79h-277l-59 -243h336l-18 -76q-13 -8 -28.5 -18.5t-32.5 -25.5l-14 -11.5t-15 -14.5t-12 -17t-5 -19t8.5 -16t28.5 -6q10 0 20.5 2t19.5 5l-8 -60 q-24 -11 -58 -11z" glyph-name="Eogonek" horiz-adv-x="557" unicode="Ę"/><glyph d="M100 173q0 70 21 135t60 115t95 79.5t127 29.5q41 0 70.5 -10.5t48 -28.5t27.5 -41.5t9 -48.5q0 -47 -17 -79.5t-45 -54.5t-65.5 -34t-78 -19t-82 -9.5t-78.5 -4.5q-1 -8 -1 -13v-8q0 -23 5.5 -43.5t20.5 -36t41.5 -24.5t69.5 -9q19 0 39.5 3.5t39 9t33 11t20.5 10.5 l6 -80q-17 -9 -35 -22.5t-44 -35.5q-5 -5 -13 -12t-15.5 -15.5t-13 -18t-5.5 -19.5t8.5 -16t28.5 -6q10 0 20.5 2t19.5 5l-8 -60q-24 -11 -58 -11q-55 0 -77 17.5t-22 45.5q0 27 18 52t42 45q5 4 13 9.5t15 9.5q-7 -2 -20.5 -2.5t-22.5 -0.5q-51 0 -88 13.5t-61 38t-36 58 t-12 74.5zM204 273q58 2 106 7.5t83 19t54.5 36.5t19.5 60q0 9 -3.5 19t-12 18.5t-23.5 14t-37 5.5q-35 0 -65.5 -15t-54.5 -39.5t-41 -57t-26 -68.5z" glyph-name="eogonek" horiz-adv-x="518" unicode="ę"/><glyph d="M81 0l166 693h409l-19 -81h-313l-50 -209h278l-19 -79h-277l-59 -243h336l-19 -81h-433zM480 843l112 82l33 -45l-162 -139l-106 148l44 41z" glyph-name="Ecaron" horiz-adv-x="557" unicode="Ě"/><glyph d="M204 273q58 2 106 7.5t83 19t54.5 36.5t19.5 60q0 9 -3.5 19t-12 18.5t-23.5 14t-37 5.5q-35 0 -65.5 -15t-54.5 -39.5t-41 -57t-26 -68.5zM299 -13q-51 0 -88 14.5t-62 40t-37 59.5t-12 72q0 70 21 135t60 115t95 79.5t127 29.5q41 0 70.5 -10.5t48 -28.5t27.5 -41.5 t9 -48.5q0 -47 -17 -79.5t-45 -54.5t-65.5 -34t-78 -19t-82 -9.5t-78.5 -4.5q-1 -8 -1 -13v-8q0 -23 5.5 -43.5t20.5 -36t41.5 -24.5t69.5 -9q19 0 39.5 3.5t39 9t33 11t20.5 10.5l8 -79q-20 -11 -64.5 -23.5t-104.5 -12.5zM426 687l112 82l33 -45l-162 -139l-106 148l44 41 z" glyph-name="ecaron" horiz-adv-x="518" unicode="ě"/><glyph d="M380 -14q-126 0 -191 72.5t-65 195.5q0 90 28.5 172t81.5 145t127.5 100.5t167.5 37.5q46 0 79.5 -6t57.5 -14t39 -16.5t24 -14.5l-43 -79q-8 5 -22 13t-34 15.5t-46 12.5t-59 5q-71 0 -127 -32.5t-94.5 -84t-58.5 -116t-20 -127.5q0 -99 42 -147.5t133 -48.5q37 0 67 5 t43 10l60 254h95l-76 -316q-12 -7 -33 -13.5t-49 -11.5t-60.5 -8t-66.5 -3zM554 823l-112 -82l-33 45l162 139l106 -148l-44 -41z" glyph-name="Gcircumflex" horiz-adv-x="651" unicode="Ĝ"/><glyph d="M202 -108q41 0 72 10t53.5 29t36.5 45t22 59l4 19q-20 -11 -54 -22t-70 -11q-81 0 -124.5 40.5t-43.5 113.5q0 67 22 131t67 114t112 80.5t157 30.5q14 0 31.5 -2t36 -5.5t36 -9.5t30.5 -14l-109 -455q-13 -54 -32 -97t-52 -73t-85 -46.5t-130 -16.5q-43 0 -85 11.5 t-71 28.5l35 78q23 -17 61 -27.5t80 -10.5zM286 99q40 0 73.5 14.5t51.5 27.5l73 304q-10 2 -23 4t-25 2q-54 0 -99 -20.5t-77.5 -55t-50.5 -80t-18 -94.5q0 -54 23.5 -78t71.5 -24zM443 667l-112 -82l-33 45l162 139l106 -148l-44 -41z" glyph-name="gcircumflex" horiz-adv-x="550" unicode="ĝ"/><glyph d="M380 -14q-126 0 -191 72.5t-65 195.5q0 90 28.5 172t81.5 145t127.5 100.5t167.5 37.5q46 0 79.5 -6t57.5 -14t39 -16.5t24 -14.5l-43 -79q-8 5 -22 13t-34 15.5t-46 12.5t-59 5q-71 0 -127 -32.5t-94.5 -84t-58.5 -116t-20 -127.5q0 -99 42 -147.5t133 -48.5q37 0 67 5 t43 10l60 254h95l-76 -316q-12 -7 -33 -13.5t-49 -11.5t-60.5 -8t-66.5 -3zM552 766q-30 0 -52 9t-35.5 24t-20 34.5t-6.5 40.5q0 16 3 31h58q-1 -3 -1 -12q0 -29 16 -45.5t46 -16.5q21 0 36 7.5t25 18.5t15.5 24t8.5 24h62q-9 -66 -50 -102.5t-105 -36.5z" glyph-name="Gbreve" horiz-adv-x="651" unicode="Ğ"/><glyph d="M202 -108q41 0 72 10t53.5 29t36.5 45t22 59l4 19q-20 -11 -54 -22t-70 -11q-81 0 -124.5 40.5t-43.5 113.5q0 67 22 131t67 114t112 80.5t157 30.5q14 0 31.5 -2t36 -5.5t36 -9.5t30.5 -14l-109 -455q-13 -54 -32 -97t-52 -73t-85 -46.5t-130 -16.5q-43 0 -85 11.5 t-71 28.5l35 78q23 -17 61 -27.5t80 -10.5zM286 99q40 0 73.5 14.5t51.5 27.5l73 304q-10 2 -23 4t-25 2q-54 0 -99 -20.5t-77.5 -55t-50.5 -80t-18 -94.5q0 -54 23.5 -78t71.5 -24zM442 610q-30 0 -52 9t-35.5 24t-20 34.5t-6.5 40.5q0 16 3 31h58q-1 -3 -1 -12 q0 -29 16 -45.5t46 -16.5q21 0 36 7.5t25 18.5t15.5 24t8.5 24h62q-9 -66 -50 -102.5t-105 -36.5z" glyph-name="gbreve" horiz-adv-x="550" unicode="ğ"/><glyph d="M380 -14q-126 0 -191 72.5t-65 195.5q0 90 28.5 172t81.5 145t127.5 100.5t167.5 37.5q46 0 79.5 -6t57.5 -14t39 -16.5t24 -14.5l-43 -79q-8 5 -22 13t-34 15.5t-46 12.5t-59 5q-71 0 -127 -32.5t-94.5 -84t-58.5 -116t-20 -127.5q0 -99 42 -147.5t133 -48.5q37 0 67 5 t43 10l60 254h95l-76 -316q-12 -7 -33 -13.5t-49 -11.5t-60.5 -8t-66.5 -3zM550 770q-23 0 -38.5 14t-15.5 39q0 32 20 50.5t45 18.5q23 0 39 -14.5t16 -40.5q0 -30 -21 -48.5t-45 -18.5z" glyph-name="Gdotaccent" horiz-adv-x="651" unicode="Ġ"/><glyph d="M202 -108q41 0 72 10t53.5 29t36.5 45t22 59l4 19q-20 -11 -54 -22t-70 -11q-81 0 -124.5 40.5t-43.5 113.5q0 67 22 131t67 114t112 80.5t157 30.5q14 0 31.5 -2t36 -5.5t36 -9.5t30.5 -14l-109 -455q-13 -54 -32 -97t-52 -73t-85 -46.5t-130 -16.5q-43 0 -85 11.5 t-71 28.5l35 78q23 -17 61 -27.5t80 -10.5zM286 99q40 0 73.5 14.5t51.5 27.5l73 304q-10 2 -23 4t-25 2q-54 0 -99 -20.5t-77.5 -55t-50.5 -80t-18 -94.5q0 -54 23.5 -78t71.5 -24zM439 614q-23 0 -38.5 14t-15.5 39q0 32 20 50.5t45 18.5q23 0 39 -14.5t16 -40.5 q0 -30 -21 -48.5t-45 -18.5z" glyph-name="gdotaccent" horiz-adv-x="550" unicode="ġ"/><glyph d="M380 -14q-126 0 -191 72.5t-65 195.5q0 90 28.5 172t81.5 145t127.5 100.5t167.5 37.5q46 0 79.5 -6t57.5 -14t39 -16.5t24 -14.5l-43 -79q-8 5 -22 13t-34 15.5t-46 12.5t-59 5q-71 0 -127 -32.5t-94.5 -84t-58.5 -116t-20 -127.5q0 -99 42 -147.5t133 -48.5q37 0 67 5 t43 10l60 254h95l-76 -316q-12 -7 -33 -13.5t-49 -11.5t-60.5 -8t-66.5 -3zM419 -50q-5 -29 -14 -54t-25.5 -43.5t-40.5 -29t-59 -10.5q-11 0 -22.5 1.5t-18.5 3.5l14 55q2 -1 6.5 -1h7.5q27 0 40.5 16t24.5 62h87z" glyph-name="Gcommaaccent" horiz-adv-x="651" unicode="Ģ"/><glyph d="M202 -108q41 0 72 10t53.5 29t36.5 45t22 59l4 19q-20 -11 -54 -22t-70 -11q-81 0 -124.5 40.5t-43.5 113.5q0 67 22 131t67 114t112 80.5t157 30.5q14 0 31.5 -2t36 -5.5t36 -9.5t30.5 -14l-109 -455q-13 -54 -32 -97t-52 -73t-85 -46.5t-130 -16.5q-43 0 -85 11.5 t-71 28.5l35 78q23 -17 61 -27.5t80 -10.5zM286 99q40 0 73.5 14.5t51.5 27.5l73 304q-10 2 -23 4t-25 2q-54 0 -99 -20.5t-77.5 -55t-50.5 -80t-18 -94.5q0 -54 23.5 -78t71.5 -24zM384 609q7 70 46 115t102 56l27 -44q-18 -8 -31.5 -17.5t-23.5 -24t-17.5 -35t-13.5 -50.5 h-89z" glyph-name="gcommaaccent" horiz-adv-x="550" unicode="ģ"/><glyph d="M596 0h-97l77 322h-321l-77 -322h-97l166 693h97l-70 -290h321l70 290h97zM535 823l-112 -82l-33 45l162 139l106 -148l-44 -41z" glyph-name="Hcircumflex" horiz-adv-x="681" unicode="Ĥ"/><glyph d="M76 0l183 760l97 16l-64 -263q23 8 48.5 13t51.5 5q45 0 77.5 -12.5t52.5 -34t29.5 -52t9.5 -66.5q0 -44 -14 -100l-64 -266h-93l59 246q7 28 13.5 57t6.5 55q0 40 -22 66.5t-82 26.5q-24 0 -49.5 -4.5t-42.5 -12.5l-104 -434h-93zM492 855l-37 -40l-72 65l-98 -64 l-27 47l136 99z" glyph-name="hcircumflex" horiz-adv-x="552" unicode="ĥ"/><glyph d="M752 594h75l-17 -71h-75l-125 -523h-97l77 322h-321l-77 -322h-97l125 523h-75l17 71h75l24 99h97l-24 -99h321l24 99h97zM609 403l29 120h-321l-29 -120h321z" glyph-name="Hbar" horiz-adv-x="709" unicode="Ħ"/><glyph d="M76 0l148 614h-74l16 69h74l19 77l97 16l-23 -93h157l-16 -69h-158l-25 -105q23 8 48.5 13t51.5 5q45 0 77.5 -12.5t52.5 -34t29.5 -52t9.5 -66.5q0 -44 -14 -100l-63 -262h-93l58 242q7 28 13.5 57t6.5 55q0 40 -22 66.5t-82 26.5q-24 0 -49.5 -4.5t-42.5 -12.5 l-103 -430h-93z" glyph-name="hbar" horiz-adv-x="552" unicode="ħ"/><glyph d="M247 693h97l-166 -693h-97zM344 863q15 -8 27 -13t24 -5q21 0 35 15.5t25 32.5l47 -29q-20 -42 -47.5 -64.5t-72.5 -22.5q-20 0 -35.5 7t-29.5 15q-15 8 -27 13t-24 5q-21 0 -35 -15.5t-25 -32.5l-47 29q20 42 47.5 64.5t72.5 22.5q20 0 35.5 -7t29.5 -15z" glyph-name="Itilde" horiz-adv-x="263" unicode="Ĩ"/><glyph d="M169 0h-93l125 520h93zM301 707q15 -8 27 -13t24 -5q21 0 35 15.5t25 32.5l47 -29q-20 -42 -47.5 -64.5t-72.5 -22.5q-20 0 -35.5 7t-29.5 15q-15 8 -27 13t-24 5q-21 0 -35 -15.5t-25 -32.5l-47 29q20 42 47.5 64.5t72.5 22.5q20 0 35.5 -7t29.5 -15z" glyph-name="itilde" horiz-adv-x="249" unicode="ĩ"/><glyph d="M247 693h97l-166 -693h-97zM199 867h280l-17 -72h-280z" glyph-name="Imacron" horiz-adv-x="263" unicode="Ī"/><glyph d="M169 0h-93l125 520h93zM156 711h280l-17 -72h-280z" glyph-name="imacron" horiz-adv-x="249" unicode="ī"/><glyph d="M247 693h97l-166 -693h-97zM327 766q-30 0 -52 9t-35.5 24t-20 34.5t-6.5 40.5q0 16 3 31h58q-1 -3 -1 -12q0 -29 16 -45.5t46 -16.5q21 0 36 7.5t25 18.5t15.5 24t8.5 24h62q-9 -66 -50 -102.5t-105 -36.5z" glyph-name="Ibreve" horiz-adv-x="263" unicode="Ĭ"/><glyph d="M169 0h-93l125 520h93zM284 610q-30 0 -52 9t-35.5 24t-20 34.5t-6.5 40.5q0 16 3 31h58q-1 -3 -1 -12q0 -29 16 -45.5t46 -16.5q21 0 36 7.5t25 18.5t15.5 24t8.5 24h62q-9 -66 -50 -102.5t-105 -36.5z" glyph-name="ibreve" horiz-adv-x="249" unicode="ĭ"/><glyph d="M247 693h97l-166 -693q-11 -6 -24.5 -14.5t-29.5 -22.5l-14.5 -12t-16 -15t-12.5 -17.5t-5 -19.5t8.5 -16t28.5 -6q10 0 20.5 2t19.5 5l-8 -60q-24 -11 -58 -11q-55 0 -77 17.5t-22 45.5q0 27 18 52t42 45q9 8 17 14l16 12z" glyph-name="Iogonek" horiz-adv-x="263" unicode="Į"/><glyph d="M80 -187q-55 0 -77 17.5t-22 45.5q0 27 18 52t42 45q8 7 17.5 14.5t17.5 12.5l125 520h93l-125 -520q-11 -8 -25 -17t-29 -22l-14 -11.5t-15 -14.5t-12 -17t-5 -19t8.5 -16t28.5 -6q10 0 20.5 2t19.5 5l-8 -60q-24 -11 -58 -11zM277 614q-23 0 -38.5 14t-15.5 39 q0 32 20 50.5t45 18.5q23 0 39 -14.5t16 -40.5q0 -30 -21 -48.5t-45 -18.5z" glyph-name="iogonek" horiz-adv-x="249" unicode="į"/><glyph d="M247 693h97l-166 -693h-97zM322 770q-23 0 -38.5 14t-15.5 39q0 32 20 50.5t45 18.5q23 0 39 -14.5t16 -40.5q0 -30 -21 -48.5t-45 -18.5z" glyph-name="Idotaccent" horiz-adv-x="263" unicode="İ"/><glyph d="M169 0h-93l125 520h93z" glyph-name="dotlessi" horiz-adv-x="249" unicode="ı"/><glyph d="M169 0h-93l125 520h93zM277 614q-23 0 -38.5 14t-15.5 39q0 32 20 50.5t45 18.5q23 0 39 -14.5t16 -40.5q0 -30 -21 -48.5t-45 -18.5z" glyph-name="i.locl" horiz-adv-x="249"/><glyph d="M247 693h97l-166 -693h-97zM722 223q-12 -48 -27 -91.5t-42.5 -76t-72 -51.5t-114.5 -19q-35 0 -63.5 6.5t-50.5 16.5t-37.5 20.5t-23.5 19.5l48 73q16 -16 48 -34t81 -18q36 0 61 9t43 28.5t30.5 50.5t23.5 75l111 461h97z" glyph-name="IJ" horiz-adv-x="749" unicode="Ĳ"/><glyph d="M169 0h-93l125 520h93zM277 614q-23 0 -38.5 14t-15.5 39q0 32 20 50.5t45 18.5q23 0 39 -14.5t16 -40.5q0 -30 -21 -48.5t-45 -18.5zM426 20q-14 -56 -30.5 -95.5t-41 -64.5t-58.5 -36.5t-83 -11.5q-17 0 -38.5 5t-33.5 13l21 77q11 -7 28 -11t37 -4q45 0 68.5 35 t37.5 92l120 501h93zM530 614q-23 0 -38.5 14t-15.5 39q0 32 20 50.5t45 18.5q23 0 39 -14.5t16 -40.5q0 -30 -21 -48.5t-45 -18.5z" glyph-name="ij" horiz-adv-x="502" unicode="ĳ"/><glyph d="M455 223q-12 -48 -27 -91.5t-42.5 -76t-72 -51.5t-114.5 -19q-35 0 -63.5 6.5t-50.5 16.5t-37.5 20.5t-23.5 19.5l48 73q16 -16 48 -34t81 -18q36 0 61 9t43 28.5t30.5 50.5t23.5 75l111 461h97zM548 823l-112 -82l-33 45l162 139l106 -148l-44 -41z" glyph-name="Jcircumflex" horiz-adv-x="482" unicode="Ĵ"/><glyph d="M174 20q-14 -56 -30.5 -95.5t-41 -64.5t-58.5 -36.5t-83 -11.5q-17 0 -38.5 5t-33.5 13l21 77q11 -7 28 -11t37 -4q45 0 68.5 35t37.5 92l120 501h93zM283 667l-112 -82l-33 45l162 139l106 -148l-44 -41z" glyph-name="jcircumflex" horiz-adv-x="249" unicode="ĵ"/><glyph d="M750 693l-85.5 -76.5l-99 -86.5l-103.5 -88l-99 -81q31 -29 65.5 -72t68 -92t64 -100t53.5 -97h-108q-26 46 -56 94t-61.5 92t-64.5 82.5t-66 65.5l-80 -334h-97l166 693h97l-73 -303q44 33 95 75l100 84l91.5 80l70.5 64h122zM374 -50q-5 -29 -14 -54t-25.5 -43.5 t-40.5 -29t-59 -10.5q-11 0 -22.5 1.5t-18.5 3.5l14 55q2 -1 6.5 -1h7.5q27 0 40.5 16t24.5 62h87z" glyph-name="Kcommaaccent" horiz-adv-x="614" unicode="Ķ"/><glyph d="M76 0l183 760l97 16l-112 -463q33 24 68 52.5l66.5 56.5l58 53.5t43.5 44.5h110q-21 -26 -53.5 -58l-68.5 -64.5l-72.5 -62.5t-65.5 -51q27 -25 54.5 -59.5t53 -73t46.5 -78t35 -73.5h-101q-35 81 -83.5 149t-102.5 111l-63 -260h-93zM325 -50q-5 -29 -14 -54 t-25.5 -43.5t-40.5 -29t-59 -10.5q-11 0 -22.5 1.5t-18.5 3.5l14 55q2 -1 6.5 -1h7.5q27 0 40.5 16t24.5 62h87z" glyph-name="kcommaaccent" horiz-adv-x="517" unicode="ķ"/><glyph d="M750 693l-85.5 -76.5l-99 -86.5l-103.5 -88l-99 -81q31 -29 65.5 -72t68 -92t64 -100t53.5 -97h-108q-26 46 -56 94t-61.5 92t-64.5 82.5t-66 65.5l-80 -334h-97l166 693h97l-73 -303q44 33 95 75l100 84l91.5 80l70.5 64h122zM724 520q5 32 18 65.5t30.5 65t38 59.5 t41.5 50l63 -26q-35 -54 -58 -105t-31 -109h-102z" glyph-name="kgreenlandic.case" horiz-adv-x="737"/><glyph d="M169 0h-93l125 520h93l-51 -213q37 25 74.5 54.5t71 58.5l61.5 55t46 45h112q-23 -25 -57 -57l-72.5 -65.5l-77 -64.5t-69.5 -53q28 -24 57.5 -58t56.5 -72t49.5 -77t37.5 -73h-102q-38 78 -89 146t-111 111z" glyph-name="kgreenlandic" horiz-adv-x="530" unicode="ĸ"/><glyph d="M504 81l-19 -81h-404l166 693h97l-147 -612h307zM466 864l-169 -128l-40 49l158 151z" glyph-name="Lacute" horiz-adv-x="507" unicode="Ĺ"/><glyph d="M215 229l-10 -43t-5 -40q0 -34 16.5 -54t61.5 -25l-21 -76q-41 1 -69.5 12.5t-46 30.5t-25.5 45t-8 57q0 23 4 48t11 52l126 524l97 16zM445 880l-172 -61l-17 50l168 83z" glyph-name="lacute" horiz-adv-x="276" unicode="ĺ"/><glyph d="M504 81l-19 -81h-404l166 693h97l-147 -612h307zM315 -50q-5 -29 -14 -54t-25.5 -43.5t-40.5 -29t-59 -10.5q-11 0 -22.5 1.5t-18.5 3.5l14 55q2 -1 6.5 -1h7.5q27 0 40.5 16t24.5 62h87z" glyph-name="Lcommaaccent" horiz-adv-x="507" unicode="Ļ"/><glyph d="M215 229l-10 -43t-5 -40q0 -34 16.5 -54t61.5 -25l-21 -76q-41 1 -69.5 12.5t-46 30.5t-25.5 45t-8 57q0 23 4 48t11 52l126 524l97 16zM192 -50q-5 -29 -14 -54t-25.5 -43.5t-40.5 -29t-59 -10.5q-11 0 -22.5 1.5t-18.5 3.5l14 55q2 -1 6.5 -1h7.5q27 0 40.5 16t24.5 62 h87z" glyph-name="lcommaaccent" horiz-adv-x="276" unicode="ļ"/><glyph d="M504 81l-19 -81h-404l166 693h97l-147 -612h307zM523 695l-81 -223h-65l54 223h92z" glyph-name="Lcaron" horiz-adv-x="507" unicode="Ľ"/><glyph d="M215 229l-10 -43t-5 -40q0 -34 16.5 -54t61.5 -25l-21 -76q-41 1 -69.5 12.5t-46 30.5t-25.5 45t-8 57q0 23 4 48t11 52l126 524l97 16zM508 776l-81 -223h-65l54 223h92z" glyph-name="lcaron" horiz-adv-x="296" unicode="ľ"/><glyph d="M504 81l-19 -81h-404l166 693h97l-147 -612h307zM465 303q-23 0 -38.5 14t-15.5 39q0 32 20 50.5t45 18.5q23 0 39 -14.5t16 -40.5q0 -30 -21 -48.5t-45 -18.5z" glyph-name="Ldot" horiz-adv-x="507" unicode="Ŀ"/><glyph d="M215 229l-10 -43t-5 -40q0 -34 16.5 -54t61.5 -25l-21 -76q-41 1 -69.5 12.5t-46 30.5t-25.5 45t-8 57q0 23 4 48t11 52l126 524l97 16zM376 303q-23 0 -38.5 14t-15.5 39q0 32 20 50.5t45 18.5q23 0 39 -14.5t16 -40.5q0 -30 -21 -48.5t-45 -18.5z" glyph-name="ldot" horiz-adv-x="360" unicode="ŀ"/><glyph d="M524 81l-19 -81h-404l68 283l-77 -36l-16 69l113 54l78 323h97l-68 -281l126 60l16 -69l-162 -77l-59 -245h307z" glyph-name="Lslash" horiz-adv-x="527" unicode="Ł"/><glyph d="M302 468l77 36l16 -69l-114 -54l-36 -152l-10 -43t-5 -40q0 -34 16.5 -54t61.5 -25l-21 -76q-41 1 -69.5 12.5t-46 30.5t-25.5 45t-8 57q0 23 4 48t11 52l26 105l-70 -33l-16 69l106 50l80 333l97 16z" glyph-name="lslash" horiz-adv-x="318" unicode="ł"/><glyph d="M528 0l-43 132t-54.5 150t-60.5 147.5t-61 124.5l-133 -554h-95l166 693h83q32 -54 65.5 -122.5t64 -140.5t56.5 -141t43 -124l124 528h95l-165 -693h-85zM660 864l-169 -128l-40 49l158 151z" glyph-name="Nacute" horiz-adv-x="698" unicode="Ń"/><glyph d="M169 0h-93l120 500q46 14 99.5 22.5t95.5 8.5q45 0 77.5 -12.5t52.5 -34t29.5 -52t9.5 -66.5q0 -23 -4 -48.5t-10 -51.5l-64 -266h-93l59 246q7 28 13.5 57t6.5 55q0 40 -22 66.5t-82 26.5q-25 0 -49 -3t-40 -8zM555 708l-169 -128l-40 49l158 151z" glyph-name="nacute" horiz-adv-x="551" unicode="ń"/><glyph d="M528 0l-43 132t-54.5 150t-60.5 147.5t-61 124.5l-133 -554h-95l166 693h83q32 -54 65.5 -122.5t64 -140.5t56.5 -141t43 -124l124 528h95l-165 -693h-85zM379 -50q-5 -29 -14 -54t-25.5 -43.5t-40.5 -29t-59 -10.5q-11 0 -22.5 1.5t-18.5 3.5l14 55q2 -1 6.5 -1h7.5 q27 0 40.5 16t24.5 62h87z" glyph-name="Ncommaaccent" horiz-adv-x="698" unicode="Ņ"/><glyph d="M169 0h-93l120 500q46 14 99.5 22.5t95.5 8.5q45 0 77.5 -12.5t52.5 -34t29.5 -52t9.5 -66.5q0 -23 -4 -48.5t-10 -51.5l-64 -266h-93l59 246q7 28 13.5 57t6.5 55q0 40 -22 66.5t-82 26.5q-25 0 -49 -3t-40 -8zM311 -50q-5 -29 -14 -54t-25.5 -43.5t-40.5 -29t-59 -10.5 q-11 0 -22.5 1.5t-18.5 3.5l14 55q2 -1 6.5 -1h7.5q27 0 40.5 16t24.5 62h87z" glyph-name="ncommaaccent" horiz-adv-x="551" unicode="ņ"/><glyph d="M528 0l-43 132t-54.5 150t-60.5 147.5t-61 124.5l-133 -554h-95l166 693h83q32 -54 65.5 -122.5t64 -140.5t56.5 -141t43 -124l124 528h95l-165 -693h-85zM541 843l112 82l33 -45l-162 -139l-106 148l44 41z" glyph-name="Ncaron" horiz-adv-x="698" unicode="Ň"/><glyph d="M169 0h-93l120 500q46 14 99.5 22.5t95.5 8.5q45 0 77.5 -12.5t52.5 -34t29.5 -52t9.5 -66.5q0 -23 -4 -48.5t-10 -51.5l-64 -266h-93l59 246q7 28 13.5 57t6.5 55q0 40 -22 66.5t-82 26.5q-25 0 -49 -3t-40 -8zM436 687l112 82l33 -45l-162 -139l-106 148l44 41z" glyph-name="ncaron" horiz-adv-x="551" unicode="ň"/><glyph d="M617 0l-43 132t-54.5 150t-60.5 147.5t-61 124.5l-133 -554h-95l166 693h83q32 -54 65.5 -122.5t64 -140.5t56.5 -141t43 -124l124 528h95l-165 -693h-85zM295 776q-14 -63 -44 -116t-64 -87l-59 22q30 48 47 90.5t24 90.5h96z" glyph-name="napostrophe.case" horiz-adv-x="787"/><glyph d="M169 0h-93l120 500q46 14 99.5 22.5t95.5 8.5q45 0 77.5 -12.5t52.5 -34t29.5 -52t9.5 -66.5q0 -23 -4 -48.5t-10 -51.5l-64 -266h-93l59 246q7 28 13.5 57t6.5 55q0 40 -22 66.5t-82 26.5q-25 0 -49 -3t-40 -8zM316 776q-14 -63 -44 -116t-64 -87l-59 22q30 48 47 90.5 t24 90.5h96z" glyph-name="napostrophe" horiz-adv-x="551" unicode="ŉ"/><glyph d="M613 0q-11 -46 -23.5 -81t-32.5 -58.5t-51.5 -35.5t-80.5 -12q-14 0 -34 4t-28 9l24 70q6 -3 17 -5.5t25 -2.5q40 0 57 25t28 70l9 38q-18 59 -43 130.5t-53.5 144t-59 140t-58.5 118.5l-133 -554h-95l166 693h83q32 -54 65.5 -122.5t64 -140.5t56.5 -141t43 -124 l124 528h95z" glyph-name="Eng" horiz-adv-x="698" unicode="Ŋ"/><glyph d="M448 246q7 28 13.5 57t6.5 55q0 40 -22 66.5t-82 26.5q-25 0 -49 -3t-40 -8l-106 -440h-93l120 500q46 14 99.5 22.5t95.5 8.5q45 0 77.5 -12.5t52.5 -34t29.5 -52t9.5 -66.5q0 -23 -4 -48.5t-10 -51.5l-64 -266q-11 -46 -23 -81t-32.5 -58.5t-51.5 -35.5t-80 -12 q-14 0 -34 4t-28 9l24 70q6 -3 17 -5.5t25 -2.5q39 0 57 25t29 70z" glyph-name="eng" horiz-adv-x="551" unicode="ŋ"/><glyph d="M525 709q55 0 101.5 -16.5t80 -49.5t52 -82.5t18.5 -115.5q0 -83 -25.5 -165t-75.5 -147.5t-125 -106.5t-175 -41q-56 0 -102 16.5t-79.5 49.5t-52 82.5t-18.5 115.5q0 82 25 164.5t75.5 148t125.5 106.5t175 41zM386 69q67 0 121 32.5t91.5 84.5t57.5 117t20 130 q0 89 -38.5 140.5t-122.5 51.5q-68 0 -121.5 -32.5t-91 -84.5t-57.5 -117t-20 -130q0 -89 38.5 -140.5t122.5 -51.5zM435 867h280l-17 -72h-280z" glyph-name="Omacron" horiz-adv-x="739" unicode="Ō"/><glyph d="M275 -13q-82 0 -128.5 48.5t-46.5 133.5q0 58 16.5 122t52.5 118t93 89t138 35q82 0 128.5 -48.5t46.5 -133.5q0 -58 -16.5 -122t-52.5 -118t-93 -89t-138 -35zM291 66q45 0 80.5 26t60 66.5t37.5 89.5t13 95q0 51 -22 81t-76 30q-45 0 -80.5 -26t-60 -66.5t-37.5 -89.5 t-13 -95q0 -51 22 -81t76 -30zM306 711h280l-17 -72h-280z" glyph-name="omacron" horiz-adv-x="555" unicode="ō"/><glyph d="M525 709q55 0 101.5 -16.5t80 -49.5t52 -82.5t18.5 -115.5q0 -83 -25.5 -165t-75.5 -147.5t-125 -106.5t-175 -41q-56 0 -102 16.5t-79.5 49.5t-52 82.5t-18.5 115.5q0 82 25 164.5t75.5 148t125.5 106.5t175 41zM386 69q67 0 121 32.5t91.5 84.5t57.5 117t20 130 q0 89 -38.5 140.5t-122.5 51.5q-68 0 -121.5 -32.5t-91 -84.5t-57.5 -117t-20 -130q0 -89 38.5 -140.5t122.5 -51.5zM562 766q-30 0 -52 9t-35.5 24t-20 34.5t-6.5 40.5q0 16 3 31h58q-1 -3 -1 -12q0 -29 16 -45.5t46 -16.5q21 0 36 7.5t25 18.5t15.5 24t8.5 24h62 q-9 -66 -50 -102.5t-105 -36.5z" glyph-name="Obreve" horiz-adv-x="739" unicode="Ŏ"/><glyph d="M275 -13q-82 0 -128.5 48.5t-46.5 133.5q0 58 16.5 122t52.5 118t93 89t138 35q82 0 128.5 -48.5t46.5 -133.5q0 -58 -16.5 -122t-52.5 -118t-93 -89t-138 -35zM291 66q45 0 80.5 26t60 66.5t37.5 89.5t13 95q0 51 -22 81t-76 30q-45 0 -80.5 -26t-60 -66.5t-37.5 -89.5 t-13 -95q0 -51 22 -81t76 -30zM434 610q-30 0 -52 9t-35.5 24t-20 34.5t-6.5 40.5q0 16 3 31h58q-1 -3 -1 -12q0 -29 16 -45.5t46 -16.5q21 0 36 7.5t25 18.5t15.5 24t8.5 24h62q-9 -66 -50 -102.5t-105 -36.5z" glyph-name="obreve" horiz-adv-x="555" unicode="ŏ"/><glyph d="M525 709q55 0 101.5 -16.5t80 -49.5t52 -82.5t18.5 -115.5q0 -83 -25.5 -165t-75.5 -147.5t-125 -106.5t-175 -41q-56 0 -102 16.5t-79.5 49.5t-52 82.5t-18.5 115.5q0 82 25 164.5t75.5 148t125.5 106.5t175 41zM386 69q67 0 121 32.5t91.5 84.5t57.5 117t20 130 q0 89 -38.5 140.5t-122.5 51.5q-68 0 -121.5 -32.5t-91 -84.5t-57.5 -117t-20 -130q0 -89 38.5 -140.5t122.5 -51.5zM622 867l-151 -129l-39 45l139 149zM790 865l-151 -127l-39 43l139 149z" glyph-name="Ohungarumlaut" horiz-adv-x="739" unicode="Ő"/><glyph d="M275 -13q-82 0 -128.5 48.5t-46.5 133.5q0 58 16.5 122t52.5 118t93 89t138 35q82 0 128.5 -48.5t46.5 -133.5q0 -58 -16.5 -122t-52.5 -118t-93 -89t-138 -35zM291 66q45 0 80.5 26t60 66.5t37.5 89.5t13 95q0 51 -22 81t-76 30q-45 0 -80.5 -26t-60 -66.5t-37.5 -89.5 t-13 -95q0 -51 22 -81t76 -30zM493 711l-151 -129l-39 45l139 149zM661 709l-151 -127l-39 43l139 149z" glyph-name="ohungarumlaut" horiz-adv-x="555" unicode="ő"/><glyph d="M423 700q111 0 176 -45t65 -132q0 -88 -51.5 -147.5t-144.5 -85.5q12 -21 28 -53.5t33 -72t33 -82t28 -82.5h-99l-29 77t-30.5 75t-31 67.5t-28.5 55.5q-13 -1 -26 -1.5t-26 -0.5h-77l-65 -273h-97l164 684q42 10 89 13t89 3zM411 618q-71 0 -86 -4l-63 -262h59 q41 0 84 6t78.5 23.5t58 49t22.5 83.5q0 56 -42.5 80t-110.5 24zM594 864l-169 -128l-40 49l158 151z" glyph-name="Racute" horiz-adv-x="609" unicode="Ŕ"/><glyph d="M374 531q12 0 27 -1t29.5 -3.5t26.5 -5t18 -5.5l-27 -81q-20 8 -46 12t-50 4q-21 0 -41.5 -3t-35.5 -8l-106 -440h-93l120 500q40 14 86 22.5t92 8.5zM496 708l-169 -128l-40 49l158 151z" glyph-name="racute" horiz-adv-x="372" unicode="ŕ"/><glyph d="M423 700q111 0 176 -45t65 -132q0 -88 -51.5 -147.5t-144.5 -85.5q12 -21 28 -53.5t33 -72t33 -82t28 -82.5h-99l-29 77t-30.5 75t-31 67.5t-28.5 55.5q-13 -1 -26 -1.5t-26 -0.5h-77l-65 -273h-97l164 684q42 10 89 13t89 3zM411 618q-71 0 -86 -4l-63 -262h59 q41 0 84 6t78.5 23.5t58 49t22.5 83.5q0 56 -42.5 80t-110.5 24zM366 -50q-5 -29 -14 -54t-25.5 -43.5t-40.5 -29t-59 -10.5q-11 0 -22.5 1.5t-18.5 3.5l14 55q2 -1 6.5 -1h7.5q27 0 40.5 16t24.5 62h87z" glyph-name="Rcommaaccent" horiz-adv-x="609" unicode="Ŗ"/><glyph d="M374 531q12 0 27 -1t29.5 -3.5t26.5 -5t18 -5.5l-27 -81q-20 8 -46 12t-50 4q-21 0 -41.5 -3t-35.5 -8l-106 -440h-93l120 500q40 14 86 22.5t92 8.5zM156 -50q-5 -29 -14 -54t-25.5 -43.5t-40.5 -29t-59 -10.5q-11 0 -22.5 1.5t-18.5 3.5l14 55q2 -1 6.5 -1h7.5 q27 0 40.5 16t24.5 62h87z" glyph-name="rcommaaccent" horiz-adv-x="372" unicode="ŗ"/><glyph d="M423 700q111 0 176 -45t65 -132q0 -88 -51.5 -147.5t-144.5 -85.5q12 -21 28 -53.5t33 -72t33 -82t28 -82.5h-99l-29 77t-30.5 75t-31 67.5t-28.5 55.5q-13 -1 -26 -1.5t-26 -0.5h-77l-65 -273h-97l164 684q42 10 89 13t89 3zM411 618q-71 0 -86 -4l-63 -262h59 q41 0 84 6t78.5 23.5t58 49t22.5 83.5q0 56 -42.5 80t-110.5 24zM476 843l112 82l33 -45l-162 -139l-106 148l44 41z" glyph-name="Rcaron" horiz-adv-x="609" unicode="Ř"/><glyph d="M374 531q12 0 27 -1t29.5 -3.5t26.5 -5t18 -5.5l-27 -81q-20 8 -46 12t-50 4q-21 0 -41.5 -3t-35.5 -8l-106 -440h-93l120 500q40 14 86 22.5t92 8.5zM378 687l112 82l33 -45l-162 -139l-106 148l44 41z" glyph-name="rcaron" horiz-adv-x="372" unicode="ř"/><glyph d="M246 69q31 0 61.5 6.5t54.5 21.5t39 39.5t15 60.5q0 25 -9.5 43.5t-26 33t-39 27l-49.5 26.5q-23 12 -46.5 26t-42 34.5t-30 48.5t-11.5 67q0 45 17.5 83t51.5 65.5t83.5 42.5t113.5 15q30 0 57 -4.5t49.5 -11.5t39.5 -14.5t25 -13.5l-45 -76q-17 14 -54.5 25.5 t-88.5 11.5q-32 0 -59.5 -6.5t-47.5 -20.5t-32 -35.5t-12 -51.5q0 -26 8 -43.5t22 -31t34.5 -24.5l44.5 -23q30 -15 56.5 -30.5t46.5 -36.5t31.5 -49t11.5 -68q0 -55 -21.5 -96.5t-59 -69t-89 -41.5t-111.5 -14q-40 0 -72.5 5.5t-57 13.5t-41.5 16.5t-26 15.5l45 79 q19 -13 60 -29.5t104 -16.5zM566 864l-169 -128l-40 49l158 151z" glyph-name="Sacute" horiz-adv-x="517" unicode="Ś"/><glyph d="M206 65q21 0 42.5 4t38 13t27 24.5t10.5 38.5q0 15 -5 26.5t-16 21.5t-27.5 19.5t-39.5 21.5q-23 11 -42 22t-33.5 26t-22.5 35.5t-8 49.5q0 75 54 120.5t157 45.5q48 0 84.5 -9.5t50.5 -17.5l-35 -76q-14 8 -45 17t-69 9q-19 0 -38 -4t-34.5 -13.5t-25 -25t-9.5 -37.5 q0 -27 21 -44.5t63 -36.5q26 -12 46.5 -24.5t35 -28t22 -36.5t7.5 -50q0 -42 -16 -74t-44.5 -53t-67.5 -31.5t-85 -10.5q-34 0 -61.5 4.5t-48 10.5t-34 12.5t-20.5 10.5l36 76q7 -4 19.5 -10t30 -12t38.5 -10t44 -4zM489 708l-169 -128l-40 49l158 151z" glyph-name="sacute" horiz-adv-x="412" unicode="ś"/><glyph d="M246 69q31 0 61.5 6.5t54.5 21.5t39 39.5t15 60.5q0 25 -9.5 43.5t-26 33t-39 27l-49.5 26.5q-23 12 -46.5 26t-42 34.5t-30 48.5t-11.5 67q0 45 17.5 83t51.5 65.5t83.5 42.5t113.5 15q30 0 57 -4.5t49.5 -11.5t39.5 -14.5t25 -13.5l-45 -76q-17 14 -54.5 25.5 t-88.5 11.5q-32 0 -59.5 -6.5t-47.5 -20.5t-32 -35.5t-12 -51.5q0 -26 8 -43.5t22 -31t34.5 -24.5l44.5 -23q30 -15 56.5 -30.5t46.5 -36.5t31.5 -49t11.5 -68q0 -55 -21.5 -96.5t-59 -69t-89 -41.5t-111.5 -14q-40 0 -72.5 5.5t-57 13.5t-41.5 16.5t-26 15.5l45 79 q19 -13 60 -29.5t104 -16.5zM451 823l-112 -82l-33 45l162 139l106 -148l-44 -41z" glyph-name="Scircumflex" horiz-adv-x="517" unicode="Ŝ"/><glyph d="M206 65q21 0 42.5 4t38 13t27 24.5t10.5 38.5q0 15 -5 26.5t-16 21.5t-27.5 19.5t-39.5 21.5q-23 11 -42 22t-33.5 26t-22.5 35.5t-8 49.5q0 75 54 120.5t157 45.5q48 0 84.5 -9.5t50.5 -17.5l-35 -76q-14 8 -45 17t-69 9q-19 0 -38 -4t-34.5 -13.5t-25 -25t-9.5 -37.5 q0 -27 21 -44.5t63 -36.5q26 -12 46.5 -24.5t35 -28t22 -36.5t7.5 -50q0 -42 -16 -74t-44.5 -53t-67.5 -31.5t-85 -10.5q-34 0 -61.5 4.5t-48 10.5t-34 12.5t-20.5 10.5l36 76q7 -4 19.5 -10t30 -12t38.5 -10t44 -4zM373 667l-112 -82l-33 45l162 139l106 -148l-44 -41z" glyph-name="scircumflex" horiz-adv-x="412" unicode="ŝ"/><glyph d="M256 -38q20 -11 30 -24t10 -36q0 -45 -31 -68t-85 -23q-29 0 -48.5 4.5t-32.5 10.5l23 55q8 -4 21 -7.5t32 -3.5q17 0 28 5.5t11 19.5q0 12 -8 18t-27 15l-6 3q13 25 37 55q-70 3 -113 20t-60 30l45 79q19 -13 60 -29.5t104 -16.5q31 0 61.5 6.5t54.5 21.5t39 39.5 t15 60.5q0 25 -9.5 43.5t-26 33t-39 27l-49.5 26.5q-23 12 -46.5 26t-42 34.5t-30 48.5t-11.5 67q0 45 17.5 83t51.5 65.5t83.5 42.5t113.5 15q30 0 57 -4.5t49.5 -11.5t39.5 -14.5t25 -13.5l-45 -76q-17 14 -54.5 25.5t-88.5 11.5q-32 0 -59.5 -6.5t-47.5 -20.5t-32 -35.5 t-12 -51.5q0 -26 8 -43.5t22 -31t34.5 -24.5l44.5 -23q30 -15 56.5 -30.5t46.5 -36.5t31.5 -49t11.5 -68q0 -50 -18 -89t-50.5 -66.5t-77 -43.5t-96.5 -20l-9 -13z" glyph-name="Scedilla" horiz-adv-x="517" unicode="Ş"/><glyph d="M215 -38q20 -11 30 -24t10 -36q0 -45 -31 -68t-85 -23q-29 0 -48.5 4.5t-32.5 10.5l23 55q8 -4 21 -7.5t32 -3.5q17 0 28 5.5t11 19.5q0 12 -8 18t-27 15l-6 3q6 11 17 27.5l21 30.5q-54 4 -87.5 16t-44.5 20l36 76q7 -4 19.5 -10t30 -12t38.5 -10t44 -4q21 0 42.5 4 t38 13t27 24.5t10.5 38.5q0 15 -5 26.5t-16 21.5t-27.5 19.5t-39.5 21.5q-23 11 -42 22t-33.5 26t-22.5 35.5t-8 49.5q0 75 54 120.5t157 45.5q48 0 84.5 -9.5t50.5 -17.5l-35 -76q-14 8 -45 17t-69 9q-19 0 -38 -4t-34.5 -13.5t-25 -25t-9.5 -37.5q0 -27 21 -44.5t63 -36.5 q26 -12 46.5 -24.5t35 -28t22 -36.5t7.5 -50q0 -38 -13.5 -68t-37.5 -51t-57.5 -33.5t-73.5 -15.5q-11 -14 -18 -26z" glyph-name="scedilla" horiz-adv-x="412" unicode="ş"/><glyph d="M699 693l-19 -81h-209l-147 -612h-11q-8 -10 -15 -20t-12 -18q20 -11 30 -24t10 -36q0 -45 -31 -68t-85 -23q-29 0 -48.5 4.5t-32.5 10.5l23 55q8 -4 21 -7.5t32 -3.5q17 0 28 5.5t11 19.5q0 12 -8 18t-27 15l-6 3q8 14 21.5 34l24.5 35h-22l147 612h-209l19 81h515z" glyph-name="uni0162" horiz-adv-x="555" unicode="Ţ"/><glyph d="M273 -13l-9 -13l-8 -12q20 -11 30 -24t10 -36q0 -45 -31 -68t-85 -23q-29 0 -48.5 4.5t-32.5 10.5l23 55q8 -4 21 -7.5t32 -3.5q17 0 28 5.5t11 19.5q0 12 -8 18t-27 15l-6 3q6 12 16.5 28.5t21.5 30.5q-102 16 -102 125q0 41 14 105l107 445l97 16l-39 -161h177l-19 -78 h-177l-55 -230q-12 -47 -12 -82q0 -33 18 -47.5t60 -14.5q29 0 57 9.5t43 17.5l7 -79q-14 -8 -44.5 -17.5t-69.5 -11.5z" glyph-name="uni0163" horiz-adv-x="389" unicode="ţ"/><glyph d="M699 693l-19 -81h-209l-147 -612h-97l147 612h-209l19 81h515zM470 843l112 82l33 -45l-162 -139l-106 148l44 41z" glyph-name="Tcaron" horiz-adv-x="555" unicode="Ť"/><glyph d="M254 -14q-75 0 -110 33t-35 96q0 41 14 105l107 445l97 16l-39 -161h177l-19 -78h-177l-55 -230q-12 -47 -12 -82q0 -33 18 -47.5t60 -14.5q29 0 57 9.5t43 17.5l7 -79q-15 -9 -51 -19.5t-82 -10.5zM511 776l-74 -194h-65l47 194h92z" glyph-name="tcaron" horiz-adv-x="389" unicode="ť"/><glyph d="M699 693l-19 -81h-209l-53 -219h126l-18 -75h-126l-76 -318h-97l76 318h-123l18 75h123l53 219h-209l19 81h515z" glyph-name="Tbar" horiz-adv-x="555" unicode="Ŧ"/><glyph d="M254 -14q-75 0 -110 33t-35 96q0 41 14 105l107 445l97 16l-39 -161h177l-19 -78h-177l-33 -136h177l-17 -70h-176l-6 -24q-12 -47 -12 -82q0 -33 18 -47.5t60 -14.5q29 0 57 9.5t43 17.5l7 -79q-15 -9 -51 -19.5t-82 -10.5z" glyph-name="tbar" horiz-adv-x="389" unicode="ŧ"/><glyph d="M334 -15q-52 0 -90 15.5t-63 42t-37 63t-12 78.5q0 22 4 49t9 50l98 410h97l-100 -416q-5 -19 -8 -42t-3 -43q0 -26 6 -48t20.5 -38.5t37.5 -26t56 -9.5q85 0 132 47.5t71 151.5l102 424h97l-104 -435q-14 -57 -32.5 -107t-52.5 -86.5t-88.5 -58t-139.5 -21.5zM539 863 q15 -8 27 -13t24 -5q21 0 35 15.5t25 32.5l47 -29q-20 -42 -47.5 -64.5t-72.5 -22.5q-20 0 -35.5 7t-29.5 15q-15 8 -27 13t-24 5q-21 0 -35 -15.5t-25 -32.5l-47 29q20 42 47.5 64.5t72.5 22.5q20 0 35.5 -7t29.5 -15z" glyph-name="Utilde" horiz-adv-x="666" unicode="Ũ"/><glyph d="M266 -13q-44 0 -73.5 13t-48 35t-26.5 52t-8 64q0 26 4.5 51.5t10.5 51.5l64 266h93l-59 -246q-5 -23 -13 -54t-8 -62q0 -18 3.5 -34.5t13 -29t25.5 -20t40 -7.5q43 0 75.5 18.5t54.5 43.5q1 16 3 33t7 37l77 321h93l-79 -329q-5 -23 -8.5 -44.5t-3.5 -44.5t4 -46t14 -50 l-82 -12q-5 11 -10 25t-8 30q-11 -10 -26 -21t-34.5 -20t-43 -15t-51.5 -6zM443 707q15 -8 27 -13t24 -5q21 0 35 15.5t25 32.5l47 -29q-20 -42 -47.5 -64.5t-72.5 -22.5q-20 0 -35.5 7t-29.5 15q-15 8 -27 13t-24 5q-21 0 -35 -15.5t-25 -32.5l-47 29q20 42 47.5 64.5 t72.5 22.5q20 0 35.5 -7t29.5 -15z" glyph-name="utilde" horiz-adv-x="550" unicode="ũ"/><glyph d="M334 -15q-52 0 -90 15.5t-63 42t-37 63t-12 78.5q0 22 4 49t9 50l98 410h97l-100 -416q-5 -19 -8 -42t-3 -43q0 -26 6 -48t20.5 -38.5t37.5 -26t56 -9.5q85 0 132 47.5t71 151.5l102 424h97l-104 -435q-14 -57 -32.5 -107t-52.5 -86.5t-88.5 -58t-139.5 -21.5zM394 867 h280l-17 -72h-280z" glyph-name="Umacron" horiz-adv-x="666" unicode="Ū"/><glyph d="M266 -13q-44 0 -73.5 13t-48 35t-26.5 52t-8 64q0 26 4.5 51.5t10.5 51.5l64 266h93l-59 -246q-5 -23 -13 -54t-8 -62q0 -18 3.5 -34.5t13 -29t25.5 -20t40 -7.5q43 0 75.5 18.5t54.5 43.5q1 16 3 33t7 37l77 321h93l-79 -329q-5 -23 -8.5 -44.5t-3.5 -44.5t4 -46t14 -50 l-82 -12q-5 11 -10 25t-8 30q-11 -10 -26 -21t-34.5 -20t-43 -15t-51.5 -6zM298 711h280l-17 -72h-280z" glyph-name="umacron" horiz-adv-x="550" unicode="ū"/><glyph d="M334 -15q-52 0 -90 15.5t-63 42t-37 63t-12 78.5q0 22 4 49t9 50l98 410h97l-100 -416q-5 -19 -8 -42t-3 -43q0 -26 6 -48t20.5 -38.5t37.5 -26t56 -9.5q85 0 132 47.5t71 151.5l102 424h97l-104 -435q-14 -57 -32.5 -107t-52.5 -86.5t-88.5 -58t-139.5 -21.5zM522 766 q-30 0 -52 9t-35.5 24t-20 34.5t-6.5 40.5q0 16 3 31h58q-1 -3 -1 -12q0 -29 16 -45.5t46 -16.5q21 0 36 7.5t25 18.5t15.5 24t8.5 24h62q-9 -66 -50 -102.5t-105 -36.5z" glyph-name="Ubreve" horiz-adv-x="666" unicode="Ŭ"/><glyph d="M266 -13q-44 0 -73.5 13t-48 35t-26.5 52t-8 64q0 26 4.5 51.5t10.5 51.5l64 266h93l-59 -246q-5 -23 -13 -54t-8 -62q0 -18 3.5 -34.5t13 -29t25.5 -20t40 -7.5q43 0 75.5 18.5t54.5 43.5q1 16 3 33t7 37l77 321h93l-79 -329q-5 -23 -8.5 -44.5t-3.5 -44.5t4 -46t14 -50 l-82 -12q-5 11 -10 25t-8 30q-11 -10 -26 -21t-34.5 -20t-43 -15t-51.5 -6zM425 610q-30 0 -52 9t-35.5 24t-20 34.5t-6.5 40.5q0 16 3 31h58q-1 -3 -1 -12q0 -29 16 -45.5t46 -16.5q21 0 36 7.5t25 18.5t15.5 24t8.5 24h62q-9 -66 -50 -102.5t-105 -36.5z" glyph-name="ubreve" horiz-adv-x="550" unicode="ŭ"/><glyph d="M334 -15q-52 0 -90 15.5t-63 42t-37 63t-12 78.5q0 22 4 49t9 50l98 410h97l-100 -416q-5 -19 -8 -42t-3 -43q0 -26 6 -48t20.5 -38.5t37.5 -26t56 -9.5q85 0 132 47.5t71 151.5l102 424h97l-104 -435q-14 -57 -32.5 -107t-52.5 -86.5t-88.5 -58t-139.5 -21.5zM616 833 q0 -24 -8.5 -42.5t-22.5 -32t-32.5 -20.5t-39.5 -7t-39.5 7t-32.5 20.5t-22.5 32t-8.5 42.5t8.5 42.5t22.5 32t32.5 20.5t39.5 7t39.5 -7t32.5 -20.5t22.5 -32t8.5 -42.5zM566 833q0 26 -15.5 40.5t-37.5 14.5t-37.5 -14.5t-15.5 -40.5t15.5 -40.5t37.5 -14.5t37.5 14.5 t15.5 40.5z" glyph-name="Uring" horiz-adv-x="666" unicode="Ů"/><glyph d="M266 -13q-44 0 -73.5 13t-48 35t-26.5 52t-8 64q0 26 4.5 51.5t10.5 51.5l64 266h93l-59 -246q-5 -23 -13 -54t-8 -62q0 -18 3.5 -34.5t13 -29t25.5 -20t40 -7.5q43 0 75.5 18.5t54.5 43.5q1 16 3 33t7 37l77 321h93l-79 -329q-5 -23 -8.5 -44.5t-3.5 -44.5t4 -46t14 -50 l-82 -12q-5 11 -10 25t-8 30q-11 -10 -26 -21t-34.5 -20t-43 -15t-51.5 -6zM518 677q0 -24 -8.5 -42.5t-22.5 -32t-32.5 -20.5t-39.5 -7t-39.5 7t-32.5 20.5t-22.5 32t-8.5 42.5t8.5 42.5t22.5 32t32.5 20.5t39.5 7t39.5 -7t32.5 -20.5t22.5 -32t8.5 -42.5zM468 677 q0 26 -15.5 40.5t-37.5 14.5t-37.5 -14.5t-15.5 -40.5t15.5 -40.5t37.5 -14.5t37.5 14.5t15.5 40.5z" glyph-name="uring" horiz-adv-x="550" unicode="ů"/><glyph d="M334 -15q-52 0 -90 15.5t-63 42t-37 63t-12 78.5q0 22 4 49t9 50l98 410h97l-100 -416q-5 -19 -8 -42t-3 -43q0 -26 6 -48t20.5 -38.5t37.5 -26t56 -9.5q85 0 132 47.5t71 151.5l102 424h97l-104 -435q-14 -57 -32.5 -107t-52.5 -86.5t-88.5 -58t-139.5 -21.5zM581 867 l-151 -129l-39 45l139 149zM749 865l-151 -127l-39 43l139 149z" glyph-name="Uhungarumlaut" horiz-adv-x="666" unicode="Ű"/><glyph d="M266 -13q-44 0 -73.5 13t-48 35t-26.5 52t-8 64q0 26 4.5 51.5t10.5 51.5l64 266h93l-59 -246q-5 -23 -13 -54t-8 -62q0 -18 3.5 -34.5t13 -29t25.5 -20t40 -7.5q43 0 75.5 18.5t54.5 43.5q1 16 3 33t7 37l77 321h93l-79 -329q-5 -23 -8.5 -44.5t-3.5 -44.5t4 -46t14 -50 l-82 -12q-5 11 -10 25t-8 30q-11 -10 -26 -21t-34.5 -20t-43 -15t-51.5 -6zM484 711l-151 -129l-39 45l139 149zM652 709l-151 -127l-39 43l139 149z" glyph-name="uhungarumlaut" horiz-adv-x="550" unicode="ű"/><glyph d="M381 -187q-55 0 -77 17.5t-22 45.5q0 27 18 52t42 45q4 3 9.5 7.5t9.5 6.5q-6 -1 -13.5 -1h-13.5q-52 0 -90 15t-63 42t-37 63t-12 78q0 22 4 49t9 50l98 410h97l-100 -416q-5 -19 -8 -42t-3 -43q0 -26 6 -48t20.5 -38.5t37.5 -26t56 -9.5q85 0 132 47.5t71 151.5 l102 424h97l-104 -435q-10 -41 -22 -78t-29.5 -68.5t-42.5 -56t-61 -41.5q-18 -8 -38 -22.5t-38 -29.5q-13 -11 -29.5 -27.5t-16.5 -35.5q0 -10 8.5 -16t28.5 -6q10 0 20.5 2t19.5 5l-8 -60q-24 -11 -58 -11z" glyph-name="Uogonek" horiz-adv-x="666" unicode="Ų"/><glyph d="M503 103q0 -23 4 -47t17 -56q-12 -9 -22 -17.5l-22 -18.5l-14 -12t-15.5 -15.5t-12.5 -18t-5 -19.5t8.5 -16t28.5 -6q10 0 20.5 2t19.5 5l-8 -60q-24 -11 -58 -11q-55 0 -77 17.5t-22 45.5q0 27 18 52t42 45q8 7 17 13.5l16 11.5q-11 24 -17 51q-11 -10 -26 -21 t-34.5 -20t-43 -15t-51.5 -6q-44 0 -73.5 13t-48 35t-26.5 52t-8 64q0 26 4.5 51.5t10.5 51.5l64 266h93l-59 -246q-5 -23 -13 -54t-8 -62q0 -18 3.5 -34.5t13 -29t25.5 -20t40 -7.5q43 0 75.5 18.5t54.5 43.5q1 16 3 33t7 37l77 321h93l-79 -329q-5 -23 -8.5 -44t-3.5 -44z" glyph-name="uogonek" horiz-adv-x="550" unicode="ų"/><glyph d="M637 609q8 -134 22.5 -260t28.5 -225q30 56 62.5 123l65 140.5l65 151l62.5 154.5h103q-80 -198 -159.5 -369t-167.5 -324h-98q-17 106 -33 218.5t-26 245.5l-133.5 -236.5t-139.5 -227.5h-98q-8 81 -11 162t-3 168t3 175.5t9 187.5h96q-7 -105 -11 -207.5t-4 -208.5 q0 -77 3 -153q69 106 137.5 229l137.5 256h89zM647 823l-112 -82l-33 45l162 139l106 -148l-44 -41z" glyph-name="Wcircumflex" horiz-adv-x="916" unicode="Ŵ"/><glyph d="M573 108q25 31 56 81.5t61 108t56 116t40 106.5h95q-22 -69 -56 -142t-73.5 -141.5t-82 -129.5t-81.5 -107h-83q-11 87 -19.5 175t-10.5 179q-20 -45 -45 -93t-53 -94.5l-56 -89.5t-54 -77h-83q-21 103 -34 234.5t-15 285.5h93q1 -47 3 -102t5 -110.5t7 -107.5t10 -92 q31 43 61.5 95t58 106t51 108t40.5 103h84q0 -45 1.5 -96.5t5 -105.5t8 -107.5t10.5 -102.5zM543 667l-112 -82l-33 45l162 139l106 -148l-44 -41z" glyph-name="wcircumflex" horiz-adv-x="787" unicode="ŵ"/><glyph d="M232 0l66 278q-39 105 -72.5 210.5t-61.5 204.5h105q19 -81 42.5 -165t52.5 -162l133.5 162t119.5 165h111l-157 -204.5l-176 -210.5l-66 -278h-97zM475 823l-112 -82l-33 45l162 139l106 -148l-44 -41z" glyph-name="Ycircumflex" horiz-adv-x="572" unicode="Ŷ"/><glyph d="M281 84q38 60 69 124.5t54.5 123.5t39.5 108.5t23 79.5h97q-11 -38 -31 -94.5t-48.5 -122t-64 -134t-77.5 -131.5q-32 -47 -64 -88.5t-68.5 -72t-80.5 -48t-99 -17.5q-28 0 -52 7t-35 15l32 76q10 -8 27 -13.5t38 -5.5q58 0 98.5 28t76.5 74q-37 121 -60.5 255t-28.5 272 h95q1 -45 5 -98.5t11.5 -111t18 -115.5t24.5 -111zM378 667l-112 -82l-33 45l162 139l106 -148l-44 -41z" glyph-name="ycircumflex" horiz-adv-x="478" unicode="ŷ"/><glyph d="M666 616l-66 -62l-82 -81.5l-90.5 -94l-92.5 -101l-88 -101.5t-76 -95h374l-19 -81h-491l15 65q29 39 67 85.5l81 97l89 101.5l91 99l87 90l77 74h-343l19 81h466zM592 864l-169 -128l-40 49l158 151z" glyph-name="Zacute" horiz-adv-x="561" unicode="Ź"/><glyph d="M524 453l-78.5 -73.5l-103.5 -102l-103.5 -108t-78.5 -91.5h279l-18 -78h-388l14 60q30 44 76 97.5l95.5 106.5l97.5 100t84 78h-249l18 78h371zM495 708l-169 -128l-40 49l158 151z" glyph-name="zacute" horiz-adv-x="454" unicode="ź"/><glyph d="M666 616l-66 -62l-82 -81.5l-90.5 -94l-92.5 -101l-88 -101.5t-76 -95h374l-19 -81h-491l15 65q29 39 67 85.5l81 97l89 101.5l91 99l87 90l77 74h-343l19 81h466zM472 770q-23 0 -38.5 14t-15.5 39q0 32 20 50.5t45 18.5q23 0 39 -14.5t16 -40.5q0 -30 -21 -48.5 t-45 -18.5z" glyph-name="Zdotaccent" horiz-adv-x="561" unicode="Ż"/><glyph d="M524 453l-78.5 -73.5l-103.5 -102l-103.5 -108t-78.5 -91.5h279l-18 -78h-388l14 60q30 44 76 97.5l95.5 106.5l97.5 100t84 78h-249l18 78h371zM375 614q-23 0 -38.5 14t-15.5 39q0 32 20 50.5t45 18.5q23 0 39 -14.5t16 -40.5q0 -30 -21 -48.5t-45 -18.5z" glyph-name="zdotaccent" horiz-adv-x="454" unicode="ż"/><glyph d="M666 616l-66 -62l-82 -81.5l-90.5 -94l-92.5 -101l-88 -101.5t-76 -95h374l-19 -81h-491l15 65q29 39 67 85.5l81 97l89 101.5l91 99l87 90l77 74h-343l19 81h466zM474 843l112 82l33 -45l-162 -139l-106 148l44 41z" glyph-name="Zcaron" horiz-adv-x="561" unicode="Ž"/><glyph d="M524 453l-78.5 -73.5l-103.5 -102l-103.5 -108t-78.5 -91.5h279l-18 -78h-388l14 60q30 44 76 97.5l95.5 106.5l97.5 100t84 78h-249l18 78h371zM377 687l112 82l33 -45l-162 -139l-106 148l44 41z" glyph-name="zcaron" horiz-adv-x="454" unicode="ž"/><glyph d="M212 567q12 50 30.5 89t47 65.5t67.5 40.5t93 14q35 0 66.5 -7t47.5 -15l-37 -74q-8 4 -27.5 10t-57.5 6q-33 0 -56 -9.5t-39 -26.5t-25.5 -41t-16.5 -54l-109 -453l-21 -91t-21.5 -75t-33 -67.5t-55.5 -67.5l-82 12q30 39 47 66t28.5 55t20 64.5l22.5 94.5z" glyph-name="longs" horiz-adv-x="285" unicode="ſ"/><glyph d="M246 69q31 0 61.5 6.5t54.5 21.5t39 39.5t15 60.5q0 25 -9.5 43.5t-26 33t-39 27l-49.5 26.5q-23 12 -46.5 26t-42 34.5t-30 48.5t-11.5 67q0 45 17.5 83t51.5 65.5t83.5 42.5t113.5 15q30 0 57 -4.5t49.5 -11.5t39.5 -14.5t25 -13.5l-45 -76q-17 14 -54.5 25.5 t-88.5 11.5q-32 0 -59.5 -6.5t-47.5 -20.5t-32 -35.5t-12 -51.5q0 -26 8 -43.5t22 -31t34.5 -24.5l44.5 -23q30 -15 56.5 -30.5t46.5 -36.5t31.5 -49t11.5 -68q0 -55 -21.5 -96.5t-59 -69t-89 -41.5t-111.5 -14q-40 0 -72.5 5.5t-57 13.5t-41.5 16.5t-26 15.5l45 79 q19 -13 60 -29.5t104 -16.5zM285 -50q-5 -29 -14 -54t-25.5 -43.5t-40.5 -29t-59 -10.5q-11 0 -22.5 1.5t-18.5 3.5l14 55q2 -1 6.5 -1h7.5q27 0 40.5 16t24.5 62h87z" glyph-name="Scommaaccent" horiz-adv-x="517" unicode="Ș"/><glyph d="M206 65q21 0 42.5 4t38 13t27 24.5t10.5 38.5q0 15 -5 26.5t-16 21.5t-27.5 19.5t-39.5 21.5q-23 11 -42 22t-33.5 26t-22.5 35.5t-8 49.5q0 75 54 120.5t157 45.5q48 0 84.5 -9.5t50.5 -17.5l-35 -76q-14 8 -45 17t-69 9q-19 0 -38 -4t-34.5 -13.5t-25 -25t-9.5 -37.5 q0 -27 21 -44.5t63 -36.5q26 -12 46.5 -24.5t35 -28t22 -36.5t7.5 -50q0 -42 -16 -74t-44.5 -53t-67.5 -31.5t-85 -10.5q-34 0 -61.5 4.5t-48 10.5t-34 12.5t-20.5 10.5l36 76q7 -4 19.5 -10t30 -12t38.5 -10t44 -4zM245 -50q-5 -29 -14 -54t-25.5 -43.5t-40.5 -29 t-59 -10.5q-11 0 -22.5 1.5t-18.5 3.5l14 55q2 -1 6.5 -1h7.5q27 0 40.5 16t24.5 62h87z" glyph-name="scommaaccent" horiz-adv-x="412" unicode="ș"/><glyph d="M699 693l-19 -81h-209l-147 -612h-97l147 612h-209l19 81h515zM308 -50q-5 -29 -14 -54t-25.5 -43.5t-40.5 -29t-59 -10.5q-11 0 -22.5 1.5t-18.5 3.5l14 55q2 -1 6.5 -1h7.5q27 0 40.5 16t24.5 62h87z" glyph-name="uni021A" horiz-adv-x="555" unicode="Ț"/><glyph d="M254 -14q-75 0 -110 33t-35 96q0 41 14 105l107 445l97 16l-39 -161h177l-19 -78h-177l-55 -230q-12 -47 -12 -82q0 -33 18 -47.5t60 -14.5q29 0 57 9.5t43 17.5l7 -79q-15 -9 -51 -19.5t-82 -10.5zM269 -50q-5 -29 -14 -54t-25.5 -43.5t-40.5 -29t-59 -10.5 q-11 0 -22.5 1.5t-18.5 3.5l14 55q2 -1 6.5 -1h7.5q27 0 40.5 16t24.5 62h87z" glyph-name="uni021B" horiz-adv-x="389" unicode="ț"/><glyph d="M174 20q-14 -56 -30.5 -95.5t-41 -64.5t-58.5 -36.5t-83 -11.5q-17 0 -38.5 5t-33.5 13l21 77q11 -7 28 -11t37 -4q45 0 68.5 35t37.5 92l120 501h93z" glyph-name="dotlessj" horiz-adv-x="249" unicode="ȷ"/><glyph d="M432 776q-14 -63 -44 -116t-64 -87l-59 22q30 48 47 90.5t24 90.5h96z" glyph-name="apostrophe" horiz-adv-x="378" unicode="ʼ"/><glyph d="M346 687l112 82l33 -45l-162 -139l-106 148l44 41z" glyph-name="caron" unicode="ˇ"/><glyph d="M218 711h280l-17 -72h-280z" glyph-name="uni02C9" unicode="ˉ"/><glyph d="M347 610q-30 0 -52 9t-35.5 24t-20 34.5t-6.5 40.5q0 16 3 31h58q-1 -3 -1 -12q0 -29 16 -45.5t46 -16.5q21 0 36 7.5t25 18.5t15.5 24t8.5 24h62q-9 -66 -50 -102.5t-105 -36.5z" glyph-name="breve" unicode="˘"/><glyph d="M321 614q-23 0 -38.5 14t-15.5 39q0 32 20 50.5t45 18.5q23 0 39 -14.5t16 -40.5q0 -30 -21 -48.5t-45 -18.5z" glyph-name="dotaccent" unicode="˙"/><glyph d="M432 677q0 -24 -8.5 -42.5t-22.5 -32t-32.5 -20.5t-39.5 -7t-39.5 7t-32.5 20.5t-22.5 32t-8.5 42.5t8.5 42.5t22.5 32t32.5 20.5t39.5 7t39.5 -7t32.5 -20.5t22.5 -32t8.5 -42.5zM382 677q0 26 -15.5 40.5t-37.5 14.5t-37.5 -14.5t-15.5 -40.5t15.5 -40.5t37.5 -14.5 t37.5 14.5t15.5 40.5z" glyph-name="ring" unicode="˚"/><glyph d="M146 -187q-55 0 -77 17.5t-22 45.5q0 27 18 52t42 45q15 13 27 21.5t20 13.5h92q-13 -8 -29.5 -19.5t-35.5 -27.5l-14 -11.5t-15 -14.5t-12 -17t-5 -19t8.5 -16t28.5 -6q10 0 20.5 2t19.5 5l-8 -60q-24 -11 -58 -11z" glyph-name="ogonek" unicode="˛"/><glyph d="M378 711l-151 -129l-39 45l139 149zM546 709l-151 -127l-39 43l139 149z" glyph-name="hungarumlaut" unicode="˝"/><glyph d="M637 609q8 -134 22.5 -260t28.5 -225q30 56 62.5 123l65 140.5l65 151l62.5 154.5h103q-80 -198 -159.5 -369t-167.5 -324h-98q-17 106 -33 218.5t-26 245.5l-133.5 -236.5t-139.5 -227.5h-98q-8 81 -11 162t-3 168t3 175.5t9 187.5h96q-7 -105 -11 -207.5t-4 -208.5 q0 -77 3 -153q69 106 137.5 229l137.5 256h89zM590 935l127 -160l-49 -43l-146 146z" glyph-name="Wgrave" horiz-adv-x="916" unicode="Ẁ"/><glyph d="M573 108q25 31 56 81.5t61 108t56 116t40 106.5h95q-22 -69 -56 -142t-73.5 -141.5t-82 -129.5t-81.5 -107h-83q-11 87 -19.5 175t-10.5 179q-20 -45 -45 -93t-53 -94.5l-56 -89.5t-54 -77h-83q-21 103 -34 234.5t-15 285.5h93q1 -47 3 -102t5 -110.5t7 -107.5t10 -92 q31 43 61.5 95t58 106t51 108t40.5 103h84q0 -45 1.5 -96.5t5 -105.5t8 -107.5t10.5 -102.5zM487 779l127 -160l-49 -43l-146 146z" glyph-name="wgrave" horiz-adv-x="787" unicode="ẁ"/><glyph d="M637 609q8 -134 22.5 -260t28.5 -225q30 56 62.5 123l65 140.5l65 151l62.5 154.5h103q-80 -198 -159.5 -369t-167.5 -324h-98q-17 106 -33 218.5t-26 245.5l-133.5 -236.5t-139.5 -227.5h-98q-8 81 -11 162t-3 168t3 175.5t9 187.5h96q-7 -105 -11 -207.5t-4 -208.5 q0 -77 3 -153q69 106 137.5 229l137.5 256h89zM762 864l-169 -128l-40 49l158 151z" glyph-name="Wacute" horiz-adv-x="916" unicode="Ẃ"/><glyph d="M573 108q25 31 56 81.5t61 108t56 116t40 106.5h95q-22 -69 -56 -142t-73.5 -141.5t-82 -129.5t-81.5 -107h-83q-11 87 -19.5 175t-10.5 179q-20 -45 -45 -93t-53 -94.5l-56 -89.5t-54 -77h-83q-21 103 -34 234.5t-15 285.5h93q1 -47 3 -102t5 -110.5t7 -107.5t10 -92 q31 43 61.5 95t58 106t51 108t40.5 103h84q0 -45 1.5 -96.5t5 -105.5t8 -107.5t10.5 -102.5zM659 708l-169 -128l-40 49l158 151z" glyph-name="wacute" horiz-adv-x="787" unicode="ẃ"/><glyph d="M637 609q8 -134 22.5 -260t28.5 -225q30 56 62.5 123l65 140.5l65 151l62.5 154.5h103q-80 -198 -159.5 -369t-167.5 -324h-98q-17 106 -33 218.5t-26 245.5l-133.5 -236.5t-139.5 -227.5h-98q-8 81 -11 162t-3 168t3 175.5t9 187.5h96q-7 -105 -11 -207.5t-4 -208.5 q0 -77 3 -153q69 106 137.5 229l137.5 256h89zM548 772q-22 0 -37 14t-15 37q0 30 20 48.5t43 18.5q22 0 37.5 -14.5t15.5 -38.5q0 -29 -20.5 -47t-43.5 -18zM738 772q-22 0 -37 14t-15 37q0 30 20 48.5t43 18.5q22 0 37.5 -14.5t15.5 -38.5q0 -29 -20.5 -47t-43.5 -18z" glyph-name="Wdieresis" horiz-adv-x="916" unicode="Ẅ"/><glyph d="M573 108q25 31 56 81.5t61 108t56 116t40 106.5h95q-22 -69 -56 -142t-73.5 -141.5t-82 -129.5t-81.5 -107h-83q-11 87 -19.5 175t-10.5 179q-20 -45 -45 -93t-53 -94.5l-56 -89.5t-54 -77h-83q-21 103 -34 234.5t-15 285.5h93q1 -47 3 -102t5 -110.5t7 -107.5t10 -92 q31 43 61.5 95t58 106t51 108t40.5 103h84q0 -45 1.5 -96.5t5 -105.5t8 -107.5t10.5 -102.5zM444 616q-22 0 -37 14t-15 37q0 30 20 48.5t43 18.5q22 0 37.5 -14.5t15.5 -38.5q0 -29 -20.5 -47t-43.5 -18zM634 616q-22 0 -37 14t-15 37q0 30 20 48.5t43 18.5 q22 0 37.5 -14.5t15.5 -38.5q0 -29 -20.5 -47t-43.5 -18z" glyph-name="wdieresis" horiz-adv-x="787" unicode="ẅ"/><glyph d="M232 0l66 278q-39 105 -72.5 210.5t-61.5 204.5h105q19 -81 42.5 -165t52.5 -162l133.5 162t119.5 165h111l-157 -204.5l-176 -210.5l-66 -278h-97zM418 935l127 -160l-49 -43l-146 146z" glyph-name="Ygrave" horiz-adv-x="572" unicode="Ỳ"/><glyph d="M281 84q38 60 69 124.5t54.5 123.5t39.5 108.5t23 79.5h97q-11 -38 -31 -94.5t-48.5 -122t-64 -134t-77.5 -131.5q-32 -47 -64 -88.5t-68.5 -72t-80.5 -48t-99 -17.5q-28 0 -52 7t-35 15l32 76q10 -8 27 -13.5t38 -5.5q58 0 98.5 28t76.5 74q-37 121 -60.5 255t-28.5 272 h95q1 -45 5 -98.5t11.5 -111t18 -115.5t24.5 -111zM322 779l127 -160l-49 -43l-146 146z" glyph-name="ygrave" horiz-adv-x="478" unicode="ỳ"/><glyph d="M-72 0h-95l549 693h95z" glyph-name="fraction" horiz-adv-x="148" unicode="⁄"/><glyph d="M265 307q-57 0 -90 32t-33 101q0 41 11.5 88t35 87.5t60 67t87.5 26.5q57 0 90 -32t33 -101q0 -41 -11.5 -88t-35 -87.5t-60 -67t-87.5 -26.5zM267 368q32 0 55 22.5t37.5 54.5t21.5 67.5t7 61.5q0 34 -11.5 54t-42.5 20q-32 0 -55 -22.5t-37.5 -54.5t-21.5 -67.5 t-7 -61.5q0 -34 11.5 -54t42.5 -20z" glyph-name="zerosuperior" horiz-adv-x="359" unicode="⁰"/><glyph d="M446 464l-14 -56h-50l-22 -93h-68l22 93h-185l11 46q16 27 43.5 59.5t61.5 66.5t71 65.5t72 55.5h65l-57 -237h50zM328 464l38 158l-40.5 -35t-42.5 -40t-40 -42t-33 -41h118z" glyph-name="foursuperior" horiz-adv-x="359" unicode="⁴"/><glyph d="M273 555q41 -5 69 -13.5t45.5 -22t25 -33t7.5 -44.5q0 -66 -50.5 -100.5t-131.5 -34.5q-40 0 -68.5 8t-48.5 19l27 56q17 -8 41.5 -15t50.5 -7q22 0 42 3t35 11t23.5 21.5t8.5 34.5q0 32 -34.5 48.5t-124.5 20.5q17 46 33.5 96t30.5 98h216l-15 -62h-153l-13.5 -42.5 t-15.5 -41.5z" glyph-name="fivesuperior" horiz-adv-x="359" unicode="⁵"/><glyph d="M149 428q0 64 23.5 115t65 86.5t99.5 54.5t127 19l-6 -60q-33 -1 -66 -6.5t-61.5 -17.5t-51 -31t-35.5 -46q21 9 43 13t38 4q31 0 51.5 -8t33 -22.5t18 -33t5.5 -39.5q0 -29 -11 -56t-32 -47.5t-51.5 -33t-68.5 -12.5q-60 0 -90.5 35t-30.5 86zM305 503q-20 0 -43.5 -4.5 t-38.5 -11.5q-8 -27 -8 -45q0 -39 14.5 -58t47.5 -19q43 0 65 26.5t22 59.5q0 52 -59 52z" glyph-name="sixsuperior" horiz-adv-x="359" unicode="⁶"/><glyph d="M168 315q14 42 38 87.5t53.5 89t62.5 81t66 64.5h-199l16 64h286l-13 -55q-26 -21 -59 -56.5t-66 -80t-61.5 -94.5t-44.5 -100h-79z" glyph-name="sevensuperior" horiz-adv-x="359" unicode="⁷"/><glyph d="M257 307q-34 0 -57 8t-37.5 21t-20.5 29t-6 32q0 44 26.5 73t60.5 47q-14 11 -24 26.5t-10 44.5q0 27 11.5 49t31.5 38t47 25t59 9q33 0 55 -8t35.5 -21t19.5 -28.5t6 -31.5q0 -21 -7 -37.5t-18 -30t-25 -23.5t-28 -18q20 -11 32 -29.5t12 -44.5q0 -32 -13 -56 t-35.5 -40.5t-52 -25t-62.5 -8.5zM204 408q0 -15 11.5 -29.5t49.5 -14.5q35 0 61 16t26 48q0 23 -22.5 36t-64.5 25q-25 -12 -43 -33.5t-18 -47.5zM388 612q0 13 -11.5 26.5t-43.5 13.5t-55 -16t-23 -42q0 -18 14.5 -32t56.5 -27q23 12 42.5 31.5t19.5 45.5z" glyph-name="eightsuperior" horiz-adv-x="359" unicode="⁸"/><glyph d="M455 588q0 -63 -22 -114t-61.5 -86.5t-93.5 -54.5t-118 -19q-7 0 -15.5 0.5t-12.5 1.5l12 59q3 -1 9 -1h8q33 0 63 5.5t56 17t46.5 30t32.5 45.5q-20 -8 -42 -11.5t-38 -3.5q-32 0 -52.5 8t-33 22t-17.5 32t-5 38q0 30 11 57.5t32 48.5t51.5 33.5t68.5 12.5 q60 0 90.5 -35t30.5 -86zM299 514q20 0 42 4t40 11q8 27 8 45q0 39 -14.5 58t-47.5 19q-42 0 -64.5 -27t-22.5 -64q0 -46 59 -46z" glyph-name="ninesuperior" horiz-adv-x="359" unicode="⁹"/><glyph d="M191 -6q-57 0 -90 32t-33 101q0 41 11.5 88t35 87.5t60 67t87.5 26.5q57 0 90 -32t33 -101q0 -41 -11.5 -88t-35 -87.5t-60 -67t-87.5 -26.5zM193 55q32 0 55 22.5t37.5 54.5t21.5 67.5t7 61.5q0 34 -11.5 54t-42.5 20q-32 0 -55 -22.5t-37.5 -54.5t-21.5 -67.5t-7 -61.5 q0 -34 11.5 -54t42.5 -20z" glyph-name="zeroinferior" horiz-adv-x="359" unicode="₀"/><glyph d="M125 308q46 14 86.5 34.5t71.5 45.5h50l-93 -386h-71l70 290q-26 -14 -55.5 -24.5t-49.5 -16.5z" glyph-name="oneinferior" horiz-adv-x="359" unicode="₁"/><glyph d="M328 65l-15 -63h-263q4 36 16 62.5t30 47.5t41 38t49 33l45.5 29t32.5 25t19.5 25.5t6.5 30.5q0 21 -14.5 31t-34.5 10q-42 0 -66.5 -14.5t-37.5 -25.5l-24 49q20 19 55 36t81 17q57 0 84.5 -26.5t27.5 -71.5q0 -29 -13.5 -53t-34.5 -44t-46 -36.5l-48 -30.5l-46 -30 t-34 -39h189z" glyph-name="twoinferior" horiz-adv-x="359" unicode="₂"/><glyph d="M158 55q21 0 40.5 3t34.5 11.5t24.5 22.5t9.5 35q0 28 -26 40t-69 12h-21l14 56h25q14 0 31.5 3t32.5 10t25.5 18t10.5 28q0 23 -13.5 32t-42.5 9q-27 0 -52.5 -8t-41.5 -16l-14 52q9 6 23.5 11.5t32 10.5t35.5 8t34 3q59 0 83.5 -24t24.5 -58q0 -40 -20.5 -64t-56.5 -41 q24 -10 39.5 -29t15.5 -51q0 -66 -50 -100.5t-131 -34.5q-40 0 -68.5 8t-48.5 19l27 56q17 -8 41.5 -15t50.5 -7z" glyph-name="threeinferior" horiz-adv-x="359" unicode="₃"/><glyph d="M372 151l-14 -56h-50l-22 -93h-68l22 93h-185l11 46q16 27 43.5 59.5t61.5 66.5t71 65.5t72 55.5h65l-57 -237h50zM254 151l38 158l-40.5 -35t-42.5 -40t-40 -42t-33 -41h118z" glyph-name="fourinferior" horiz-adv-x="359" unicode="₄"/><glyph d="M199 242q41 -5 69 -13.5t45.5 -22t25 -33t7.5 -44.5q0 -66 -50.5 -100.5t-131.5 -34.5q-40 0 -68.5 8t-48.5 19l27 56q17 -8 41.5 -15t50.5 -7q22 0 42 3t35 11t23.5 21.5t8.5 34.5q0 32 -34.5 48.5t-124.5 20.5q17 46 33.5 96t30.5 98h216l-15 -62h-153l-13.5 -42.5 t-15.5 -41.5z" glyph-name="fiveinferior" horiz-adv-x="359" unicode="₅"/><glyph d="M75 115q0 64 23.5 115t65 86.5t99.5 54.5t127 19l-6 -60q-33 -1 -66 -6.5t-61.5 -17.5t-51 -31t-35.5 -46q21 9 43 13t38 4q31 0 51.5 -8t33 -22.5t18 -33t5.5 -39.5q0 -29 -11 -56t-32 -47.5t-51.5 -33t-68.5 -12.5q-60 0 -90.5 35t-30.5 86zM231 190q-20 0 -43.5 -4.5 t-38.5 -11.5q-8 -27 -8 -45q0 -39 14.5 -58t47.5 -19q43 0 65 26.5t22 59.5q0 52 -59 52z" glyph-name="sixinferior" horiz-adv-x="359" unicode="₆"/><glyph d="M94 2q14 42 38 87.5t53.5 89t62.5 81t66 64.5h-199l16 64h286l-13 -55q-26 -21 -59 -56.5t-66 -80t-61.5 -94.5t-44.5 -100h-79z" glyph-name="seveninferior" horiz-adv-x="359" unicode="₇"/><glyph d="M183 -6q-34 0 -57 8t-37.5 21t-20.5 29t-6 32q0 44 26.5 73t60.5 47q-14 11 -24 26.5t-10 44.5q0 27 11.5 49t31.5 38t47 25t59 9q33 0 55 -8t35.5 -21t19.5 -28.5t6 -31.5q0 -21 -7 -37.5t-18 -30t-25 -23.5t-28 -18q20 -11 32 -29.5t12 -44.5q0 -32 -13 -56 t-35.5 -40.5t-52 -25t-62.5 -8.5zM130 95q0 -15 11.5 -29.5t49.5 -14.5q35 0 61 16t26 48q0 23 -22.5 36t-64.5 25q-25 -12 -43 -33.5t-18 -47.5zM314 299q0 13 -11.5 26.5t-43.5 13.5t-55 -16t-23 -42q0 -18 14.5 -32t56.5 -27q23 12 42.5 31.5t19.5 45.5z" glyph-name="eightinferior" horiz-adv-x="359" unicode="₈"/><glyph d="M381 275q0 -63 -22 -114t-61.5 -86.5t-93.5 -54.5t-118 -19q-7 0 -15.5 0.5t-12.5 1.5l12 59q3 -1 9 -1h8q33 0 63 5.5t56 17t46.5 30t32.5 45.5q-20 -8 -42 -11.5t-38 -3.5q-32 0 -52.5 8t-33 22t-17.5 32t-5 38q0 30 11 57.5t32 48.5t51.5 33.5t68.5 12.5 q60 0 90.5 -35t30.5 -86zM225 201q20 0 42 4t40 11q8 27 8 45q0 39 -14.5 58t-47.5 19q-42 0 -64.5 -27t-22.5 -64q0 -46 59 -46z" glyph-name="nineinferior" horiz-adv-x="359" unicode="₉"/><glyph d="M178 255v289q0 69 13.5 114t36.5 71t52.5 36.5t62.5 10.5q42 0 68.5 -16t41.5 -40.5t20 -55t5 -59.5q0 -53 -15 -101.5t-42 -93t-65.5 -86t-85.5 -80.5v-44q0 -69 23.5 -101.5t74.5 -32.5q32 0 53.5 12t38.5 25l37 -69q-25 -22 -61 -35.5t-84 -13.5q-50 0 -83 15 t-53.5 40t-29 58t-8.5 69v8l-66 -47l-36 53zM270 327q63 58 99.5 126t36.5 153q0 16 -2 33t-9 30.5t-19 22t-31 8.5q-15 0 -28.5 -6t-24 -22.5t-16.5 -46t-6 -77.5v-221z" glyph-name="afii61289" horiz-adv-x="450" unicode="ℓ"/><glyph d="M294 337q-5 0 -5 -4v-197q0 -13 9 -22q48 -51 110 -79t135 -28q79 0 145 32.5t114 86.5h57q-26 -32 -60.5 -57.5t-75.5 -43.5t-87 -28t-94 -10q-83 0 -156 28.5t-127 77t-85.5 114t-31.5 140.5t31.5 140.5t85.5 114.5t127 77.5t156 28.5t156.5 -28.5t128 -77.5t86 -114.5 t31.5 -140.5v-10h-650zM796 560q0 13 -9 24q-48 48 -110 75t-134 27t-134 -29t-110 -77q-5 -4 -7.5 -10.5t-2.5 -13.5v-193q0 -7 5 -7h498q4 0 4 7v197z" glyph-name="estimated" horiz-adv-x="932" unicode="℮"/><glyph d="M199 621q46 14 86.5 34.5t71.5 45.5h50l-93 -386h-71l70 290q-26 -14 -55.5 -24.5t-49.5 -16.5zM270 0h-95l549 693h95zM671 55q21 0 40.5 3t34.5 11.5t24.5 22.5t9.5 35q0 28 -26 40t-69 12h-21l14 56h25q14 0 31.5 3t32.5 10t25.5 18t10.5 28q0 23 -13.5 32t-42.5 9 q-27 0 -52.5 -8t-41.5 -16l-14 52q9 6 23.5 11.5t32 10.5t35.5 8t34 3q59 0 83.5 -24t24.5 -58q0 -40 -20.5 -64t-56.5 -41q24 -10 39.5 -29t15.5 -51q0 -66 -50 -100.5t-131 -34.5q-40 0 -68.5 8t-48.5 19l27 56q17 -8 41.5 -15t50.5 -7z" glyph-name="onethird" horiz-adv-x="874" unicode="⅓"/><glyph d="M402 378l-15 -63h-263q4 36 16 62.5t30 47.5t41 38t49 33l45.5 29t32.5 25t19.5 25.5t6.5 30.5q0 21 -14.5 31t-34.5 10q-42 0 -66.5 -14.5t-37.5 -25.5l-24 49q20 19 55 36t81 17q57 0 84.5 -26.5t27.5 -71.5q0 -29 -13.5 -53t-34.5 -44t-46 -36.5l-48 -30.5l-46 -30 t-34 -39h189zM291 0h-95l549 693h95zM671 55q21 0 40.5 3t34.5 11.5t24.5 22.5t9.5 35q0 28 -26 40t-69 12h-21l14 56h25q14 0 31.5 3t32.5 10t25.5 18t10.5 28q0 23 -13.5 32t-42.5 9q-27 0 -52.5 -8t-41.5 -16l-14 52q9 6 23.5 11.5t32 10.5t35.5 8t34 3q59 0 83.5 -24 t24.5 -58q0 -40 -20.5 -64t-56.5 -41q24 -10 39.5 -29t15.5 -51q0 -66 -50 -100.5t-131 -34.5q-40 0 -68.5 8t-48.5 19l27 56q17 -8 41.5 -15t50.5 -7z" glyph-name="twothirds" horiz-adv-x="874" unicode="⅔"/><glyph d="M199 621q46 14 86.5 34.5t71.5 45.5h50l-93 -386h-71l70 290q-26 -14 -55.5 -24.5t-49.5 -16.5zM270 0h-95l549 693h95zM696 -6q-34 0 -57 8t-37.5 21t-20.5 29t-6 32q0 44 26.5 73t60.5 47q-14 11 -24 26.5t-10 44.5q0 27 11.5 49t31.5 38t47 25t59 9q33 0 55 -8 t35.5 -21t19.5 -28.5t6 -31.5q0 -21 -7 -37.5t-18 -30t-25 -23.5t-28 -18q20 -11 32 -29.5t12 -44.5q0 -32 -13 -56t-35.5 -40.5t-52 -25t-62.5 -8.5zM643 95q0 -15 11.5 -29.5t49.5 -14.5q35 0 61 16t26 48q0 23 -22.5 36t-64.5 25q-25 -12 -43 -33.5t-18 -47.5zM827 299 q0 13 -11.5 26.5t-43.5 13.5t-55 -16t-23 -42q0 -18 14.5 -32t56.5 -27q23 12 42.5 31.5t19.5 45.5z" glyph-name="oneeighth" horiz-adv-x="874" unicode="⅛"/><glyph d="M232 368q21 0 40.5 3t34.5 11.5t24.5 22.5t9.5 35q0 28 -26 40t-69 12h-21l14 56h25q14 0 31.5 3t32.5 10t25.5 18t10.5 28q0 23 -13.5 32t-42.5 9q-27 0 -52.5 -8t-41.5 -16l-14 52q9 6 23.5 11.5t32 10.5t35.5 8t34 3q59 0 83.5 -24t24.5 -58q0 -40 -20.5 -64 t-56.5 -41q24 -10 39.5 -29t15.5 -51q0 -66 -50 -100.5t-131 -34.5q-40 0 -68.5 8t-48.5 19l27 56q17 -8 41.5 -15t50.5 -7zM291 0h-95l549 693h95zM696 -6q-34 0 -57 8t-37.5 21t-20.5 29t-6 32q0 44 26.5 73t60.5 47q-14 11 -24 26.5t-10 44.5q0 27 11.5 49t31.5 38t47 25 t59 9q33 0 55 -8t35.5 -21t19.5 -28.5t6 -31.5q0 -21 -7 -37.5t-18 -30t-25 -23.5t-28 -18q20 -11 32 -29.5t12 -44.5q0 -32 -13 -56t-35.5 -40.5t-52 -25t-62.5 -8.5zM643 95q0 -15 11.5 -29.5t49.5 -14.5q35 0 61 16t26 48q0 23 -22.5 36t-64.5 25q-25 -12 -43 -33.5 t-18 -47.5zM827 299q0 13 -11.5 26.5t-43.5 13.5t-55 -16t-23 -42q0 -18 14.5 -32t56.5 -27q23 12 42.5 31.5t19.5 45.5z" glyph-name="threeeighths" horiz-adv-x="874" unicode="⅜"/><glyph d="M273 555q41 -5 69 -13.5t45.5 -22t25 -33t7.5 -44.5q0 -66 -50.5 -100.5t-131.5 -34.5q-40 0 -68.5 8t-48.5 19l27 56q17 -8 41.5 -15t50.5 -7q22 0 42 3t35 11t23.5 21.5t8.5 34.5q0 32 -34.5 48.5t-124.5 20.5q17 46 33.5 96t30.5 98h216l-15 -62h-153l-13.5 -42.5 t-15.5 -41.5zM291 0h-95l549 693h95zM696 -6q-34 0 -57 8t-37.5 21t-20.5 29t-6 32q0 44 26.5 73t60.5 47q-14 11 -24 26.5t-10 44.5q0 27 11.5 49t31.5 38t47 25t59 9q33 0 55 -8t35.5 -21t19.5 -28.5t6 -31.5q0 -21 -7 -37.5t-18 -30t-25 -23.5t-28 -18q20 -11 32 -29.5 t12 -44.5q0 -32 -13 -56t-35.5 -40.5t-52 -25t-62.5 -8.5zM643 95q0 -15 11.5 -29.5t49.5 -14.5q35 0 61 16t26 48q0 23 -22.5 36t-64.5 25q-25 -12 -43 -33.5t-18 -47.5zM827 299q0 13 -11.5 26.5t-43.5 13.5t-55 -16t-23 -42q0 -18 14.5 -32t56.5 -27q23 12 42.5 31.5 t19.5 45.5z" glyph-name="fiveeighths" horiz-adv-x="874" unicode="⅝"/><glyph d="M168 315q14 42 38 87.5t53.5 89t62.5 81t66 64.5h-199l16 64h286l-13 -55q-26 -21 -59 -56.5t-66 -80t-61.5 -94.5t-44.5 -100h-79zM250 0h-95l549 693h95zM696 -6q-34 0 -57 8t-37.5 21t-20.5 29t-6 32q0 44 26.5 73t60.5 47q-14 11 -24 26.5t-10 44.5q0 27 11.5 49 t31.5 38t47 25t59 9q33 0 55 -8t35.5 -21t19.5 -28.5t6 -31.5q0 -21 -7 -37.5t-18 -30t-25 -23.5t-28 -18q20 -11 32 -29.5t12 -44.5q0 -32 -13 -56t-35.5 -40.5t-52 -25t-62.5 -8.5zM643 95q0 -15 11.5 -29.5t49.5 -14.5q35 0 61 16t26 48q0 23 -22.5 36t-64.5 25 q-25 -12 -43 -33.5t-18 -47.5zM827 299q0 13 -11.5 26.5t-43.5 13.5t-55 -16t-23 -42q0 -18 14.5 -32t56.5 -27q23 12 42.5 31.5t19.5 45.5z" glyph-name="seveneighths" horiz-adv-x="874" unicode="⅞"/><glyph d="M199 621q46 14 86.5 34.5t71.5 45.5h50l-93 -386h-71l70 290q-26 -14 -55.5 -24.5t-49.5 -16.5zM270 0h-95l549 693h95zM712 242q41 -5 69 -13.5t45.5 -22t25 -33t7.5 -44.5q0 -66 -50.5 -100.5t-131.5 -34.5q-40 0 -68.5 8t-48.5 19l27 56q17 -8 41.5 -15t50.5 -7 q22 0 42 3t35 11t23.5 21.5t8.5 34.5q0 32 -34.5 48.5t-124.5 20.5q17 46 33.5 96t30.5 98h216l-15 -62h-153l-13.5 -42.5t-15.5 -41.5z" glyph-name="onefifth" horiz-adv-x="874" unicode="⅕"/><glyph d="M402 378l-15 -63h-263q4 36 16 62.5t30 47.5t41 38t49 33l45.5 29t32.5 25t19.5 25.5t6.5 30.5q0 21 -14.5 31t-34.5 10q-42 0 -66.5 -14.5t-37.5 -25.5l-24 49q20 19 55 36t81 17q57 0 84.5 -26.5t27.5 -71.5q0 -29 -13.5 -53t-34.5 -44t-46 -36.5l-48 -30.5l-46 -30 t-34 -39h189zM304 0h-95l549 693h95zM712 242q41 -5 69 -13.5t45.5 -22t25 -33t7.5 -44.5q0 -66 -50.5 -100.5t-131.5 -34.5q-40 0 -68.5 8t-48.5 19l27 56q17 -8 41.5 -15t50.5 -7q22 0 42 3t35 11t23.5 21.5t8.5 34.5q0 32 -34.5 48.5t-124.5 20.5q17 46 33.5 96t30.5 98 h216l-15 -62h-153l-13.5 -42.5t-15.5 -41.5z" glyph-name="twofifths" horiz-adv-x="874" unicode="⅖"/><glyph d="M232 368q21 0 40.5 3t34.5 11.5t24.5 22.5t9.5 35q0 28 -26 40t-69 12h-21l14 56h25q14 0 31.5 3t32.5 10t25.5 18t10.5 28q0 23 -13.5 32t-42.5 9q-27 0 -52.5 -8t-41.5 -16l-14 52q9 6 23.5 11.5t32 10.5t35.5 8t34 3q59 0 83.5 -24t24.5 -58q0 -40 -20.5 -64 t-56.5 -41q24 -10 39.5 -29t15.5 -51q0 -66 -50 -100.5t-131 -34.5q-40 0 -68.5 8t-48.5 19l27 56q17 -8 41.5 -15t50.5 -7zM291 0h-95l549 693h95zM712 242q41 -5 69 -13.5t45.5 -22t25 -33t7.5 -44.5q0 -66 -50.5 -100.5t-131.5 -34.5q-40 0 -68.5 8t-48.5 19l27 56 q17 -8 41.5 -15t50.5 -7q22 0 42 3t35 11t23.5 21.5t8.5 34.5q0 32 -34.5 48.5t-124.5 20.5q17 46 33.5 96t30.5 98h216l-15 -62h-153l-13.5 -42.5t-15.5 -41.5z" glyph-name="threefifths" horiz-adv-x="874" unicode="⅗"/><glyph d="M446 464l-14 -56h-50l-22 -93h-68l22 93h-185l11 46q16 27 43.5 59.5t61.5 66.5t71 65.5t72 55.5h65l-57 -237h50zM328 464l38 158l-40.5 -35t-42.5 -40t-40 -42t-33 -41h118zM303 0h-95l549 693h95zM712 242q41 -5 69 -13.5t45.5 -22t25 -33t7.5 -44.5 q0 -66 -50.5 -100.5t-131.5 -34.5q-40 0 -68.5 8t-48.5 19l27 56q17 -8 41.5 -15t50.5 -7q22 0 42 3t35 11t23.5 21.5t8.5 34.5q0 32 -34.5 48.5t-124.5 20.5q17 46 33.5 96t30.5 98h216l-15 -62h-153l-13.5 -42.5t-15.5 -41.5z" glyph-name="fourfifths" horiz-adv-x="874" unicode="⅘"/><glyph d="M199 621q46 14 86.5 34.5t71.5 45.5h50l-93 -386h-71l70 290q-26 -14 -55.5 -24.5t-49.5 -16.5zM280 0h-95l549 693h95zM588 115q0 64 23.5 115t65 86.5t99.5 54.5t127 19l-6 -60q-33 -1 -66 -6.5t-61.5 -17.5t-51 -31t-35.5 -46q21 9 43 13t38 4q31 0 51.5 -8t33 -22.5 t18 -33t5.5 -39.5q0 -29 -11 -56t-32 -47.5t-51.5 -33t-68.5 -12.5q-60 0 -90.5 35t-30.5 86zM744 190q-20 0 -43.5 -4.5t-38.5 -11.5q-8 -27 -8 -45q0 -39 14.5 -58t47.5 -19q43 0 65 26.5t22 59.5q0 52 -59 52z" glyph-name="onesixth" horiz-adv-x="874" unicode="⅙"/><glyph d="M273 555q41 -5 69 -13.5t45.5 -22t25 -33t7.5 -44.5q0 -66 -50.5 -100.5t-131.5 -34.5q-40 0 -68.5 8t-48.5 19l27 56q17 -8 41.5 -15t50.5 -7q22 0 42 3t35 11t23.5 21.5t8.5 34.5q0 32 -34.5 48.5t-124.5 20.5q17 46 33.5 96t30.5 98h216l-15 -62h-153l-13.5 -42.5 t-15.5 -41.5zM301 0h-95l549 693h95zM588 115q0 64 23.5 115t65 86.5t99.5 54.5t127 19l-6 -60q-33 -1 -66 -6.5t-61.5 -17.5t-51 -31t-35.5 -46q21 9 43 13t38 4q31 0 51.5 -8t33 -22.5t18 -33t5.5 -39.5q0 -29 -11 -56t-32 -47.5t-51.5 -33t-68.5 -12.5q-60 0 -90.5 35 t-30.5 86zM744 190q-20 0 -43.5 -4.5t-38.5 -11.5q-8 -27 -8 -45q0 -39 14.5 -58t47.5 -19q43 0 65 26.5t22 59.5q0 52 -59 52z" glyph-name="fivesixths" horiz-adv-x="874" unicode="⅚"/><glyph d="M199 621q46 14 86.5 34.5t71.5 45.5h50l-93 -386h-71l70 290q-26 -14 -55.5 -24.5t-49.5 -16.5zM262 0h-95l549 693h95zM607 2q14 42 38 87.5t53.5 89t62.5 81t66 64.5h-199l16 64h286l-13 -55q-26 -21 -59 -56.5t-66 -80t-61.5 -94.5t-44.5 -100h-79z" glyph-name="oneseventh" horiz-adv-x="874" unicode=""/><glyph d="M402 378l-15 -63h-263q4 36 16 62.5t30 47.5t41 38t49 33l45.5 29t32.5 25t19.5 25.5t6.5 30.5q0 21 -14.5 31t-34.5 10q-42 0 -66.5 -14.5t-37.5 -25.5l-24 49q20 19 55 36t81 17q57 0 84.5 -26.5t27.5 -71.5q0 -29 -13.5 -53t-34.5 -44t-46 -36.5l-48 -30.5l-46 -30 t-34 -39h189zM291 0h-95l549 693h95zM607 2q14 42 38 87.5t53.5 89t62.5 81t66 64.5h-199l16 64h286l-13 -55q-26 -21 -59 -56.5t-66 -80t-61.5 -94.5t-44.5 -100h-79z" glyph-name="twosevenths" horiz-adv-x="874" unicode=""/><glyph d="M232 368q21 0 40.5 3t34.5 11.5t24.5 22.5t9.5 35q0 28 -26 40t-69 12h-21l14 56h25q14 0 31.5 3t32.5 10t25.5 18t10.5 28q0 23 -13.5 32t-42.5 9q-27 0 -52.5 -8t-41.5 -16l-14 52q9 6 23.5 11.5t32 10.5t35.5 8t34 3q59 0 83.5 -24t24.5 -58q0 -40 -20.5 -64 t-56.5 -41q24 -10 39.5 -29t15.5 -51q0 -66 -50 -100.5t-131 -34.5q-40 0 -68.5 8t-48.5 19l27 56q17 -8 41.5 -15t50.5 -7zM283 0h-95l549 693h95zM607 2q14 42 38 87.5t53.5 89t62.5 81t66 64.5h-199l16 64h286l-13 -55q-26 -21 -59 -56.5t-66 -80t-61.5 -94.5t-44.5 -100 h-79z" glyph-name="threesevenths" horiz-adv-x="874" unicode=""/><glyph d="M446 464l-14 -56h-50l-22 -93h-68l22 93h-185l11 46q16 27 43.5 59.5t61.5 66.5t71 65.5t72 55.5h65l-57 -237h50zM328 464l38 158l-40.5 -35t-42.5 -40t-40 -42t-33 -41h118zM284 0h-95l549 693h95zM607 2q14 42 38 87.5t53.5 89t62.5 81t66 64.5h-199l16 64h286 l-13 -55q-26 -21 -59 -56.5t-66 -80t-61.5 -94.5t-44.5 -100h-79z" glyph-name="foursevenths" horiz-adv-x="874" unicode=""/><glyph d="M273 555q41 -5 69 -13.5t45.5 -22t25 -33t7.5 -44.5q0 -66 -50.5 -100.5t-131.5 -34.5q-40 0 -68.5 8t-48.5 19l27 56q17 -8 41.5 -15t50.5 -7q22 0 42 3t35 11t23.5 21.5t8.5 34.5q0 32 -34.5 48.5t-124.5 20.5q17 46 33.5 96t30.5 98h216l-15 -62h-153l-13.5 -42.5 t-15.5 -41.5zM284 0h-95l549 693h95zM607 2q14 42 38 87.5t53.5 89t62.5 81t66 64.5h-199l16 64h286l-13 -55q-26 -21 -59 -56.5t-66 -80t-61.5 -94.5t-44.5 -100h-79z" glyph-name="fivesevenths" horiz-adv-x="874" unicode=""/><glyph d="M149 428q0 64 23.5 115t65 86.5t99.5 54.5t127 19l-6 -60q-33 -1 -66 -6.5t-61.5 -17.5t-51 -31t-35.5 -46q21 9 43 13t38 4q31 0 51.5 -8t33 -22.5t18 -33t5.5 -39.5q0 -29 -11 -56t-32 -47.5t-51.5 -33t-68.5 -12.5q-60 0 -90.5 35t-30.5 86zM305 503q-20 0 -43.5 -4.5 t-38.5 -11.5q-8 -27 -8 -45q0 -39 14.5 -58t47.5 -19q43 0 65 26.5t22 59.5q0 52 -59 52zM284 0h-95l549 693h95zM607 2q14 42 38 87.5t53.5 89t62.5 81t66 64.5h-199l16 64h286l-13 -55q-26 -21 -59 -56.5t-66 -80t-61.5 -94.5t-44.5 -100h-79z" glyph-name="sixsevenths" horiz-adv-x="874" unicode=""/><glyph d="M199 621q46 14 86.5 34.5t71.5 45.5h50l-93 -386h-71l70 290q-26 -14 -55.5 -24.5t-49.5 -16.5zM270 0h-95l549 693h95zM894 275q0 -63 -22 -114t-61.5 -86.5t-93.5 -54.5t-118 -19q-7 0 -15.5 0.5t-12.5 1.5l12 59q3 -1 9 -1h8q33 0 63 5.5t56 17t46.5 30t32.5 45.5 q-20 -8 -42 -11.5t-38 -3.5q-32 0 -52.5 8t-33 22t-17.5 32t-5 38q0 30 11 57.5t32 48.5t51.5 33.5t68.5 12.5q60 0 90.5 -35t30.5 -86zM738 201q20 0 42 4t40 11q8 27 8 45q0 39 -14.5 58t-47.5 19q-42 0 -64.5 -27t-22.5 -64q0 -46 59 -46z" glyph-name="oneninth" horiz-adv-x="874" unicode=""/><glyph d="M402 378l-15 -63h-263q4 36 16 62.5t30 47.5t41 38t49 33l45.5 29t32.5 25t19.5 25.5t6.5 30.5q0 21 -14.5 31t-34.5 10q-42 0 -66.5 -14.5t-37.5 -25.5l-24 49q20 19 55 36t81 17q57 0 84.5 -26.5t27.5 -71.5q0 -29 -13.5 -53t-34.5 -44t-46 -36.5l-48 -30.5l-46 -30 t-34 -39h189zM296 0h-95l549 693h95zM894 275q0 -63 -22 -114t-61.5 -86.5t-93.5 -54.5t-118 -19q-7 0 -15.5 0.5t-12.5 1.5l12 59q3 -1 9 -1h8q33 0 63 5.5t56 17t46.5 30t32.5 45.5q-20 -8 -42 -11.5t-38 -3.5q-32 0 -52.5 8t-33 22t-17.5 32t-5 38q0 30 11 57.5t32 48.5 t51.5 33.5t68.5 12.5q60 0 90.5 -35t30.5 -86zM738 201q20 0 42 4t40 11q8 27 8 45q0 39 -14.5 58t-47.5 19q-42 0 -64.5 -27t-22.5 -64q0 -46 59 -46z" glyph-name="twoninths" horiz-adv-x="874" unicode=""/><glyph d="M446 464l-14 -56h-50l-22 -93h-68l22 93h-185l11 46q16 27 43.5 59.5t61.5 66.5t71 65.5t72 55.5h65l-57 -237h50zM328 464l38 158l-40.5 -35t-42.5 -40t-40 -42t-33 -41h118zM291 0h-95l549 693h95zM894 275q0 -63 -22 -114t-61.5 -86.5t-93.5 -54.5t-118 -19 q-7 0 -15.5 0.5t-12.5 1.5l12 59q3 -1 9 -1h8q33 0 63 5.5t56 17t46.5 30t32.5 45.5q-20 -8 -42 -11.5t-38 -3.5q-32 0 -52.5 8t-33 22t-17.5 32t-5 38q0 30 11 57.5t32 48.5t51.5 33.5t68.5 12.5q60 0 90.5 -35t30.5 -86zM738 201q20 0 42 4t40 11q8 27 8 45q0 39 -14.5 58 t-47.5 19q-42 0 -64.5 -27t-22.5 -64q0 -46 59 -46z" glyph-name="fourninths" horiz-adv-x="874" unicode=""/><glyph d="M273 555q41 -5 69 -13.5t45.5 -22t25 -33t7.5 -44.5q0 -66 -50.5 -100.5t-131.5 -34.5q-40 0 -68.5 8t-48.5 19l27 56q17 -8 41.5 -15t50.5 -7q22 0 42 3t35 11t23.5 21.5t8.5 34.5q0 32 -34.5 48.5t-124.5 20.5q17 46 33.5 96t30.5 98h216l-15 -62h-153l-13.5 -42.5 t-15.5 -41.5zM291 0h-95l549 693h95zM894 275q0 -63 -22 -114t-61.5 -86.5t-93.5 -54.5t-118 -19q-7 0 -15.5 0.5t-12.5 1.5l12 59q3 -1 9 -1h8q33 0 63 5.5t56 17t46.5 30t32.5 45.5q-20 -8 -42 -11.5t-38 -3.5q-32 0 -52.5 8t-33 22t-17.5 32t-5 38q0 30 11 57.5t32 48.5 t51.5 33.5t68.5 12.5q60 0 90.5 -35t30.5 -86zM738 201q20 0 42 4t40 11q8 27 8 45q0 39 -14.5 58t-47.5 19q-42 0 -64.5 -27t-22.5 -64q0 -46 59 -46z" glyph-name="fiveninths" horiz-adv-x="874" unicode=""/><glyph d="M168 315q14 42 38 87.5t53.5 89t62.5 81t66 64.5h-199l16 64h286l-13 -55q-26 -21 -59 -56.5t-66 -80t-61.5 -94.5t-44.5 -100h-79zM250 0h-95l549 693h95zM894 275q0 -63 -22 -114t-61.5 -86.5t-93.5 -54.5t-118 -19q-7 0 -15.5 0.5t-12.5 1.5l12 59q3 -1 9 -1h8 q33 0 63 5.5t56 17t46.5 30t32.5 45.5q-20 -8 -42 -11.5t-38 -3.5q-32 0 -52.5 8t-33 22t-17.5 32t-5 38q0 30 11 57.5t32 48.5t51.5 33.5t68.5 12.5q60 0 90.5 -35t30.5 -86zM738 201q20 0 42 4t40 11q8 27 8 45q0 39 -14.5 58t-47.5 19q-42 0 -64.5 -27t-22.5 -64 q0 -46 59 -46z" glyph-name="sevenninths" horiz-adv-x="874" unicode=""/><glyph d="M257 307q-34 0 -57 8t-37.5 21t-20.5 29t-6 32q0 44 26.5 73t60.5 47q-14 11 -24 26.5t-10 44.5q0 27 11.5 49t31.5 38t47 25t59 9q33 0 55 -8t35.5 -21t19.5 -28.5t6 -31.5q0 -21 -7 -37.5t-18 -30t-25 -23.5t-28 -18q20 -11 32 -29.5t12 -44.5q0 -32 -13 -56 t-35.5 -40.5t-52 -25t-62.5 -8.5zM204 408q0 -15 11.5 -29.5t49.5 -14.5q35 0 61 16t26 48q0 23 -22.5 36t-64.5 25q-25 -12 -43 -33.5t-18 -47.5zM388 612q0 13 -11.5 26.5t-43.5 13.5t-55 -16t-23 -42q0 -18 14.5 -32t56.5 -27q23 12 42.5 31.5t19.5 45.5zM291 0h-95 l549 693h95zM894 275q0 -63 -22 -114t-61.5 -86.5t-93.5 -54.5t-118 -19q-7 0 -15.5 0.5t-12.5 1.5l12 59q3 -1 9 -1h8q33 0 63 5.5t56 17t46.5 30t32.5 45.5q-20 -8 -42 -11.5t-38 -3.5q-32 0 -52.5 8t-33 22t-17.5 32t-5 38q0 30 11 57.5t32 48.5t51.5 33.5t68.5 12.5 q60 0 90.5 -35t30.5 -86zM738 201q20 0 42 4t40 11q8 27 8 45q0 39 -14.5 58t-47.5 19q-42 0 -64.5 -27t-22.5 -64q0 -46 59 -46z" glyph-name="eightninths" horiz-adv-x="874" unicode=""/><glyph d="M400 499q49 0 81 -13.5t49 -27.5q1 12 1 24v24q0 42 -8.5 77t-27.5 59.5t-48 38.5t-71 14q-46 0 -76.5 -6.5t-53.5 -19.5l-10 76q26 14 63.5 22.5t91.5 8.5q61 0 105 -20t72.5 -55.5t42 -84t13.5 -106.5q0 -52 -7.5 -111t-24 -117.5t-42.5 -111.5t-63 -94t-86.5 -65 t-111.5 -24q-87 0 -135 48.5t-48 136.5q0 68 20 127.5t57.5 104t92 70t124.5 25.5zM293 69q47 0 84.5 24.5t66 66t47.5 96.5t29 116q-24 27 -57.5 37t-65.5 10q-51 0 -88.5 -22t-62 -57t-36 -79t-11.5 -87q0 -54 26 -79.5t68 -25.5z" glyph-name="partialdiff" horiz-adv-x="591" unicode="∂"/><glyph d="M10 0l101.5 184.5l110 187.5l108.5 175l97 146h95q15 -75 27.5 -151.5t24.5 -160.5t23 -178l23 -203h-610zM452 582q-48 -69 -122 -192.5t-171 -308.5h354q-11 121 -25 244.5t-36 256.5z" glyph-name="Delta" horiz-adv-x="624" unicode="∆"/><glyph d="M756 693l-193 -802h-97l173 721h-314l-173 -721h-97l192 802h509z" glyph-name="product" horiz-adv-x="674" unicode="∏"/><glyph d="M425 302l-153 -161.5t-147 -168.5h355l-19 -81h-468l16 68q67 87 150.5 179l164.5 177q-26 49 -49.5 98l-43 92.5t-33.5 78t-21 53.5l13 56h463l-19 -81h-348q13 -35 28 -70l32 -72.5l36.5 -78.5z" glyph-name="summation" horiz-adv-x="509" unicode="∑"/><glyph d="M537 709q54 0 100 -15t79.5 -46t52.5 -77t19 -109q0 -59 -15 -112t-41.5 -100.5t-63.5 -89.5t-82 -79h137l-19 -81h-260l17 68q48 37 89.5 82t71.5 95.5t47.5 104t17.5 108.5q0 85 -42.5 126t-117.5 41q-73 0 -126.5 -30.5t-89 -78.5t-52.5 -107.5t-17 -117.5 q0 -78 22.5 -131.5t59.5 -91.5l-16 -68h-253l20 81h141q-28 35 -51 91t-23 122q0 82 26 157.5t76 132.5t124 91t169 34z" glyph-name="uni2126" horiz-adv-x="761" unicode="Ω"/><glyph d="M587 337l-19 -79h-449l19 79h449z" glyph-name="minus" horiz-adv-x="564" unicode="−"/><glyph d="M-72 0h-95l549 693h95z" glyph-name="uni2215" horiz-adv-x="148" unicode="∕"/><glyph d="M185 227q-28 0 -44 15t-16 44q0 36 21.5 55.5t49.5 19.5t44.5 -15.5t16.5 -45.5q0 -17 -6.5 -30.5t-16.5 -23t-23 -14.5t-26 -5z" glyph-name="uni2219" horiz-adv-x="246" unicode="∙"/><glyph d="M264 396q9 -38 16.5 -73.5t14 -71t12 -72.5l11.5 -77l358 681h87l-425 -798h-85l-12.5 86t-14 86l-15 81t-15.5 71l-93 -28l-8 65z" glyph-name="radical" horiz-adv-x="564" unicode="√"/><glyph d="M228 219q27 0 52.5 18.5t54.5 57.5q-11 42 -27.5 61t-42.5 19q-21 0 -38.5 -8.5t-29.5 -22t-18.5 -31t-6.5 -34.5q0 -32 16.5 -46t39.5 -14zM506 375q-27 0 -52.5 -18.5t-54.5 -57.5q11 -42 27.5 -61t42.5 -19q21 0 38.5 8.5t29.5 22t18.5 31t6.5 34.5q0 32 -16.5 46 t-39.5 14zM382 362q12 14 27 27.5t32.5 24.5t37 18t41.5 7q21 0 41 -6.5t35.5 -20.5t25 -36.5t9.5 -53.5q0 -36 -13.5 -66.5t-36.5 -53t-53.5 -35t-63.5 -12.5q-27 0 -45.5 7t-31 18.5t-21 25t-14.5 26.5q-12 -14 -27 -27.5t-32.5 -24.5t-37 -18t-41.5 -7q-21 0 -41 6.5 t-35.5 20.5t-25 36t-9.5 54q0 36 13.5 66.5t36.5 53t53.5 35t63.5 12.5q27 0 45.5 -7t31 -18.5t21 -25t14.5 -26.5z" glyph-name="infinity" horiz-adv-x="588" unicode="∞"/><glyph d="M239 24q-12 -50 -29 -89t-43.5 -65.5t-64 -40.5t-90.5 -14q-30 0 -53 6l19 76q7 -2 18 -2.5t16 -0.5q34 0 57 10t38 27.5t24 40.5t15 50l125 545q12 50 29 89t43.5 65.5t64 40.5t90.5 14q30 0 53 -6l-19 -76q-7 2 -18 2.5t-16 0.5q-35 0 -58 -10t-38 -27.5t-23.5 -40.5 t-14.5 -50z" glyph-name="integral" horiz-adv-x="369" unicode="∫"/><glyph d="M393 447l41 -29.5t45 -13.5q16 0 29.5 8t23.5 19.5t18 25.5t14 26l64 -20q-8 -22 -21.5 -46.5t-33.5 -45.5t-46.5 -34.5t-60.5 -13.5q-35 0 -57.5 13.5t-41.5 27.5l-41 29.5t-45 13.5q-17 0 -30 -8t-23.5 -19.5t-18 -25.5l-13.5 -26l-64 20q8 22 21.5 46.5t33.5 45.5 t46.5 34.5t60.5 13.5q35 0 57.5 -13.5t41.5 -27.5zM343 233l41 -29.5t45 -13.5q16 0 29.5 8t23.5 19.5t18 25.5t14 26l64 -20q-8 -22 -21.5 -46.5t-33.5 -45.5t-46.5 -34.5t-60.5 -13.5q-35 0 -57.5 13.5t-41.5 27.5l-41 29.5t-45 13.5q-17 0 -30 -8t-23.5 -19.5t-18 -25.5 l-13.5 -26l-64 20q8 22 21.5 46.5t33.5 45.5t46.5 34.5t60.5 13.5q35 0 57.5 -13.5t41.5 -27.5z" glyph-name="approxequal" horiz-adv-x="564" unicode="≈"/><glyph d="M498 443h115l-19 -79h-149l-90 -134h207l-19 -79h-241l-91 -135l-70 30l70 105h-117l19 79h151l91 134h-210l19 79h244l91 135l70 -30z" glyph-name="notequal" horiz-adv-x="564" unicode="≠"/><glyph d="M525 80l-19 -79h-449l19 79h449zM512 138l-380 183l19 80l468 183l6 -82l-382 -146l311 -145z" glyph-name="lessequal" horiz-adv-x="564" unicode="≤"/><glyph d="M525 80l-19 -79h-449l19 79h449zM220 584l380 -183l-19 -80l-468 -183l-6 82l382 146l-311 145z" glyph-name="greaterequal" horiz-adv-x="564" unicode="≥"/><glyph d="M274 -17q-39 82 -78 173t-81 200l88 100.5l82 90.5l78 83.5l76 80.5q39 -82 78 -173t81 -200l-89 -100l-82 -90.5l-77.5 -84zM299 121l53 55l49.5 54.5l49.5 56.5l53 62l-24.5 65l-22 57l-21 52t-22.5 50l-53 -56l-49.5 -54l-49.5 -56l-53 -62l24.5 -65.5l22 -57.5 l21 -51.5t22.5 -49.5z" glyph-name="lozenge" horiz-adv-x="552" unicode="◊"/><glyph d="M541 0h-93l125 520h93zM649 614q-23 0 -38.5 14t-15.5 39q0 32 20 50.5t45 18.5q23 0 39 -14.5t16 -40.5q0 -30 -21 -48.5t-45 -18.5zM212 567q12 50 30.5 89t47 65.5t67.5 40.5t93 14q29 0 55 -5.5t42 -13.5l-37 -74q-8 4 -24.5 8.5t-43.5 4.5q-33 0 -56 -9.5t-39 -26.5 t-25.5 -41t-16.5 -54l-11 -45h174l-18 -78h-174l-80 -330l-21 -91t-21.5 -75t-33 -67.5t-55.5 -67.5l-82 12q30 39 47 66t28.5 55t20 64.5l22.5 94.5z" glyph-name="fi" horiz-adv-x="621" unicode=""/><glyph d="M591 229l-10 -43t-5 -40q0 -34 16.5 -54t61.5 -25l-21 -76q-41 1 -69.5 12.5t-46 30.5t-25.5 45t-8 57q0 23 4 48t11 52l126 524l97 16zM212 567q12 50 30.5 89t47 65.5t67.5 40.5t93 14q29 0 55 -5.5t42 -13.5l-37 -74q-8 4 -24.5 8.5t-43.5 4.5q-33 0 -56 -9.5 t-39 -26.5t-25.5 -41t-16.5 -54l-11 -45h174l-18 -78h-174l-80 -330l-21 -91t-21.5 -75t-33 -67.5t-55.5 -67.5l-82 12q30 39 47 66t28.5 55t20 64.5l22.5 94.5z" glyph-name="fl" horiz-adv-x="652" unicode=""/><glyph d="M609 501q0 -49 -9 -106.5t-26.5 -115t-44.5 -110.5t-63.5 -94t-82.5 -65.5t-101 -24.5q-85 0 -125.5 52.5t-40.5 155.5q0 49 9 106.5t26.5 115t44.5 110.5t63.5 94t82 65.5t101.5 24.5q85 0 125.5 -52.5t40.5 -155.5zM514 489q0 75 -18 107t-64 32q-31 0 -60 -19 t-53.5 -51t-44.5 -74.5t-34 -89.5t-21.5 -96t-7.5 -93q0 -75 18 -107t64 -32q32 0 60.5 19t53 51t44.5 74.5t34 89.5t21.5 95.5t7.5 93.5z" glyph-name="zero.alt" horiz-adv-x="564" unicode=""/><glyph d="M323 555q-14 -11 -33.5 -22.5t-42 -22.5t-46.5 -20.5t-46 -16.5l-15 77q60 22 122.5 56.5t119.5 86.5h67l-166 -693h-93z" glyph-name="one.alt" horiz-adv-x="365" unicode=""/><glyph d="M566 552q0 -53 -17 -93t-46 -73.5t-67 -63l-81 -61.5l-53 -41t-53 -45.5t-44 -48t-27 -48.5h301l-18 -78h-405q8 53 28.5 96t49 79t63 66t71.5 58l75.5 56.5t64.5 56t45 59.5t17 68q0 42 -22.5 65.5t-73.5 23.5q-28 0 -53 -7t-45 -17t-35.5 -21.5t-24.5 -20.5l-32 72 q14 13 35 26t47.5 24t57 18t62.5 7q48 0 82.5 -13.5t56 -35.5t31.5 -50t10 -58z" glyph-name="two.alt" horiz-adv-x="488" unicode=""/><glyph d="M213 67q40 0 74.5 9.5t60 28.5t39.5 47.5t14 66.5q0 60 -43.5 86t-115.5 26h-21l18 76h31q33 0 64.5 8.5t57 26t41 43t15.5 59.5q0 42 -25.5 63.5t-73.5 21.5q-43 0 -77.5 -13.5t-59.5 -29.5l-22 72q13 9 32 18t42 16.5t48.5 12t51.5 4.5q47 0 80.5 -12t55.5 -33 t32 -49.5t10 -60.5q0 -66 -38.5 -112.5t-104.5 -72.5q17 -7 34.5 -19.5t31 -31t22 -43t8.5 -54.5q0 -53 -18.5 -96.5t-54.5 -74.5t-89 -48t-123 -17q-35 0 -64.5 5t-52.5 11.5t-38.5 13.5t-21.5 11l35 79q7 -4 19.5 -10.5t30.5 -12.5t41.5 -10.5t53.5 -4.5z" glyph-name="three.alt" horiz-adv-x="487" unicode=""/><glyph d="M468 177l-42 -177h-90l42 177h-304l15 63q28 47 73.5 107t101 122t116.5 120.5t121 103.5h91l-106 -440h81l-18 -76h-81zM475 577q-36 -30 -75 -67.5t-77 -79.5t-73 -87t-63 -90h210z" glyph-name="four.alt" horiz-adv-x="531" unicode=""/><glyph d="M330 615q-6 -20 -14.5 -46l-17.5 -52.5l-17 -50.5l-13 -40q114 -15 171.5 -62t57.5 -134q0 -51 -17 -96t-53 -78t-91.5 -52t-131.5 -19q-32 0 -60.5 5t-51 11.5t-37.5 13t-20 9.5l36 78q14 -8 48.5 -21.5t89.5 -13.5q41 0 76.5 10.5t61.5 30t41 48.5t15 65q0 46 -25 72.5 t-62 40t-80 17.5t-79 6l31 88l28.5 82.5t25.5 81t23 84.5h324l-18 -78h-241z" glyph-name="five.alt" horiz-adv-x="485" unicode=""/><glyph d="M224 318q-10 -32 -15 -65.5t-5 -59.5q0 -63 22.5 -97.5t79.5 -34.5q39 0 69 16.5t50.5 43.5t31 60.5t10.5 68.5q0 48 -23.5 73t-77.5 25q-35 0 -70.5 -6.5t-71.5 -23.5zM112 185q0 105 35.5 198t100 162.5t156 110t204.5 40.5h13l-11 -79h-5q-71 0 -128.5 -18.5 t-102.5 -49t-76.5 -71.5t-49.5 -86q32 16 69 24.5t71 8.5q45 0 77.5 -13.5t53.5 -36t30.5 -52.5t9.5 -63q0 -50 -15.5 -99.5t-47.5 -88.5t-82.5 -63t-120.5 -24q-88 0 -134.5 53.5t-46.5 146.5z" glyph-name="six.alt" horiz-adv-x="546" unicode=""/><glyph d="M112 0q15 53 39.5 110.5t55.5 115.5t66.5 114t72.5 106.5t74.5 93t71.5 72.5h-329l19 81h435l-19 -80q-43 -37 -99 -103t-111 -148.5t-103 -175.5t-75 -186h-98z" glyph-name="seven.alt" horiz-adv-x="471" unicode=""/><glyph d="M457 349q34 -23 57.5 -56.5t23.5 -86.5q0 -44 -16.5 -84t-49.5 -70.5t-83 -48.5t-116 -18q-50 0 -85 14t-57 36t-32 50t-10 56q0 72 42.5 128t117.5 93q-61 48 -61 124q0 45 16.5 85t47.5 71t75.5 49t100.5 18q46 0 79.5 -13t54.5 -35t31 -49.5t10 -56.5 q0 -69 -38.5 -120.5t-107.5 -85.5zM318 327q-27 -12 -52 -30t-44 -40t-30 -47.5t-11 -52.5q0 -20 5 -37t17 -30.5t32 -21t50 -7.5q33 0 62.5 10t51.5 28t34.5 43t12.5 55q0 49 -34 79t-94 51zM384 381q25 12 48 28t40.5 36.5t28 45t10.5 54.5q0 15 -4 31t-14.5 28.5 t-29 20.5t-46.5 8q-30 0 -55 -10.5t-43.5 -28.5t-29 -43.5t-10.5 -55.5q0 -42 25 -69t80 -45z" glyph-name="eight.alt" horiz-adv-x="530" unicode=""/><glyph d="M322 272q-45 0 -77.5 13t-53.5 35.5t-31 52.5t-10 63q0 50 15.5 99t48 87.5t81.5 62t115 23.5q93 0 140 -53.5t47 -146.5q0 -107 -33.5 -200t-96.5 -162t-154 -108.5t-206 -39.5h-10.5t-15.5 1l17 79q3 -1 9.5 -1h8.5q70 0 125.5 17.5t98 48.5t72.5 72t50 89 q-32 -16 -69 -24t-71 -8zM344 349q35 0 70.5 6.5t71.5 23.5q9 30 14 63.5t5 66.5q0 55 -24 89t-78 34q-39 0 -69 -16.5t-50.5 -42.5t-31 -59.5t-10.5 -67.5q0 -48 24 -72.5t78 -24.5z" glyph-name="nine.alt" horiz-adv-x="546" unicode=""/><glyph d="M294 427q-57 0 -90 32t-33 101q0 41 11.5 88t35 87.5t60 67t87.5 26.5q57 0 90 -32t33 -101q0 -41 -11.5 -88t-35 -87.5t-60 -67t-87.5 -26.5zM296 488q32 0 55 22.5t37.5 54.5t21.5 67.5t7 61.5q0 34 -11.5 54t-42.5 20q-32 0 -55 -22.5t-37.5 -54.5t-21.5 -67.5 t-7 -61.5q0 -34 11.5 -54t42.5 -20z" glyph-name="zero.sups" horiz-adv-x="359" unicode=""/><glyph d="M228 741q46 14 86.5 34.5t71.5 45.5h50l-93 -386h-71l70 290q-26 -14 -55.5 -24.5t-49.5 -16.5z" glyph-name="one.sups" horiz-adv-x="359" unicode=""/><glyph d="M431 498l-15 -63h-263q4 36 16 62.5t30 47.5t41 38t49 33l45.5 29t32.5 25t19.5 25.5t6.5 30.5q0 21 -14.5 31t-34.5 10q-42 0 -66.5 -14.5t-37.5 -25.5l-24 49q20 19 55 36t81 17q57 0 84.5 -26.5t27.5 -71.5q0 -29 -13.5 -53t-34.5 -44t-46 -36.5l-48 -30.5l-46 -30 t-34 -39h189z" glyph-name="two.sups" horiz-adv-x="359" unicode=""/><glyph d="M261 488q21 0 40.5 3t34.5 11.5t24.5 22.5t9.5 35q0 28 -26 40t-69 12h-21l14 56h25q14 0 31.5 3t32.5 10t25.5 18t10.5 28q0 23 -13.5 32t-42.5 9q-27 0 -52.5 -8t-41.5 -16l-14 52q9 6 23.5 11.5t32 10.5t35.5 8t34 3q59 0 83.5 -24t24.5 -58q0 -40 -20.5 -64 t-56.5 -41q24 -10 39.5 -29t15.5 -51q0 -66 -50 -100.5t-131 -34.5q-40 0 -68.5 8t-48.5 19l27 56q17 -8 41.5 -15t50.5 -7z" glyph-name="three.sups" horiz-adv-x="359" unicode=""/><glyph d="M475 584l-14 -56h-50l-22 -93h-68l22 93h-185l11 46q16 27 43.5 59.5t61.5 66.5t71 65.5t72 55.5h65l-57 -237h50zM357 584l38 158l-40.5 -35t-42.5 -40t-40 -42t-33 -41h118z" glyph-name="four.sups" horiz-adv-x="359" unicode=""/><glyph d="M302 675q41 -5 69 -13.5t45.5 -22t25 -33t7.5 -44.5q0 -66 -50.5 -100.5t-131.5 -34.5q-40 0 -68.5 8t-48.5 19l27 56q17 -8 41.5 -15t50.5 -7q22 0 42 3t35 11t23.5 21.5t8.5 34.5q0 32 -34.5 48.5t-124.5 20.5q17 46 33.5 96t30.5 98h216l-15 -62h-153l-13.5 -42.5 t-15.5 -41.5z" glyph-name="five.sups" horiz-adv-x="359" unicode=""/><glyph d="M178 548q0 64 23.5 115t65 86.5t99.5 54.5t127 19l-6 -60q-33 -1 -66 -6.5t-61.5 -17.5t-51 -31t-35.5 -46q21 9 43 13t38 4q31 0 51.5 -8t33 -22.5t18 -33t5.5 -39.5q0 -29 -11 -56t-32 -47.5t-51.5 -33t-68.5 -12.5q-60 0 -90.5 35t-30.5 86zM334 623q-20 0 -43.5 -4.5 t-38.5 -11.5q-8 -27 -8 -45q0 -39 14.5 -58t47.5 -19q43 0 65 26.5t22 59.5q0 52 -59 52z" glyph-name="six.sups" horiz-adv-x="359" unicode=""/><glyph d="M197 435q14 42 38 87.5t53.5 89t62.5 81t66 64.5h-199l16 64h286l-13 -55q-26 -21 -59 -56.5t-66 -80t-61.5 -94.5t-44.5 -100h-79z" glyph-name="seven.sups" horiz-adv-x="359" unicode=""/><glyph d="M286 427q-34 0 -57 8t-37.5 21t-20.5 29t-6 32q0 44 26.5 73t60.5 47q-14 11 -24 26.5t-10 44.5q0 27 11.5 49t31.5 38t47 25t59 9q33 0 55 -8t35.5 -21t19.5 -28.5t6 -31.5q0 -21 -7 -37.5t-18 -30t-25 -23.5t-28 -18q20 -11 32 -29.5t12 -44.5q0 -32 -13 -56 t-35.5 -40.5t-52 -25t-62.5 -8.5zM233 528q0 -15 11.5 -29.5t49.5 -14.5q35 0 61 16t26 48q0 23 -22.5 36t-64.5 25q-25 -12 -43 -33.5t-18 -47.5zM417 732q0 13 -11.5 26.5t-43.5 13.5t-55 -16t-23 -42q0 -18 14.5 -32t56.5 -27q23 12 42.5 31.5t19.5 45.5z" glyph-name="eight.sups" horiz-adv-x="359" unicode=""/><glyph d="M484 708q0 -63 -22 -114t-61.5 -86.5t-93.5 -54.5t-118 -19q-7 0 -15.5 0.5t-12.5 1.5l12 59q3 -1 9 -1h8q33 0 63 5.5t56 17t46.5 30t32.5 45.5q-20 -8 -42 -11.5t-38 -3.5q-32 0 -52.5 8t-33 22t-17.5 32t-5 38q0 30 11 57.5t32 48.5t51.5 33.5t68.5 12.5 q60 0 90.5 -35t30.5 -86zM328 634q20 0 42 4t40 11q8 27 8 45q0 39 -14.5 58t-47.5 19q-42 0 -64.5 -27t-22.5 -64q0 -46 59 -46z" glyph-name="nine.sups" horiz-adv-x="359" unicode=""/><glyph d="M164 -126q-57 0 -90 32t-33 101q0 41 11.5 88t35 87.5t60 67t87.5 26.5q57 0 90 -32t33 -101q0 -41 -11.5 -88t-35 -87.5t-60 -67t-87.5 -26.5zM166 -65q32 0 55 22.5t37.5 54.5t21.5 67.5t7 61.5q0 34 -11.5 54t-42.5 20q-32 0 -55 -22.5t-37.5 -54.5t-21.5 -67.5 t-7 -61.5q0 -34 11.5 -54t42.5 -20z" glyph-name="zero.sinf" horiz-adv-x="359" unicode=""/><glyph d="M98 188q46 14 86.5 34.5t71.5 45.5h50l-93 -386h-71l70 290q-26 -14 -55.5 -24.5t-49.5 -16.5z" glyph-name="one.sinf" horiz-adv-x="359" unicode=""/><glyph d="M301 -55l-15 -63h-263q4 36 16 62.5t30 47.5t41 38t49 33l45.5 29t32.5 25t19.5 25.5t6.5 30.5q0 21 -14.5 31t-34.5 10q-42 0 -66.5 -14.5t-37.5 -25.5l-24 49q20 19 55 36t81 17q57 0 84.5 -26.5t27.5 -71.5q0 -29 -13.5 -53t-34.5 -44t-46 -36.5l-48 -30.5l-46 -30 t-34 -39h189z" glyph-name="two.sinf" horiz-adv-x="359" unicode=""/><glyph d="M131 -65q21 0 40.5 3t34.5 11.5t24.5 22.5t9.5 35q0 28 -26 40t-69 12h-21l14 56h25q14 0 31.5 3t32.5 10t25.5 18t10.5 28q0 23 -13.5 32t-42.5 9q-27 0 -52.5 -8t-41.5 -16l-14 52q9 6 23.5 11.5t32 10.5t35.5 8t34 3q59 0 83.5 -24t24.5 -58q0 -40 -20.5 -64 t-56.5 -41q24 -10 39.5 -29t15.5 -51q0 -66 -50 -100.5t-131 -34.5q-40 0 -68.5 8t-48.5 19l27 56q17 -8 41.5 -15t50.5 -7z" glyph-name="three.sinf" horiz-adv-x="359" unicode=""/><glyph d="M345 31l-14 -56h-50l-22 -93h-68l22 93h-185l11 46q16 27 43.5 59.5t61.5 66.5t71 65.5t72 55.5h65l-57 -237h50zM227 31l38 158l-40.5 -35t-42.5 -40t-40 -42t-33 -41h118z" glyph-name="four.sinf" horiz-adv-x="359" unicode=""/><glyph d="M172 122q41 -5 69 -13.5t45.5 -22t25 -33t7.5 -44.5q0 -66 -50.5 -100.5t-131.5 -34.5q-40 0 -68.5 8t-48.5 19l27 56q17 -8 41.5 -15t50.5 -7q22 0 42 3t35 11t23.5 21.5t8.5 34.5q0 32 -34.5 48.5t-124.5 20.5q17 46 33.5 96t30.5 98h216l-15 -62h-153l-13.5 -42.5 t-15.5 -41.5z" glyph-name="five.sinf" horiz-adv-x="359" unicode=""/><glyph d="M48 -5q0 64 23.5 115t65 86.5t99.5 54.5t127 19l-6 -60q-33 -1 -66 -6.5t-61.5 -17.5t-51 -31t-35.5 -46q21 9 43 13t38 4q31 0 51.5 -8t33 -22.5t18 -33t5.5 -39.5q0 -29 -11 -56t-32 -47.5t-51.5 -33t-68.5 -12.5q-60 0 -90.5 35t-30.5 86zM204 70q-20 0 -43.5 -4.5 t-38.5 -11.5q-8 -27 -8 -45q0 -39 14.5 -58t47.5 -19q43 0 65 26.5t22 59.5q0 52 -59 52z" glyph-name="six.sinf" horiz-adv-x="359" unicode=""/><glyph d="M67 -118q14 42 38 87.5t53.5 89t62.5 81t66 64.5h-199l16 64h286l-13 -55q-26 -21 -59 -56.5t-66 -80t-61.5 -94.5t-44.5 -100h-79z" glyph-name="seven.sinf" horiz-adv-x="359" unicode=""/><glyph d="M156 -126q-34 0 -57 8t-37.5 21t-20.5 29t-6 32q0 44 26.5 73t60.5 47q-14 11 -24 26.5t-10 44.5q0 27 11.5 49t31.5 38t47 25t59 9q33 0 55 -8t35.5 -21t19.5 -28.5t6 -31.5q0 -21 -7 -37.5t-18 -30t-25 -23.5t-28 -18q20 -11 32 -29.5t12 -44.5q0 -32 -13 -56 t-35.5 -40.5t-52 -25t-62.5 -8.5zM103 -25q0 -15 11.5 -29.5t49.5 -14.5q35 0 61 16t26 48q0 23 -22.5 36t-64.5 25q-25 -12 -43 -33.5t-18 -47.5zM287 179q0 13 -11.5 26.5t-43.5 13.5t-55 -16t-23 -42q0 -18 14.5 -32t56.5 -27q23 12 42.5 31.5t19.5 45.5z" glyph-name="eight.sinf" horiz-adv-x="359" unicode=""/><glyph d="M354 155q0 -63 -22 -114t-61.5 -86.5t-93.5 -54.5t-118 -19q-7 0 -15.5 0.5t-12.5 1.5l12 59q3 -1 9 -1h8q33 0 63 5.5t56 17t46.5 30t32.5 45.5q-20 -8 -42 -11.5t-38 -3.5q-32 0 -52.5 8t-33 22t-17.5 32t-5 38q0 30 11 57.5t32 48.5t51.5 33.5t68.5 12.5 q60 0 90.5 -35t30.5 -86zM198 81q20 0 42 4t40 11q8 27 8 45q0 39 -14.5 58t-47.5 19q-42 0 -64.5 -27t-22.5 -64q0 -46 59 -46z" glyph-name="nine.sinf" horiz-adv-x="359" unicode=""/><glyph d="M425 776l-81 -223h-65l54 223h92z" glyph-name="caron.alt"/><glyph d="M159 -50q-5 -29 -14 -54t-25.5 -43.5t-40.5 -29t-59 -10.5q-11 0 -22.5 1.5t-18.5 3.5l14 55q2 -1 6.5 -1h7.5q27 0 40.5 16t24.5 62h87z" glyph-name="commaaccent" horiz-adv-x="249"/><glyph d="M211 609q7 70 46 115t102 56l27 -44q-18 -8 -31.5 -17.5t-23.5 -24t-17.5 -35t-13.5 -50.5h-89z" glyph-name="revcommaaccent" horiz-adv-x="249"/><glyph d="M425 776l-74 -194h-65l47 194h92z" glyph-name="caron.alt.short"/><glyph d="M501 784q-63 -63 -114 -133.5t-86.5 -146t-55 -155t-19.5 -161.5q0 -85 12 -153t41 -131l-71 -40q-34 60 -53 139t-19 166q0 190 76.5 354t226.5 305z" glyph-name="Parenleft" horiz-adv-x="317"/><glyph d="M-39 -92q63 63 114 133.5t86.5 146t55 155t19.5 161.5q0 85 -12 153t-41 131l71 40q34 -60 53 -139t19 -166q0 -190 -76.5 -354t-226.5 -305z" glyph-name="Parenright" horiz-adv-x="317"/><glyph d="M112 390h242l-20 -87h-242z" glyph-name="Hyphen" horiz-adv-x="293"/><glyph d="M38 -138h-93l559 968h93z" glyph-name="Slash"/><glyph d="M710 111q-63 0 -89 35q-23 -14 -54 -22.5t-66 -8.5q-75 0 -120 42.5t-45 127.5q0 57 19.5 110.5t56.5 94t90 65t121 24.5q52 0 90.5 -9t58.5 -17l-73 -304q-5 -15 -5 -29q0 -12 6.5 -21t26.5 -9q42 0 72 24.5t50 63t29.5 84.5t9.5 89q0 55 -14 101t-45.5 79t-82.5 51.5 t-125 18.5q-87 0 -162 -37.5t-130 -100t-86 -145t-31 -172.5q0 -67 19.5 -115t54.5 -79t84 -46t108 -15q58 0 97.5 7.5t50.5 11.5l-7 -74q-9 -3 -26 -6.5t-38.5 -7t-46 -5.5t-48.5 -2q-72 0 -133 20.5t-105.5 61t-69.5 100.5t-25 139q0 100 33.5 197.5t98.5 173.5t159 123 t216 47q163 0 251 -81t88 -239q0 -47 -10.5 -106.5t-39.5 -113t-80.5 -90t-132.5 -36.5zM514 190q54 0 92 20q0 17 2 28.5t5 22.5l57 235q-5 2 -22 4t-37 2q-43 0 -77 -17t-58 -46t-37 -67t-13 -79q0 -54 22.5 -78.5t65.5 -24.5z" glyph-name="At" horiz-adv-x="931"/><glyph d="M292 830h221l-17 -73h-134l-198 -822h134l-18 -73h-221z" glyph-name="Bracketleft" horiz-adv-x="322"/><glyph d="M176 830h85l106 -968h-87z" glyph-name="Backslash"/><glyph d="M191 -138h-221l17 73h134l198 822h-134l18 73h221z" glyph-name="Bracketright" horiz-adv-x="322"/><glyph d="M131 382q22 0 41 8.5t33.5 22t24 31t13.5 35.5l43 180q11 46 27.5 78.5t43 53t65 30t92.5 9.5h4l-18 -73q-27 0 -48 -3.5t-36.5 -14.5t-26.5 -30.5t-18 -50.5l-37 -154q-16 -66 -38.5 -103t-64.5 -55q21 -17 29.5 -40.5t8.5 -49.5q0 -17 -3 -34t-7 -34l-37 -154 q-3 -14 -5 -25t-2 -20q0 -32 21 -42t66 -12l-19 -73h-4q-72 0 -111 25.5t-39 85.5q0 23 8 60l43 180q4 15 4 29q0 28 -16.5 47t-54.5 21z" glyph-name="Braceleft" horiz-adv-x="326"/><glyph d="M356 310q-23 0 -42 -8.5t-33 -22t-23.5 -31t-13.5 -35.5l-43 -180q-11 -46 -27.5 -78.5t-43 -53t-65 -30t-92.5 -9.5h-4l18 73q28 0 48.5 3.5t36 14.5t26 30t18.5 51l37 154q16 66 38.5 103t64.5 55q-21 17 -29.5 40.5t-8.5 49.5q0 17 3 34t7 34l37 154q3 14 5 25t2 20 q0 32 -21 42t-66 12l19 73h4q72 0 111 -25.5t39 -85.5q0 -23 -8 -60l-43 -180q-4 -15 -4 -29q0 -28 16.5 -47t54.5 -21z" glyph-name="Braceright" horiz-adv-x="326"/><glyph d="M290 154l-62 -29l-118 227l203 215l58 -35l-157 -190z" glyph-name="Guilsinglleft" horiz-adv-x="291"/><glyph d="M390 353q0 -26 -9 -49t-25.5 -40t-40 -27.5t-53.5 -10.5t-53.5 10.5t-40 27.5t-25.5 40t-9 49q0 25 9 48.5t25.5 40.5t40 27.5t53.5 10.5t53.5 -10.5t40 -27.5t25.5 -40.5t9 -48.5z" glyph-name="Bullet" horiz-adv-x="360"/><glyph d="M91 386h500l-19 -79h-500z" glyph-name="Endash" horiz-adv-x="496"/><glyph d="M91 386h1000l-19 -79h-1000z" glyph-name="Emdash" horiz-adv-x="996"/><glyph d="M165 538l62 29l118 -227l-203 -215l-58 35l157 190z" glyph-name="Guilsinglright" horiz-adv-x="291"/><glyph d="M72 0l45 188q6 24 16.5 62.5t23 79.5t26 80.5t24.5 65.5h57q-8 -68 -18.5 -136.5t-30.5 -152.5l-45 -187h-98zM265 571q-28 0 -44 15t-16 44q0 36 21.5 55.5t49.5 19.5t44.5 -15.5t16.5 -45.5q0 -17 -6.5 -30.5t-16.5 -23t-23 -14.5t-26 -5z" glyph-name="Exclamdown" horiz-adv-x="250"/><glyph d="M290 154l-62 -29l-118 227l203 215l58 -35l-157 -190zM498 154l-62 -29l-118 227l203 215l58 -35l-157 -190z" glyph-name="Guillemotleft" horiz-adv-x="499"/><glyph d="M165 538l62 29l118 -227l-203 -215l-58 35l157 190zM373 538l62 29l118 -227l-203 -215l-58 35l157 190z" glyph-name="Guillemotright" horiz-adv-x="499"/><glyph d="M234 -3q-47 0 -79 11t-52 29.5t-28.5 43.5t-8.5 52q0 33 9.5 59.5t26.5 49t40 43t50 41.5q33 26 63 57t41 75q2 6 2.5 11t0.5 7h81q-1 -12 -2 -21.5t-3 -19.5q-12 -51 -46.5 -87.5t-72.5 -65.5l-35 -28.5t-31 -31t-22.5 -35.5t-8.5 -42q0 -11 3 -24t12.5 -23.5 t26.5 -17.5t45 -7q48 0 80 11t50 20l10 -72q-24 -14 -65.5 -24.5t-86.5 -10.5zM350 571q-28 0 -44 15t-16 44q0 36 21.5 55.5t49.5 19.5t44.5 -15.5t16.5 -45.5q0 -17 -6.5 -30.5t-16.5 -23t-23 -14.5t-26 -5z" glyph-name="Questiondown" horiz-adv-x="384"/><glyph d="M239 683l19 77l97 16l-22 -93h157l-16 -69h-158l-28 -120q23 14 53 24t64 10q43 0 75.5 -13.5t54 -37.5t32 -57.5t10.5 -72.5q0 -69 -22 -133.5t-67 -114.5t-112.5 -80t-158.5 -30q-15 0 -33 1.5t-36.5 5.5t-36 10t-30.5 14l142 594h-73l16 69h73zM382 449 q-30 0 -59.5 -10.5t-55.5 -29.5l-80 -334q10 -2 23 -4t26 -2q57 0 103 22t78 59t49.5 85.5t17.5 101.5q0 22 -4.5 42.5t-16.5 36t-31.5 24.5t-49.5 9z" glyph-name="uni0180" horiz-adv-x="555" unicode="ƀ"/><glyph d="M379 400h95q33 0 67.5 5.5t63 20t47 39.5t18.5 64q0 51 -38 71t-116 20q-29 0 -49.5 -0.5t-34.5 -1.5zM334 612q-115 -7 -115 -111l-78 -9q-1 4 -1 8.5v6.5q0 70 33.5 109t89 57.5t127 22.5t147.5 4q51 0 93.5 -8.5t73 -27t48 -48.5t17.5 -72q0 -61 -36.5 -107.5 t-100.5 -69.5q43 -16 69.5 -49t26.5 -81q0 -69 -28 -116t-76.5 -75.5t-114 -40.5t-140.5 -12q-20 0 -43.5 1t-47.5 3t-47 5.5t-41 8.5zM360 324l-58 -246q11 -2 33 -3.5t56 -1.5q37 0 79 5.5t77 22t58.5 46.5t23.5 80q0 49 -35 73t-113 24h-121z" glyph-name="uni0181" horiz-adv-x="724" unicode="Ɓ"/><glyph d="M247 693h407l-18 -81h-312l-43 -178h81q121 0 184 -42t63 -136q0 -66 -25 -115.5t-69.5 -82.5t-106.5 -49t-137 -16q-22 0 -47 1t-50 3t-48.5 5.5t-42.5 8.5zM196 80q8 -2 29.5 -3.5t50.5 -1.5q48 0 90 9t74 29.5t50.5 53.5t18.5 81q0 30 -11.5 50.5t-32.5 33t-50.5 17.5 t-64.5 5h-88z" glyph-name="uni0182" horiz-adv-x="602" unicode="Ƃ"/><glyph d="M288 494q23 14 53 24t64 10q43 0 75.5 -13.5t54 -37.5t32 -57.5t10.5 -72.5q0 -69 -22 -133.5t-67 -114.5t-112.5 -80t-158.5 -30q-15 0 -33 1.5t-36.5 5.5t-36 10t-30.5 14l180 751h362l-19 -78h-269zM382 449q-30 0 -59.5 -10.5t-55.5 -29.5l-80 -334q10 -2 23 -4 t26 -2q57 0 103 22t78 59t49.5 85.5t17.5 101.5q0 22 -4.5 42.5t-16.5 36t-31.5 24.5t-49.5 9z" glyph-name="uni0183" horiz-adv-x="555" unicode="ƃ"/><glyph d="M383 454q-30 0 -59.5 -10.5t-55.5 -29.5l-81 -339q10 -2 23 -4t26 -2q57 0 103 22.5t78 60t49.5 86t17.5 101.5q0 22 -4.5 43t-16 37t-31 25.5t-49.5 9.5zM228 633l-52 75q40 21 85.5 39t93.5 29l-66 -277q23 14 53 24t64 10q43 0 75.5 -14t53.5 -38.5t31.5 -58.5 t10.5 -73q0 -69 -22 -133.5t-67 -115t-112.5 -81t-158.5 -30.5q-15 0 -33 1.5t-36.5 5.5t-36 10t-30.5 14z" glyph-name="uni0184" horiz-adv-x="555" unicode="Ƅ"/><glyph d="M293 441q21 2 42 2.5t39 0.5q127 0 187.5 -46t60.5 -134q0 -69 -25.5 -120t-71.5 -84.5t-108.5 -50t-137.5 -16.5q-22 0 -47 1t-50 3t-48.5 5t-41.5 8l131 545l-52 76q16 9 37.5 18.5t46 19t50.5 17.5t50 14zM288 75q46 0 89 9t75 30.5t51.5 56t19.5 85.5 q0 58 -44.5 82.5t-117.5 24.5q-38 0 -59.5 -1.5t-28.5 -2.5l-67 -279q20 -5 82 -5z" glyph-name="uni0185" horiz-adv-x="613" unicode="ƅ"/><glyph d="M379 709q60 0 107 -18t79.5 -51t49.5 -79.5t17 -103.5q0 -94 -25.5 -179.5t-75.5 -150.5t-125.5 -103.5t-174.5 -38.5q-44 0 -78 6t-59 14.5t-39.5 16.5t-19.5 12l45 79q7 -5 21.5 -12.5t34 -14.5t44.5 -11.5t55 -4.5q75 0 130.5 32.5t92.5 85t55 118.5t18 134 q0 94 -42 138.5t-127 44.5q-63 0 -105 -12.5t-64 -23.5l-7 84q6 4 22 10.5t41 12.5t58 10.5t72 4.5z" glyph-name="uni0186" horiz-adv-x="594" unicode="Ɔ"/><glyph d="M525 709q32 0 64.5 -5t54.5 -15q28 52 64.5 74.5t91.5 22.5q22 0 40.5 -5t28.5 -10l-31 -68q-7 3 -17 5.5t-24 2.5q-27 0 -44.5 -10.5t-30 -27.5t-22.5 -40t-22 -48q-17 10 -57.5 25t-100.5 15q-69 0 -124 -32.5t-93 -84t-58 -116t-20 -127.5q0 -195 169 -195 q36 0 64.5 5t50.5 11.5t39 14.5l30 14l12 -84q-12 -7 -31.5 -15t-45.5 -15t-58 -11.5t-68 -4.5q-65 0 -114.5 19t-82.5 54t-49.5 84.5t-16.5 111.5q0 90 28.5 172t81 145t126.5 100.5t165 37.5z" glyph-name="uni0187" horiz-adv-x="657" unicode="Ƈ"/><glyph d="M413 532q12 0 27.5 -1.5t21.5 -3.5q26 59 61 80.5t80 21.5q24 0 40.5 -4.5t26.5 -9.5l-30 -66q-7 3 -17 6t-23 3q-22 0 -37 -10.5t-26.5 -28t-20 -39.5l-17.5 -45q-14 7 -37 12t-58 5q-49 0 -88 -21.5t-66.5 -57t-42 -82t-14.5 -96.5q0 -26 5.5 -49t19.5 -40.5 t37.5 -27.5t59.5 -10q18 0 38 3.5t37 8.5t30.5 10.5t19.5 10.5l8 -79q-19 -12 -59 -23.5t-91 -11.5q-48 0 -85 14.5t-62 41t-38 63t-13 80.5q0 68 20.5 130.5t60.5 110.5t98.5 76.5t133.5 28.5z" glyph-name="uni0188" horiz-adv-x="486" unicode="ƈ"/><glyph d="M442 700q154 0 230 -72.5t76 -195.5q0 -86 -27 -165.5t-84 -140.5t-145.5 -97t-211.5 -36q-42 0 -91 4t-86 14l75 313h-81l18 75h81l68 285q42 10 89 13t89 3zM434 618q-75 0 -90 -4l-52 -215h130l-18 -75h-130l-58 -244q8 -2 27 -3.5t62 -1.5q79 0 142.5 26.5t107.5 74 t68 113t24 143.5q0 88 -51 137t-162 49z" glyph-name="uni0189" horiz-adv-x="710" unicode="Ɖ"/><glyph d="M524 619q-35 0 -56.5 -0.5t-35.5 -1.5l-129 -537q8 -2 27 -3.5t62 -1.5q79 0 142.5 26.5t107.5 74t68 113t24 143.5q0 88 -50.5 137.5t-159.5 49.5zM334 612q-115 -7 -115 -111l-78 -9q-1 4 -1 8.5v6.5q0 70 33.5 109t88 57.5t124.5 22.5t143 4q154 0 230 -72.5 t76 -195.5q0 -86 -27 -165.5t-84 -140.5t-145.5 -97t-211.5 -36q-42 0 -91 4t-86 14z" glyph-name="uni018A" horiz-adv-x="797" unicode="Ɗ"/><glyph d="M93 173q0 66 25 115.5t69.5 81.5t106.5 48t137 16h95l43 178h-332l18 81h431l-165 -683q-21 -5 -46 -8t-49.5 -5t-47.5 -3t-41 -1q-119 2 -181.5 44.5t-62.5 135.5zM352 75q36 0 56.5 1t32.5 3l66 275h-81q-48 0 -90 -9t-74 -29.5t-50.5 -53.5t-18.5 -81 q0 -30 11.5 -50.5t32.5 -33t50.5 -17.5t64.5 -5z" glyph-name="uni018B" horiz-adv-x="604" unicode="Ƌ"/><glyph d="M512 191q-5 -23 -9 -44t-4 -44t4 -46.5t14 -50.5l-82 -12q-10 19 -18 52q-22 -20 -58.5 -39.5t-90.5 -19.5q-44 0 -76 13.5t-53 38.5t-31 59.5t-10 75.5q0 67 22.5 131t67 114t111.5 80.5t156 30.5q11 0 22 -1t23 -3l40 167h-269l19 78h362zM287 66q42 0 71.5 17.5 t51.5 40.5q1 16 3.5 34.5t7.5 40.5l60 250q-9 2 -20 2.5t-21 0.5q-57 0 -103 -22t-78.5 -59t-50 -85.5t-17.5 -101.5q0 -23 5 -44t16 -37.5t29.5 -26.5t45.5 -10z" glyph-name="uni018C" horiz-adv-x="548" unicode="ƌ"/><glyph d="M578 349q0 -57 -17 -103.5t-46.5 -83t-68.5 -63t-84 -44.5q26 -20 39 -42.5t13 -56.5q0 -41 -17 -68.5t-46 -44t-67 -24t-80 -7.5q-55 0 -93 10t-64 24l33 73q13 -9 49.5 -21.5t82.5 -12.5q17 0 37 2t37 9t28 19t11 33q0 16 -7 28t-21 23.5t-35.5 25l-49.5 32.5 q-46 31 -73.5 75.5t-27.5 108.5q0 61 19.5 114.5t56.5 93t90 62t120 22.5q48 0 82.5 -15.5t56 -41t32 -58.5t10.5 -69zM201 244q0 -51 24 -83t75 -60q40 14 74.5 36t59 51.5t38.5 67t14 82.5q0 22 -5 42.5t-17 36.5t-30.5 26t-45.5 10q-44 0 -79 -15.5t-59 -43.5t-36.5 -66 t-12.5 -84z" glyph-name="uni018D" horiz-adv-x="552" unicode="ƍ"/><glyph d="M638 693l-166 -693h-428l19 81h332l58 243h-278l19 79h277l51 209h-313l19 81h410z" glyph-name="uni018E" horiz-adv-x="557" unicode="Ǝ"/><glyph d="M117 204q0 28 6 73t21 93h475q6 34 6 70q0 94 -45 139t-130 45q-69 0 -116 -15t-69 -26l-7 84q8 5 27 12t46.5 14t62 11.5t73.5 4.5q60 0 108 -18t81 -51t51 -79.5t18 -103.5q0 -93 -25 -178.5t-74.5 -150.5t-122.5 -104t-168 -39q-48 0 -88.5 13.5t-69 41t-44.5 68.5 t-16 96zM344 67q50 0 91 18.5t73.5 49t55.5 71.5t37 86h-378q-10 -39 -10 -83q0 -64 32.5 -103t98.5 -39z" glyph-name="uni018F" horiz-adv-x="687" unicode="Ə"/><glyph d="M471 709q30 0 57 -4.5t49.5 -11.5t39.5 -14.5t25 -13.5l-47 -77q-17 14 -55.5 26t-89.5 12q-75 0 -119 -34.5t-44 -95.5q0 -26 11 -43t29 -28t42 -15.5t51 -4.5h78l-20 -79h-60q-31 0 -71 -5.5t-75.5 -23t-60 -48.5t-24.5 -82t38.5 -75t101.5 -24q36 0 66 4.5t53.5 11 t41 14l28.5 12.5l7 -84q-8 -5 -27.5 -12t-47 -13.5t-62 -11t-72.5 -4.5q-106 0 -166 44.5t-60 129.5q0 44 14 78.5t39 61t59.5 44.5t75.5 29q-85 37 -85 126q0 54 25 94t64.5 66t89.5 38.5t101 12.5z" glyph-name="uni0190" horiz-adv-x="538" unicode="Ɛ"/><glyph d="M247 693h405l-19 -81h-309l-51 -212h274l-19 -79h-273l-77 -321q-11 -46 -23.5 -81t-33 -58.5t-52.5 -35.5t-81 -12q-14 0 -34 4t-28 9l24 70q6 -3 17 -5.5t25 -2.5q40 0 57 25t28 70z" glyph-name="uni0191" horiz-adv-x="524" unicode="Ƒ"/><glyph d="M525 625q-71 0 -127 -32.5t-94.5 -84t-58.5 -116t-20 -127.5q0 -99 42 -147.5t133 -48.5q37 0 67 5t43 10l60 254h95l-76 -316q-12 -7 -33 -13.5t-49 -11.5t-60.5 -8t-66.5 -3q-126 0 -191 72.5t-65 195.5q0 90 28.5 172t81.5 145t127.5 100.5t167.5 37.5q78 0 124 -20 q28 52 64.5 74.5t91.5 22.5q22 0 40.5 -5t28.5 -10l-31 -68q-7 3 -17 5.5t-24 2.5q-27 0 -44.5 -10.5t-30 -27.5t-22.5 -40t-22 -48q-17 10 -57 25t-105 15z" glyph-name="uni0193" horiz-adv-x="666" unicode="Ɠ"/><glyph d="M376 270l6 -22l66 88l71 100l78 117.5l87 139.5h105q-88 -146 -184 -281.5t-199 -262.5q20 -66 29.5 -111t9.5 -72q0 -69 -42.5 -109.5t-120.5 -40.5q-38 0 -61.5 11.5t-36 28.5t-17 37t-4.5 37q0 26 9.5 51t28 53.5t45.5 61l62 73.5q-2 4 -4 15l-140 509h96zM247 -59 q0 -17 8.5 -32.5t37.5 -15.5q20 0 33 7.5t20.5 18t10 22.5t2.5 21q0 23 -4.5 49t-17.5 70q-50 -55 -70 -86.5t-20 -53.5z" glyph-name="uni0194" horiz-adv-x="634" unicode="Ɣ"/><glyph d="M438 250q8 31 14 60.5t6 55.5q0 38 -19.5 61.5t-74.5 23.5q-24 0 -49 -4.5t-42 -12.5l-104 -434h-93l183 760l97 16l-64 -263q23 8 48 13t51 5q44 0 74.5 -11.5t49.5 -32t27.5 -49.5t8.5 -64q0 -24 -4.5 -50t-11.5 -54q-3 -13 -7.5 -28.5t-8 -32l-6.5 -32t-3 -27.5 q0 -32 16.5 -55t61.5 -23q32 0 54.5 9t38.5 28t27.5 49.5t21.5 74.5l67 286h93l-70 -298q-10 -43 -23.5 -84.5t-39 -74t-67.5 -52.5t-109 -20q-46 0 -77 12t-49.5 32.5t-26.5 47.5t-8 58q0 26 5.5 54t12.5 56z" glyph-name="uni0195" horiz-adv-x="835" unicode="ƕ"/><glyph d="M220 185q-4 -14 -7 -28.5t-3 -28.5q0 -25 15 -42.5t56 -17.5q26 0 43.5 4t29.5 9l3 -77q-12 -6 -40 -12.5t-53 -6.5q-83 0 -116 36.5t-33 94.5q0 18 3 38.5t8 43.5l119 495h97z" glyph-name="uni0196" horiz-adv-x="359" unicode="Ɩ"/><glyph d="M192 324h-95l18 75h95l71 294h97l-71 -294h97l-18 -75h-97l-77 -324h-97z" glyph-name="uni0197" horiz-adv-x="328" unicode="Ɨ"/><glyph d="M603 594q-75 -63 -133.5 -122l-106.5 -108q33 -33 69 -75.5t72 -90.5t69 -99t59 -99h-107q-28 46 -61 94t-67.5 92t-70 82.5t-68.5 65.5l-80 -334h-97l166 693h97l-74 -308l144 143l120 112q18 16 33.5 28.5t31.5 21t33.5 13t38.5 4.5q41 0 63.5 -13t40.5 -35l-49 -64 q-13 16 -24.5 23.5t-27.5 7.5q-23 0 -39 -9.5t-32 -22.5z" glyph-name="uni0198" horiz-adv-x="630" unicode="Ƙ"/><glyph d="M244 313q33 24 68 52.5l66.5 56.5l58 53.5t43.5 44.5h110q-21 -26 -53.5 -58l-68.5 -64.5l-72.5 -62.5t-65.5 -51q27 -25 54.5 -59.5t53 -73t46.5 -78t35 -73.5h-101q-35 81 -83.5 149t-102.5 111l-63 -260h-93l141 589q11 46 23 81t32 58.5t51 35.5t81 12q14 0 34 -4 t28 -9l-24 -70q-6 3 -17 5.5t-25 2.5q-39 0 -57 -25t-29 -70z" glyph-name="uni0199" horiz-adv-x="517" unicode="ƙ"/><glyph d="M287 437h88l-16 -70h-89l-33 -138l-10 -43t-5 -40q0 -34 16.5 -54t61.5 -25l-21 -76q-41 1 -69.5 12.5t-46 30.5t-25.5 45t-8 57q0 23 4 48t11 52l31 131h-74l16 70h75l78 323l97 16z" glyph-name="uni019A" horiz-adv-x="298" unicode="ƚ"/><glyph d="M327 582l-116 -37l-8 63l110 35q-10 29 -26.5 43.5t-45.5 14.5q-14 0 -28.5 -2t-26.5 -7l4 75q14 5 32 7t37 2q61 0 91.5 -27.5t44.5 -78.5l123 39l8 -63l-118 -38q32 -175 47 -327t20 -281h-92q-2 97 -8 199t-21 222l-71 -104.5t-61.5 -101.5t-53 -104t-45.5 -111h-95 q28 75 62 143.5t73 133t82.5 125.5l90.5 122z" glyph-name="uni019B" horiz-adv-x="491" unicode="ƛ"/><glyph d="M648 -15q-46 0 -87.5 14t-62.5 46q-11 -8 -31 -18.5t-45.5 -19.5t-55.5 -15.5t-60 -6.5q-53 0 -87.5 13.5t-54.5 36.5t-28.5 54t-8.5 66q0 18 3.5 45t11.5 62l104 431h97l-98 -406q-8 -36 -14 -67.5t-6 -54.5q0 -43 21 -69.5t78 -26.5q23 0 45 5t41.5 12.5t35 16.5 t25.5 17q-2 10 -2 19.5v20.5q0 41 14 102l104 431h97l-98 -406q-9 -38 -14.5 -68t-5.5 -54q0 -49 23.5 -72.5t74.5 -23.5q18 0 35.5 1t33 2.5t28 4t18.5 4.5l147 612h97l-164 -681q-38 -10 -91 -18.5t-120 -8.5z" glyph-name="uni019C" horiz-adv-x="942" unicode="Ɯ"/><glyph d="M176 0q-11 -46 -23.5 -81t-32.5 -58.5t-51.5 -35.5t-80.5 -12q-14 0 -34 4t-28 9l24 70q6 -3 17 -5.5t25 -2.5q40 0 57 25t28 70l170 710h83q32 -54 65.5 -122.5t64 -140.5t56.5 -141t43 -124l124 528h95l-165 -693h-85l-43 132t-54.5 150t-60.5 147.5t-61 124.5z" glyph-name="uni019D" horiz-adv-x="698" unicode="Ɲ"/><glyph d="M169 0h-93l120 500q46 14 99.5 22.5t95.5 8.5q45 0 77.5 -12.5t52.5 -34t29.5 -52t9.5 -66.5q0 -23 -4 -48.5t-10 -51.5l-109 -451h-93l104 431q7 28 13.5 57t6.5 55q0 40 -22 66.5t-82 26.5q-25 0 -49 -3t-40 -8z" glyph-name="uni019E" horiz-adv-x="551" unicode="ƞ"/><glyph d="M525 709q55 0 101.5 -16.5t80 -49.5t52 -82.5t18.5 -115.5q0 -83 -25.5 -165t-75.5 -147.5t-125 -106.5t-175 -41q-56 0 -102 16.5t-79.5 49.5t-52 82.5t-18.5 115.5q0 82 25 164.5t75.5 148t125.5 106.5t175 41zM386 69q52 0 95.5 19.5t78 53t59.5 77.5t39 93h-430 q-3 -26 -3 -51q0 -89 38.5 -140.5t122.5 -51.5zM515 625q-51 0 -94.5 -19t-78 -52t-59.5 -76.5t-40 -91.5h430q1 8 2 22.5t1 24.5q0 89 -38.5 140.5t-122.5 51.5z" glyph-name="uni019F" horiz-adv-x="739" unicode="Ɵ"/><glyph d="M525 709q108 0 174 -60q23 16 37 35t22 39t11 40t5 38h93q-7 -67 -38 -121t-85 -88q16 -29 24.5 -65.5t8.5 -81.5q0 -83 -25.5 -165t-75.5 -147.5t-125 -106.5t-175 -41q-56 0 -102 16.5t-79.5 49.5t-52 82.5t-18.5 115.5q0 82 25 164.5t75.5 148t125.5 106.5t175 41z M386 69q67 0 121 32.5t91.5 84.5t57.5 117t20 130q0 89 -38.5 140.5t-122.5 51.5q-68 0 -121.5 -32.5t-91 -84.5t-57.5 -117t-20 -130q0 -89 38.5 -140.5t122.5 -51.5z" glyph-name="Ohorn" horiz-adv-x="739" unicode="Ơ"/><glyph d="M275 -13q-82 0 -128.5 48.5t-46.5 133.5q0 58 16.5 122t52.5 118t93 89t138 35q83 0 130 -51q20 15 32 33.5t18.5 38t9 38.5t4.5 36h92q-7 -66 -37.5 -119.5t-84.5 -87.5q5 -16 8 -33t3 -37q0 -58 -16.5 -122t-52.5 -118t-93 -89t-138 -35zM291 66q45 0 80.5 26t60 66.5 t37.5 89.5t13 95q0 51 -22 81t-76 30q-45 0 -80.5 -26t-60 -66.5t-37.5 -89.5t-13 -95q0 -51 22 -81t76 -30z" glyph-name="ohorn" horiz-adv-x="555" unicode="ơ"/><glyph d="M515 709q106 0 171 -63q35 23 80 42.5t109 19.5q46 0 77 -11.5t49.5 -31.5t26 -47.5t7.5 -59.5q0 -56 -16 -116l-106 -442h-97l100 417q6 23 12.5 54t6.5 61q0 19 -3.5 36t-12.5 29.5t-25.5 19.5t-42.5 7q-21 0 -40 -5t-34 -11.5t-26.5 -14t-17.5 -12.5q13 -28 20 -62 t7 -74q0 -83 -25 -165t-74 -147.5t-122 -106.5t-169 -41q-53 0 -98 16.5t-77.5 49.5t-51 82.5t-18.5 115.5q0 82 25 164.5t74 148t122 106.5t169 41zM380 69q64 0 115.5 32.5t88 84.5t56 117t19.5 130q0 89 -37 140.5t-117 51.5q-64 0 -115.5 -32.5t-88 -84.5t-56 -117 t-19.5 -130q0 -89 37 -140.5t117 -51.5z" glyph-name="uni01A2" horiz-adv-x="998" unicode="Ƣ"/><glyph d="M267 -13q-78 0 -122.5 48t-44.5 133q0 58 16.5 122t52 118t91 89.5t134.5 35.5q37 0 66.5 -11.5t51.5 -32.5q22 16 59.5 29t75.5 13q80 0 115 -38t35 -102q0 -48 -13 -99l-115 -477h-93l110 457q8 34 13 61t5 47q0 33 -16 51.5t-61 18.5q-26 0 -46 -7t-31 -15 q12 -33 12 -76q0 -58 -16.5 -122t-52 -118t-91.5 -89.5t-135 -35.5zM285 67q43 0 77.5 26t58 66.5t36 89t12.5 94.5q0 51 -21 80.5t-72 29.5q-44 0 -78 -26t-57.5 -66.5t-36 -89t-12.5 -94.5q0 -51 21 -80.5t72 -29.5z" glyph-name="uni01A3" horiz-adv-x="788" unicode="ƣ"/><glyph d="M529 700q121 0 182.5 -46t61.5 -134q0 -68 -25.5 -117.5t-72.5 -81.5t-113 -47.5t-147 -15.5h-69l-62 -258h-97l147 612q-115 -7 -115 -111l-78 -9q-1 4 -1 8.5v6.5q0 70 33.5 109t88 57.5t124.5 22.5t143 4zM521 619q-32 0 -53.5 -0.5t-35.5 -1.5l-67 -278h63 q42 0 86 7.5t79 26.5t57.5 52.5t22.5 86.5q0 57 -41 82t-111 25z" glyph-name="uni01A4" horiz-adv-x="696" unicode="Ƥ"/><glyph d="M356 454q-25 0 -46 -4.5t-35 -8.5l-88 -368q10 -2 21.5 -2.5t22.5 -0.5q57 0 102 22t76.5 59.5t48.5 86t17 101.5q0 22 -5 43t-18.5 37t-36.5 25.5t-59 9.5zM295 521q49 12 84 12q49 0 84.5 -14t58.5 -38.5t34.5 -58t11.5 -73.5q0 -69 -21 -133.5t-64.5 -114.5t-110 -80 t-157.5 -30q-11 0 -24 1t-23 3l-43 -180h-93l186 774q11 46 23 81t32 58.5t51 35.5t80 12q14 0 34 -4t28 -9l-24 -70q-6 3 -17 5.5t-25 2.5q-39 0 -56.5 -25t-28.5 -70z" glyph-name="uni01A5" horiz-adv-x="546" unicode="ƥ"/><glyph d="M364 776l-19 -81q19 2 39.5 2.5t39.5 0.5q111 0 175.5 -44t64.5 -131q0 -88 -51.5 -147.5t-144.5 -85.5q38 -75 81.5 -173.5t82.5 -225.5h-100q-38 118 -77 211.5t-81 172.5q-13 -1 -27 -1.5t-27 -0.5h-77l-65 -273h-97l186 776h97zM262 352h59q41 0 84 6t78.5 23.5 t58 49t22.5 83.5q0 28 -11.5 47.5t-31.5 31.5t-48.5 17.5t-62.5 5.5q-37 0 -57.5 -1t-27.5 -2z" glyph-name="uni01A6" horiz-adv-x="618" unicode="Ʀ"/><glyph d="M292 -15q-112 0 -161.5 43t-49.5 118q0 57 22 97.5t58 69t81 48t91 34.5q40 13 71.5 26t54 30.5t34.5 40t12 53.5q0 38 -25 59.5t-79 21.5q-60 0 -101.5 -14t-66.5 -27l-13 79q13 8 34.5 16t47.5 14.5t54 10.5t54 4q97 0 144.5 -42t47.5 -108q0 -52 -17.5 -89.5 t-48 -64.5t-72.5 -47t-90 -37q-38 -13 -73 -26.5t-62 -32t-43.5 -44t-16.5 -62.5q0 -48 32 -68t89 -20q36 0 66 4.5t53.5 11t41 14l28.5 12.5l7 -84q-8 -5 -27.5 -12t-46.5 -13.5t-60.5 -11t-69.5 -4.5z" glyph-name="uni01A7" horiz-adv-x="532" unicode="Ƨ"/><glyph d="M255 298q27 9 50.5 18t41 20t27 26.5t9.5 36.5q0 16 -6.5 27t-17.5 18t-24.5 9.5t-28.5 2.5q-46 0 -81 -12.5t-49 -19.5l-5 78q18 10 59 20.5t89 10.5q70 0 112 -32t42 -92q0 -45 -17.5 -75.5t-45 -51t-62.5 -34t-70 -25.5q-20 -7 -40 -15t-36.5 -19t-27 -27t-10.5 -39 q0 -32 24.5 -45t70.5 -13q26 0 49.5 4t42.5 10t32.5 11.5t19.5 8.5l5 -81q-7 -4 -22.5 -9t-36.5 -10t-46 -8.5t-52 -3.5q-87 0 -132.5 31.5t-45.5 94.5q0 43 16 73t41.5 51.5t58 35.5t66.5 25z" glyph-name="uni01A8" horiz-adv-x="435" unicode="ƨ"/><glyph d="M55 74q25 31 59 67l72 73l77.5 74.5l77.5 72.5l-46.5 85.5l-41 79.5l-32 65t-19.5 42l15 60h458l-19 -81h-344q25 -61 61.5 -125.5l75.5 -136.5l-140.5 -131t-139.5 -138h358l-19 -81h-470z" glyph-name="uni01A9" horiz-adv-x="545" unicode="Ʃ"/><glyph d="M209 776q37 0 62 -9.5t40.5 -26t22.5 -40t7 -51.5q0 -37 -11 -76l-125 -523l-10 -43t-5 -40q0 -34 16.5 -54t61.5 -25l-21 -76q-41 1 -69.5 12.5t-46 30.5t-25.5 45t-8 57q0 23 4 48t11 52l111 462q-22 -15 -44.5 -21t-40.5 -6q-30 0 -50.5 9t-33 25t-18.5 37t-6 44 q0 34 11.5 65t34 54t55.5 36.5t77 13.5zM159 560q25 0 44.5 11t40.5 29l6 25q3 13 3 24q0 26 -14.5 42t-43.5 16q-19 0 -35.5 -7.5t-29 -20t-19.5 -30t-7 -37.5q0 -23 13 -37.5t42 -14.5z" glyph-name="uni01AA" horiz-adv-x="272" unicode="ƪ"/><glyph d="M288 -3q-8 -1 -16.5 -1.5t-17.5 -0.5q-79 0 -112 28.5t-33 91.5q0 41 14 105l107 445l97 16l-39 -161h178l-20 -78h-177l-55 -230q-12 -47 -12 -82q0 -33 18 -47.5t60 -14.5q29 0 58 4.5t43 8.5q-4 -47 -10.5 -95t-25.5 -86.5t-54.5 -62.5t-96.5 -24q-17 0 -37 4t-28 9 l24 67q6 -3 17 -5.5t25 -2.5q24 0 41 10t28 26t16.5 36t7.5 40z" glyph-name="uni01AB" horiz-adv-x="389" unicode="ƫ"/><glyph d="M729 693l-19 -81h-209l-147 -612h-97l147 612h-67q-57 0 -86 -30t-29 -81l-81 -9q-1 4 -1 8.5v6.5q0 56 20.5 92t52.5 57t70 29t73 8h373z" glyph-name="uni01AC" horiz-adv-x="585" unicode="Ƭ"/><glyph d="M207 567q12 50 30.5 89t47 65.5t67.5 40.5t93 14q35 0 66.5 -7t47.5 -15l-37 -74q-8 4 -27.5 10t-57.5 6q-33 0 -56 -9.5t-39 -26.5t-25.5 -41t-16.5 -54l-11 -45h174l-18 -78h-175l-55 -230q-6 -23 -9.5 -44t-3.5 -38q0 -33 18 -47.5t60 -14.5q29 0 57 9.5t43 17.5 l7 -79q-15 -9 -51 -19.5t-82 -10.5q-75 0 -110 33t-35 96q0 23 4 49.5t11 55.5z" glyph-name="uni01AD" horiz-adv-x="389" unicode="ƭ"/><glyph d="M374 612h-209l19 81h515l-19 -81h-209l-151 -629l-5.5 -26.5t-2.5 -22.5q0 -22 10 -34t37 -12q8 0 21.5 1.5t22.5 4.5l-7 -72q-10 -3 -27 -6t-36 -3q-66 0 -92 28.5t-26 79.5q0 16 2.5 34.5t9.5 44.5z" glyph-name="uni01AE" horiz-adv-x="555" unicode="Ʈ"/><glyph d="M647 258q-14 -57 -32.5 -107t-52.5 -86.5t-88.5 -58t-139.5 -21.5q-52 0 -90 15.5t-63 42t-37 63t-12 78.5q0 22 4 49t9 50l98 410h97l-100 -416q-5 -19 -8 -42t-3 -43q0 -26 6 -48t20.5 -38.5t37.5 -26t56 -9.5q85 0 132 47.5t71 151.5l102 424h61q27 0 44 10.5 t26.5 26.5t14 35t5.5 36h93q-3 -32 -13 -61t-29 -52t-48.5 -39.5t-72.5 -22.5z" glyph-name="Uhorn" horiz-adv-x="684" unicode="Ư"/><glyph d="M563 520q27 0 43.5 10.5t25.5 27t13 35.5t5 36h91q-3 -32 -13 -61t-29 -52t-48.5 -39.5t-72.5 -22.5l-63 -263q-5 -23 -8.5 -44.5t-3.5 -44.5t4 -46t14 -50l-82 -12q-5 11 -10 25t-8 30q-11 -10 -26 -21t-34.5 -20t-43 -15t-51.5 -6q-44 0 -73.5 13t-48 35t-26.5 52 t-8 64q0 26 4.5 51.5t10.5 51.5l64 266h93l-59 -246q-5 -23 -13 -54t-8 -62q0 -18 3.5 -34.5t13 -29t25.5 -20t40 -7.5q43 0 75.5 18.5t54.5 43.5q1 16 3 33t7 37l77 321h62z" glyph-name="uhorn" horiz-adv-x="588" unicode="ư"/><glyph d="M378 -16q-54 0 -100 15t-79.5 46t-52.5 77t-19 109q0 59 15 112t41.5 100.5t63.5 89.5t82 79h-137l19 81h260l-17 -68q-48 -37 -89.5 -82t-71.5 -95.5t-47.5 -104t-17.5 -108.5q0 -85 42.5 -125.5t117.5 -40.5q72 0 125.5 30t89 78t53 108.5t17.5 121.5q0 73 -22.5 126.5 t-59.5 91.5l16 68h253l-20 -81h-141q28 -35 51 -91t23 -122q0 -85 -25.5 -160.5t-75.5 -132t-123.5 -89.5t-170.5 -33z" glyph-name="uni01B1" horiz-adv-x="761" unicode="Ʊ"/><glyph d="M334 -15q-54 0 -92.5 14.5t-62.5 40.5t-35.5 61.5t-11.5 77.5q0 53 13 104l98 410h97l-100 -416q-5 -21 -8.5 -43t-3.5 -43q0 -24 5.5 -46t20 -38.5t38.5 -26.5t60 -10q43 0 79.5 17.5t66.5 48t53.5 71.5t39.5 88t24 98t8 102q0 63 -17 93.5t-68 30.5q-14 0 -26 -1.5 t-17 -2.5l8 74q11 3 28 5t35 2q42 0 70.5 -14.5t46 -40t25.5 -60.5t8 -75q0 -53 -8.5 -112t-26.5 -117t-48 -111t-72 -93t-98.5 -64t-128.5 -24z" glyph-name="uni01B2" horiz-adv-x="672" unicode="Ʋ"/><glyph d="M232 0l66 278q-44 112 -74.5 214.5l-59.5 200.5h105l42 -165.5t53 -161.5l97.5 126l98.5 124q34 43 66.5 65t79.5 22q43 0 68.5 -16.5t40.5 -37.5l-63 -66q-14 17 -26 26t-31 9q-20 0 -37 -15t-37 -39l-112.5 -141.5l-113.5 -144.5l-66 -278h-97z" glyph-name="uni01B3" horiz-adv-x="631" unicode="Ƴ"/><glyph d="M568 533q39 0 72 -16l-24 -70q-10 5 -19.5 8t-24.5 3q-28 0 -41.5 -15t-27.5 -49l-49 -118l-43.5 -102t-45 -91.5t-52.5 -86.5q-27 -39 -56.5 -73t-63 -58.5t-73.5 -38.5t-89 -14q-28 0 -52 7t-35 15l32 76q10 -8 27 -13.5t38 -5.5q58 0 98.5 28t76.5 74 q-37 121 -60.5 255t-28.5 272h95q1 -45 5 -98.5t11.5 -111t18 -115.5t24.5 -111q23 42 41 82t34.5 80.5l33.5 82.5t37 87q14 32 26.5 54.5t28 36.5t36 20t50.5 6z" glyph-name="uni01B4" horiz-adv-x="523" unicode="ƴ"/><glyph d="M666 616q-40 -35 -98.5 -91.5t-122.5 -125.5h146l-18 -75h-196l-110.5 -125.5t-95.5 -117.5h374l-19 -81h-491l15 65q40 54 97.5 121.5l120.5 137.5h-116l18 75h163l110.5 117l98.5 96h-343l19 81h466z" glyph-name="uni01B5" horiz-adv-x="561" unicode="Ƶ"/><glyph d="M303 241l-83.5 -89t-61.5 -75h281l-18 -77h-388l14 58q27 40 68.5 87.5l86.5 95.5h-83l16 66h127q40 42 76.5 76l65.5 60h-253l18 77h371l-16 -65l-32.5 -29.5l-41 -37.5l-44 -41l-41.5 -40h115l-16 -66h-161z" glyph-name="uni01B6" horiz-adv-x="454" unicode="ƶ"/><glyph d="M267 391l65.5 57.5l67 60l61 56.5l48.5 47h-308l19 81h426l-13 -58q-20 -23 -49 -51.5l-63 -60l-70.5 -64.5l-72.5 -64q76 -10 123.5 -49.5t47.5 -116.5q0 -62 -23 -107.5t-65 -76t-99.5 -45.5t-126.5 -15q-40 0 -72.5 5.5t-57 13.5t-41.5 16.5t-26 15.5l45 79 q19 -13 60 -29.5t104 -16.5q43 0 80.5 9t64.5 28t42.5 48t15.5 70q0 61 -46.5 85t-127.5 24h-23z" glyph-name="uni01B7" horiz-adv-x="547" unicode="Ʒ"/><glyph d="M315 -15q-106 0 -166 46.5t-60 131.5q0 53 19.5 93.5t55 69.5t84 47t106.5 26l-39.5 59l-40 63.5t-35.5 60t-26 48.5l14 63h427l-19 -81h-322q23 -45 62 -106l40.5 -61l42.5 -61l-12 -51h-15q-33 0 -75 -6t-79.5 -24t-63 -49.5t-25.5 -82.5t38.5 -77t101.5 -26 q36 0 66 4.5t53.5 11t41 14l28.5 12.5l7 -84q-8 -5 -27.5 -12t-47 -13.5t-62 -11t-72.5 -4.5z" glyph-name="uni01B8" horiz-adv-x="547" unicode="Ƹ"/><glyph d="M125 1q0 -48 30.5 -76.5t105.5 -28.5q28 0 52 4.5t42.5 11t31.5 13t20 10.5l6 -82q-8 -5 -23 -11.5t-37 -12.5t-48.5 -10t-56.5 -4q-109 0 -162 46.5t-53 131.5q0 59 22.5 101t58.5 70t81.5 43t92.5 20q-20 30 -39 62.5t-35.5 64t-29.5 60.5t-21 52l13 54h368l-18 -78 h-263q21 -48 53.5 -108t70.5 -120l-13 -55h-18q-38 0 -78.5 -7t-74.5 -25t-56 -48.5t-22 -77.5z" glyph-name="uni01B9" horiz-adv-x="444" unicode="ƹ"/><glyph d="M472 457q-34 -36 -86 -82t-115 -95q75 -13 107 -48t32 -92q0 -47 -16.5 -78.5t-45.5 -52.5t-68.5 -34t-85.5 -23l-66 -13.5t-47 -14.5t-28 -25t-9 -45q0 -11 1.5 -18t2.5 -9l-74 -15q-2 10 -4 23t-2 23q0 45 12 72t34.5 43.5t54 25.5t70.5 17q38 8 71.5 16.5t58.5 21.5 t39.5 33t14.5 50q0 21 -8 37t-26.5 27t-49 17.5t-76.5 8.5l15 62q61 45 106.5 82.5t81.5 70.5h-251l18 78h354z" glyph-name="uni01BA" horiz-adv-x="423" unicode="ƺ"/><glyph d="M566 552q0 -32 -8.5 -59.5t-22 -51t-32 -43.5t-37.5 -37h86l-17 -73h-152q-38 -26 -72 -52.5t-61.5 -52.5t-47 -52t-27.5 -50h317l-19 -81h-420q8 50 26.5 91.5t45.5 76t60 64t71 56.5h-107l17 73h186q52 38 85 80t33 99q0 40 -23.5 64t-74.5 24q-28 0 -53 -7t-45 -17 t-35.5 -21.5t-24.5 -20.5l-32 72q14 13 35 26t47.5 24t57 18t62.5 7q48 0 82 -13.5t56 -35.5t32.5 -50t11.5 -58z" glyph-name="uni01BB" horiz-adv-x="519" unicode="ƻ"/><glyph d="M625 693l-19 -81h-249q-6 -20 -14.5 -45.5l-17 -51.5l-16 -49.5l-12.5 -39.5q121 -10 180.5 -58.5t59.5 -133.5q0 -53 -19 -98.5t-57 -79t-96.5 -52.5t-136.5 -19q-30 0 -58 4.5t-51 10.5t-39 12.5t-22 11.5l37 81q7 -4 20.5 -10t32.5 -12t43 -10.5t51 -4.5 q40 0 75.5 10.5t62.5 30.5t43 49t16 67q0 37 -15.5 61t-47 39t-79.5 21.5t-114 8.5l46.5 133t39.5 124h-94l19 81h431z" glyph-name="uni01BC" horiz-adv-x="533" unicode="Ƽ"/><glyph d="M460 172q0 -50 -20 -85t-54.5 -57t-81 -32t-98.5 -10q-51 0 -91.5 7.5t-62.5 18.5l28 77q17 -8 48.5 -16.5t88.5 -8.5q30 0 57.5 5t49 16.5t34 31.5t12.5 50q0 20 -10 36t-32.5 27t-59.5 17t-91 6h-41l34.5 99.5l29.5 91.5h-77l17 74h378l-17 -74h-219l-9.5 -28.5 l-10.5 -33t-10.5 -32l-9.5 -26.5q63 -2 104.5 -14t67 -32t36 -47.5t10.5 -60.5z" glyph-name="uni01BD" horiz-adv-x="466" unicode="ƽ"/><glyph d="M268 520h179l-20 -78h-178l-11 -46q-1 -5 -1.5 -10t-0.5 -10q0 -27 20.5 -44.5t62.5 -36.5q26 -12 46.5 -24.5t35 -28t22 -36.5t7.5 -50q0 -42 -16 -74t-44.5 -53t-67.5 -31.5t-85 -10.5q-34 0 -61.5 4.5t-48 10.5t-34 12.5t-20.5 10.5l36 76q7 -4 19.5 -10t30 -11.5 t38.5 -9.5t44 -4q21 0 42.5 4t38 13t27 24t10.5 38q0 15 -5 26.5t-16 21.5t-27.5 19.5t-39.5 21.5q-23 11 -42 22t-33.5 26t-22.5 35t-8 49q0 11 1 24t3 19l62 256l96 16z" glyph-name="uni01BE" horiz-adv-x="430" unicode="ƾ"/><glyph d="M578 347q0 -140 -101.5 -242.5t-320.5 -158.5l-31 -131h-93l162 675q30 12 83.5 26.5t117.5 14.5q49 0 84 -14.5t57 -39t32 -58t10 -72.5zM375 450q-38 0 -63 -6t-39 -11l-96 -403q83 25 141.5 57t95.5 71t54 83.5t17 95.5q0 21 -4.5 41.5t-16.5 36t-33.5 25.5t-55.5 10z" glyph-name="uni01BF" horiz-adv-x="558" unicode="ƿ"/><glyph d="M281 783h85l-233 -968h-85z" glyph-name="uni01C0" horiz-adv-x="275" unicode="ǀ"/><glyph d="M485 783h85l-233 -968h-85zM281 783h85l-233 -968h-85z" glyph-name="uni01C1" horiz-adv-x="483" unicode="ǁ"/><glyph d="M150 436h197l84 347h85l-83 -347h197l-18 -74h-197l-29 -118h198l-18 -74h-198l-85 -355h-85l85 355h-197l18 74h197l29 118h-198z" glyph-name="uni01C2" horiz-adv-x="570" unicode="ǂ"/><glyph d="M338 693l-45 -189q-6 -24 -16.5 -62.5t-23 -79.5t-26 -80.5t-24.5 -65.5h-57q8 68 18.5 136.5t30.5 152.5l45 188h98zM133 -13q-28 0 -44 15t-16 44q0 36 21.5 55.5t49.5 19.5t44.5 -15.5t16.5 -45.5q0 -17 -6.5 -30.5t-16.5 -23t-23 -14.5t-26 -5z" glyph-name="uni01C3" horiz-adv-x="250" unicode="ǃ"/></font>
</defs>
</svg>
